<?xml version="1.0" encoding="UTF-8"?>
<svg width="74px" height="28px" viewBox="0 0 74 28" version="1.1" xmlns="http://www.w3.org/2000/svg"
    xmlns:xlink="http://www.w3.org/1999/xlink">
    <!-- Generator: Sketch 63.1 (92452) - https://sketch.com -->
    <title>AEG</title>
    <desc>Created with Sketch.</desc>
    <g id="AEG" stroke="none" stroke-width="1" fill="none" fill-rule="evenodd">
        <g transform="translate(-0.000000, 0.000000)" fill="#FFF" fill-rule="nonzero">
            <path
                d="M7.56875,0.06125 L9.24,4.34 L0.02625,27.5625 L3.68375,27.5625 L6.3,20.97375 L15.75,20.97375 L18.33125,27.5625 L25.76875,27.5625 L15.00625,0.06125 L7.56875,0.06125 Z M7.55125,17.80625 L11.06,8.96875 L14.51625,17.80625 L7.55125,17.80625 Z"
                id="Shape"></path>
            <polygon id="Path"
                points="35.91 15.26 44.6075 15.26 45.885 12.04875 35.91 12.04875 35.91 3.36875 46.8125 3.36875 48.13375 0.06125 28.945 0.06125 28.945 27.5625 47.10125 27.5625 48.41375 24.24625 35.91 24.24625">
            </polygon>
            <path
                d="M62.5975,15.26 L67.19125,15.26 L67.19125,24.57 C66.64,24.71875 66.01,24.80625 65.345,24.80625 C59.15875,24.80625 57.3475,19.075 57.3475,14 C57.3475,9.135 58.905,3.36875 64.88125,3.36875 L71.26,3.36875 L72.5725,0.06125 L64.1375,0.06125 C55.9475,0.06125 50.16375,5.7225 50.16375,14 C50.16375,22.18125 55.72,27.93875 64.33,27.93875 C68.6175,27.93875 71.4,27.125 73.6925,26.32 L73.6925,12.04875 L63.875,12.04875 L62.5975,15.26 Z"
                id="Path"></path>
        </g>
    </g>
</svg>