<?xml version="1.0" encoding="UTF-8"?>
<svg width="85px" height="35px" viewBox="0 0 85 35" version="1.1" xmlns="http://www.w3.org/2000/svg" xmlns:xlink="http://www.w3.org/1999/xlink">
    <!-- Generator: Sketch 63.1 (92452) - https://sketch.com -->
    <title>BeefEater</title>
    <desc>Created with Sketch.</desc>
    <g id="BeefEater" stroke="none" stroke-width="1" fill="none" fill-rule="evenodd">
        <g transform="translate(0.000000, 0.000000)" fill-rule="nonzero">
            <g id="XMLID_66_">
                <path d="M78.1518987,10.0126582 L46.3860759,1.50632911 C43.6392405,0.797468354 40.8037975,0.797468354 38.056962,1.50632911 L6.29113924,10.0126582 C-1.50632911,12.0949367 -1.46202532,23.1265823 6.29113924,25.2088608 L38.056962,33.6708861 C40.8037975,34.3797468 43.6392405,34.3797468 46.3860759,33.6708861 L78.1962025,25.2088608 C85.9493671,23.1265823 85.9493671,12.0949367 78.1518987,10.0126582 Z" id="XMLID_237_" fill="#FFFFFF"></path>
                <g id="XMLID_232_" fill="#D72132">
                    <path d="M77.443038,12.3164557 L45.7658228,3.85443038 C43.4177215,3.23417722 40.9810127,3.23417722 38.6329114,3.85443038 L7,12.3164557 C1.59493671,13.7341772 1.59493671,21.443038 7,22.8607595 L38.6329114,31.3227848 C40.9810127,31.943038 43.4177215,31.943038 45.721519,31.3227848 L77.3987342,22.8607595 C82.8481013,21.443038 82.8481013,13.7341772 77.443038,12.3164557 Z" id="XMLID_236_"></path>
                    <path d="M78.1518987,9.43670886 L46.7405063,1.01898734 C43.7721519,0.221518987 40.6265823,0.221518987 37.6582278,1.01898734 L6.24683544,9.43670886 C-2.08227848,11.6518987 -2.08227848,23.5253165 6.24683544,25.7405063 L37.7025316,34.1139241 C40.6708861,34.9113924 43.8164557,34.9113924 46.7848101,34.1139241 L78.1962025,25.7405063 C86.5253165,23.5253165 86.5253165,11.6518987 78.1518987,9.43670886 Z M77.9303797,24.7658228 L46.4746835,33.1392405 C43.6835443,33.8924051 40.7594937,33.8924051 37.9683544,33.1392405 L6.51265823,24.721519 C-0.841772152,22.7721519 -0.841772152,12.3164557 6.51265823,10.3227848 L37.9683544,1.90506329 C40.7594937,1.15189873 43.6835443,1.15189873 46.4746835,1.90506329 L77.9303797,10.3227848 C85.2848101,12.3607595 85.2848101,22.8164557 77.9303797,24.7658228 Z" id="XMLID_233_"></path>
                </g>
            </g>
            <g id="XMLID_225_" transform="translate(11.075949, 12.405063)" fill="#FFFFFF">
                <path d="M3.67721519,9.96835443 L0.310126582,9.96835443 L0.310126582,8.32911392 L0.930379747,8.32911392 L0.930379747,1.8164557 L0.310126582,1.8164557 L0.310126582,0.221518987 L4.03164557,0.221518987 C5.93670886,0.221518987 6.77848101,0.974683544 6.77848101,2.65822785 C6.77848101,3.81012658 6.37974684,4.47468354 5.44936709,4.74050633 C6.51265823,5.00632911 7,5.80379747 7,7.13291139 C7.0443038,9.17088608 6.11392405,9.96835443 3.67721519,9.96835443 Z M3.05696203,8.46202532 L3.58860759,8.46202532 C4.56329114,8.46202532 4.91772152,8.10759494 4.91772152,7 C4.91772152,5.98101266 4.51898734,5.58227848 3.63291139,5.58227848 L3.05696203,5.58227848 L3.05696203,8.46202532 L3.05696203,8.46202532 Z M3.05696203,4.25316456 L3.5,4.25316456 C4.38607595,4.25316456 4.74050633,3.89873418 4.74050633,2.96835443 C4.74050633,1.99367089 4.43037975,1.59493671 3.5,1.59493671 L3.05696203,1.59493671 L3.05696203,4.25316456 Z" id="XMLID_226_"></path>
            </g>
            <g id="XMLID_222_" transform="translate(30.569620, 11.962025)" fill="#FFFFFF">
                <path d="M4.16455696,10.4113924 L0.310126582,10.4113924 L0.310126582,8.8164557 L1.06329114,8.8164557 L1.06329114,4.91772152 L0.132911392,4.91772152 L0.132911392,3.41139241 L1.06329114,3.41139241 C1.06329114,3.23417722 1.06329114,3.10126582 1.06329114,2.96835443 C1.06329114,1.10759494 1.63924051,0.35443038 3.18987342,0.35443038 C3.5,0.35443038 4.03164557,0.35443038 4.34177215,0.398734177 L4.47468354,0.398734177 L4.47468354,1.94936709 L4.34177215,1.94936709 C4.20886076,1.94936709 3.89873418,1.90506329 3.81012658,1.90506329 C3.41139241,1.90506329 3.23417722,2.03797468 3.23417722,2.70253165 L3.23417722,3.36708861 L4.43037975,3.36708861 L4.43037975,4.87341772 L3.18987342,4.87341772 L3.18987342,8.7721519 L4.12025316,8.7721519 L4.12025316,10.4113924 L4.16455696,10.4113924 Z" id="XMLID_223_"></path>
            </g>
            <g id="XMLID_212_" transform="translate(47.405063, 12.405063)" fill="#FFFFFF">
                <g id="XMLID_218_">
                    <polygon id="XMLID_219_" points="6.60126582 9.96835443 0.221518987 9.96835443 0.221518987 8.32911392 0.841772152 8.32911392 0.841772152 1.8164557 0.221518987 1.8164557 0.221518987 0.221518987 6.60126582 0.221518987 6.60126582 3.23417722 4.69620253 3.23417722 4.69620253 1.8164557 3.10126582 1.8164557 3.10126582 4.12025316 5.09493671 4.12025316 5.09493671 5.84810127 3.10126582 5.84810127 3.10126582 8.32911392 4.69620253 8.32911392 4.69620253 6.77848101 6.60126582 6.77848101 6.60126582 9.96835443"></polygon>
                </g>
            </g>
            <g id="XMLID_209_" transform="translate(60.696203, 13.291139)" fill="#FFFFFF">
                <path d="M3.01265823,9.21518987 C1.50632911,9.21518987 0.930379747,8.55063291 0.930379747,6.9556962 L0.930379747,6.82278481 C0.930379747,5.75949367 0.974683544,4.69620253 0.974683544,3.58860759 L0.35443038,3.58860759 L0.35443038,2.03797468 L1.01898734,2.03797468 L1.06329114,0.797468354 L1.15189873,0.753164557 L3.23417722,0.0443037975 L3.18987342,2.03797468 L4.16455696,2.03797468 L4.16455696,3.58860759 L3.18987342,3.58860759 L3.14556962,6.64556962 C3.14556962,7.31012658 3.27848101,7.48734177 3.85443038,7.48734177 C3.94303797,7.48734177 4.03164557,7.48734177 4.16455696,7.48734177 L4.20886076,7.48734177 L4.20886076,9.12658228 L4.20886076,9.12658228 C3.85443038,9.17088608 3.4556962,9.21518987 3.01265823,9.21518987 Z" id="XMLID_210_"></path>
            </g>
            <g id="XMLID_187_" transform="translate(71.329114, 15.063291)" fill="#FFFFFF">
                <path d="M3.41139241,7.31012658 L0.0886075949,7.31012658 L0.0886075949,5.71518987 L0.575949367,5.71518987 L0.575949367,1.86075949 L0.0886075949,1.86075949 L0.0886075949,0.310126582 L2.52531646,0.310126582 L2.52531646,1.15189873 C2.87974684,0.487341772 3.41139241,0.132911392 4.20886076,0.132911392 C4.29746835,0.132911392 4.38607595,0.132911392 4.51898734,0.132911392 L4.60759494,0.132911392 L4.60759494,2.21518987 L4.47468354,2.21518987 C4.38607595,2.21518987 4.25316456,2.21518987 4.16455696,2.21518987 C3.18987342,2.21518987 2.79113924,2.74683544 2.79113924,3.89873418 L2.79113924,5.71518987 L3.41139241,5.71518987 L3.41139241,7.31012658 Z" id="XMLID_188_"></path>
            </g>
            <path d="M60.2531646,20.778481 L60.2531646,17.721519 C60.2531646,15.9493671 59.4556962,15.1962025 57.5949367,15.1962025 C55.8670886,15.1962025 55.0696203,15.8607595 55.0696203,17.3227848 L57.1075949,17.3227848 L57.1075949,17.1455696 C57.1075949,16.7911392 57.3291139,16.5696203 57.6392405,16.5696203 C58.0379747,16.5696203 58.1708861,16.7911392 58.1708861,17.3227848 L58.1708861,18.1202532 L57.6835443,18.1202532 C55.9556962,18.1202532 54.8481013,18.7405063 54.8481013,20.2025316 C54.8481013,21.664557 55.4683544,22.4177215 56.664557,22.4177215 C57.4177215,22.4177215 57.9936709,22.1518987 58.3924051,21.5759494 L58.3924051,22.3291139 L60.6962025,22.3291139 L60.6962025,20.7341772 L60.2531646,20.7341772 L60.2531646,20.778481 Z M58.3037975,19.6708861 C58.3037975,20.4683544 57.9493671,21 57.4177215,21 C56.9746835,21 56.7531646,20.6898734 56.7531646,20.1582278 C56.7531646,19.3164557 57.2405063,19.1835443 58.1708861,19.1835443 L58.2594937,19.1835443 L58.2594937,19.6708861 L58.3037975,19.6708861 Z" id="XMLID_184_" fill="#FFFFFF"></path>
            <path d="M68.6708861,20.1582278 C68.6708861,20.9113924 68.4493671,21.0886076 68.1392405,21.0886076 C67.7848101,21.0886076 67.6075949,20.7341772 67.6075949,20.0696203 L67.6075949,19.3164557 L70.6202532,19.3164557 L70.6202532,17.721519 C70.6202532,16.0822785 69.778481,15.2405063 68.1392405,15.2405063 C66.4113924,15.2405063 65.6139241,16.1708861 65.6139241,18.164557 L65.6139241,19.7594937 C65.6139241,21.6202532 66.4556962,22.5949367 68.0949367,22.5949367 C69.6898734,22.5949367 70.5759494,21.7531646 70.6202532,20.2025316 L68.6708861,20.2025316 L68.6708861,20.1582278 Z M67.6075949,17.4556962 C67.6075949,16.7911392 67.7405063,16.4810127 68.1835443,16.4810127 C68.5822785,16.4810127 68.7594937,16.7911392 68.7594937,17.4113924 L68.7594937,18.1202532 L67.6075949,18.1202532 L67.6075949,17.4556962 L67.6075949,17.4556962 Z" id="XMLID_181_" fill="#FFFFFF"></path>
            <path d="M28,20.1582278 C28,20.9113924 27.778481,21.0886076 27.4683544,21.0886076 C27.1139241,21.0886076 26.9367089,20.7341772 26.9367089,20.0696203 L26.9367089,19.3164557 L29.9493671,19.3164557 L29.9493671,17.721519 C29.9493671,16.0822785 29.1075949,15.2405063 27.4683544,15.2405063 C25.7405063,15.2405063 24.943038,16.1708861 24.943038,18.164557 L24.943038,19.7594937 C24.943038,21.6202532 25.7848101,22.5949367 27.4240506,22.5949367 C29.0189873,22.5949367 29.9050633,21.7531646 29.9493671,20.2025316 L28,20.2025316 L28,20.1582278 Z M26.9367089,17.4556962 C26.9367089,16.7911392 27.0696203,16.4810127 27.5126582,16.4810127 C27.9113924,16.4810127 28.0886076,16.7911392 28.0886076,17.4113924 L28.0886076,18.1202532 L26.9367089,18.1202532 L26.9367089,17.4556962 L26.9367089,17.4556962 Z" id="XMLID_178_" fill="#FFFFFF"></path>
            <path d="M22.0632911,20.1582278 C22.0632911,20.9113924 21.8417722,21.0886076 21.5316456,21.0886076 C21.1772152,21.0886076 21,20.7341772 21,20.0696203 L21,19.3164557 L24.0126582,19.3164557 L24.0126582,17.721519 C24.0126582,16.0822785 23.1708861,15.2405063 21.5316456,15.2405063 C19.8037975,15.2405063 19.0063291,16.1708861 19.0063291,18.164557 L19.0063291,19.7594937 C19.0063291,21.6202532 19.8481013,22.5949367 21.4873418,22.5949367 C23.0822785,22.5949367 23.9683544,21.7531646 24.0126582,20.2025316 L22.0632911,20.2025316 L22.0632911,20.1582278 Z M21,17.4556962 C21,16.7911392 21.1329114,16.4810127 21.5759494,16.4810127 C21.9746835,16.4810127 22.1518987,16.7911392 22.1518987,17.4113924 L22.1518987,18.1202532 L21,18.1202532 L21,17.4556962 L21,17.4556962 Z" id="XMLID_175_" fill="#FFFFFF"></path>
            <path d="M31.721519,7.84177215 C31.8544304,8.24050633 32.0759494,8.6835443 32.3860759,9.12658228 C32.6518987,9.52531646 33.2721519,10.3227848 34.6898734,11.164557 C36.1518987,12.0506329 37.2151899,12.0506329 37.2151899,12.0506329 C37.2151899,12.0506329 36.6835443,13.2468354 36.6835443,15.8164557 C36.6835443,16.835443 36.7721519,18.0316456 36.9936709,19.4050633 C37.5696203,22.9493671 39.1202532,27.335443 39.6962025,28.8860759 C39.8291139,29.2405063 40.1392405,29.5063291 40.5379747,29.5506329 C41.4683544,29.7278481 42.3987342,29.7278481 43.3291139,29.6392405 C43.9936709,29.5506329 44.4367089,28.9746835 44.3924051,28.3101266 C44.3037975,27.335443 44.2594937,25.8291139 44.4810127,23.7468354 C44.6582278,22.2405063 45.1012658,20.335443 45.6329114,18.3860759 C46.5189873,14.7531646 45.9873418,12.0063291 45.9873418,12.0063291 C45.9873418,12.0063291 48.9113924,11.6518987 50.3734177,10.056962 C51.7025316,8.59493671 51.835443,7.35443038 51.7911392,7.08860759 C51.7911392,6.91139241 51.6582278,6.77848101 51.5253165,6.73417722 C51.3037975,6.64556962 51.0822785,6.68987342 50.9493671,6.91139241 C50.8164557,7.08860759 50.7278481,7.66455696 50.4177215,8.28481013 C50.1075949,8.86075949 49.5759494,9.48101266 48.8227848,9.87974684 C47.3607595,10.6329114 45.6329114,10.6329114 44.8797468,10.6329114 C44.4810127,10.5886076 44.4367089,10.6772152 44.3924051,10.8544304 C44.3481013,10.9873418 45.278481,14.0886076 43.8164557,19.5379747 C42.3987342,24.6772152 43.3291139,28.3544304 43.2405063,28.1329114 C42.5316456,28.3544304 41.6455696,28.3101266 40.8481013,28.0886076 C40.8481013,28.0886076 39.164557,24.2341772 38.4556962,19.3164557 C37.8797468,15.6392405 38.278481,13.9556962 38.5,13.1582278 C38.7658228,12.2278481 39.4746835,11.164557 39.4746835,10.9873418 C39.4746835,10.8101266 39.2531646,10.7658228 39.164557,10.721519 C39.0759494,10.6772152 36.0189873,10.4113924 34.4683544,9.39240506 C34.0696203,9.12658228 33.7594937,8.90506329 33.4050633,8.59493671 C33.1392405,8.32911392 33.0506329,8.19620253 32.8734177,7.88607595 C32.6518987,7.44303797 32.5632911,6.9556962 32.5189873,6.86708861 C32.4303797,6.73417722 32.2974684,6.64556962 32.1202532,6.64556962 C31.943038,6.64556962 31.721519,6.73417722 31.6772152,7.0443038 C31.5886076,7.26582278 31.6329114,7.53164557 31.721519,7.84177215 Z" id="XMLID_172_" fill="#FFFFFF"></path>
        </g>
    </g>
</svg>