<?xml version="1.0" encoding="UTF-8"?>
<svg width="103px" height="31px" viewBox="0 0 103 31" version="1.1" xmlns="http://www.w3.org/2000/svg"
    xmlns:xlink="http://www.w3.org/1999/xlink">
    <!-- Generator: Sketch 63.1 (92452) - https://sketch.com -->
    <title>Chef</title>
    <desc>Created with Sketch.</desc>
    <g id="Chef" stroke="none" stroke-width="1" fill="none" fill-rule="evenodd">
        <g id="CHEF" fill="#FFF" fill-rule="nonzero">
            <g id="Group" transform="translate(0.000000, 11.111111)">
                <path
                    d="M9.11111111,18.6666667 L26.6666667,18.6666667 L26.6666667,12.6666667 L7.33333333,12.6666667 L7.33333333,7.22222222 L26.8888889,7.22222222 L26.8888889,1.11111111 C26.8888889,1.11111111 11.4444444,1.11111111 8.55555556,1.11111111 C5.77777778,1.11111111 0,3.22222222 0,10 C0,16.7777778 5.66666667,18.6666667 9.11111111,18.6666667 Z"
                    id="Path"></path>
                <polygon id="Path"
                    points="28.4444444 18.4444444 28.4444444 0.888888889 35 0.888888889 35 7.66666667 45.4444444 7.66666667 45.4444444 1.44444444 52.2222222 1.44444444 52.2222222 18.4444444 45.5555556 18.4444444 45.5555556 12.6666667 35 12.6666667 35 18.4444444">
                </polygon>
                <polygon id="Path"
                    points="54.3333333 1.33333333 77 1.33333333 77 5.77777778 59.8888889 5.77777778 59.8888889 7.66666667 77 7.66666667 77 12.1111111 60.2222222 12.1111111 60.2222222 14 76.7777778 14 76.7777778 18.4444444 54.2222222 18.4444444">
                </polygon>
                <polygon id="Path"
                    points="79.4444444 1.33333333 102.111111 1.33333333 102.111111 5.77777778 85 5.77777778 85 7.66666667 102 7.66666667 102 12.1111111 85.2222222 12.1111111 85.2222222 18.4444444 79.3333333 18.4444444">
                </polygon>
            </g>
            <path
                d="M30.4444444,2.55555556 C28,4.33333333 27.2222222,7.22222222 28.3333333,10.2222222 L31.2222222,9.11111111 C30.4444444,7 31.3333333,5.77777778 32.2222222,5.11111111 C33.5555556,4.11111111 35.4444444,4 36.3333333,4.66666667 C39.5555556,7.33333333 40.8888889,7.33333333 44.2222222,4.88888889 C45.2222222,4.11111111 47.5555556,4.11111111 48.7777778,5.11111111 C49.1111111,5.33333333 50.1111111,6.22222222 49.1111111,8.55555556 L52,9.77777778 C53.7777778,5.66666667 51.7777778,3.44444444 50.7777778,2.66666667 C48.5555556,0.888888889 44.5555556,0.777777778 42.3333333,2.33333333 C40.3333333,3.77777778 40.3333333,3.77777778 38.3333333,2.11111111 C36.4444444,0.555555556 33,0.777777778 30.4444444,2.55555556 Z"
                id="Path"></path>
        </g>
    </g>
</svg>