<?xml version="1.0" encoding="UTF-8"?>
<svg width="78px" height="30px" viewBox="0 0 78 30" version="1.1" xmlns="http://www.w3.org/2000/svg"
    xmlns:xlink="http://www.w3.org/1999/xlink">
    <!-- Generator: Sketch 63.1 (92452) - https://sketch.com -->
    <title>Dishlex</title>
    <desc>Created with Sketch.</desc>
    <g id="Dishlex" stroke="none" stroke-width="1" fill="none" fill-rule="evenodd">
        <g id="DISHLEX" transform="translate(0.000000, 0.000000)" fill="#FFF" fill-rule="nonzero">
            <path
                d="M2.45454545,12.5454545 C2.45454545,10.6363636 2.59090909,7.09090909 6.40909091,7.09090909 C9.95454545,7.09090909 10.2272727,10.9090909 10.2272727,13.2272727 C10.2272727,17.0454545 7.77272727,18.1363636 6.27272727,18.1363636 C3.68181818,18.1363636 2.45454545,15.6818182 2.45454545,12.5454545 Z M12.8181818,0 L10.3636364,0 L10.3636364,7.36363636 L10.3636364,7.36363636 C9.68181818,6.54545455 8.59090909,4.90909091 6,4.90909091 C2.18181818,4.90909091 0,8.04545455 0,12.1363636 C0,15.5454545 1.36363636,20.1818182 6.27272727,20.1818182 C7.63636364,20.1818182 9.27272727,19.7727273 10.3636364,17.7272727 L10.3636364,17.7272727 L10.3636364,19.7727273 L12.6818182,19.7727273 L12.6818182,0 L12.8181818,0 Z"
                id="Shape"></path>
            <path
                d="M18.9545455,19.7727273 L16.5,19.7727273 L16.5,5.31818182 L18.9545455,5.31818182 L18.9545455,19.7727273 Z M16.5,2.72727273 L16.5,0 L18.9545455,0 L18.9545455,2.72727273 L16.5,2.72727273 Z"
                id="Shape"></path>
            <polygon id="Path" points="50.0454545 19.7727273 47.5909091 19.7727273 47.5909091 0 50.0454545 0"></polygon>
            <path
                d="M54.5454545,11.4545455 C54.5454545,9.27272727 56.3181818,7.09090909 58.5,7.09090909 C61.5,7.09090909 62.3181818,9.13636364 62.4545455,11.4545455 L54.5454545,11.4545455 Z M62.4545455,15.2727273 C62.3181818,16.3636364 61.0909091,18.1363636 58.7727273,18.1363636 C56.0454545,18.1363636 54.5454545,16.3636364 54.5454545,13.3636364 L65.0454545,13.3636364 C65.0454545,8.31818182 63,4.90909091 58.9090909,4.90909091 C54.1363636,4.90909091 51.9545455,8.45454545 51.9545455,12.9545455 C51.9545455,17.0454545 54.4090909,20.1818182 58.3636364,20.1818182 C60.6818182,20.1818182 61.6363636,19.6363636 62.3181818,19.2272727 C64.0909091,18 64.7727273,15.9545455 64.9090909,15.2727273 L62.4545455,15.2727273 Z"
                id="Shape"></path>
            <polygon id="Path"
                points="77.7272727 19.7727273 74.5909091 19.7727273 71.0454545 14.3181818 67.6363636 19.7727273 64.6363636 19.7727273 69.5454545 12.4090909 64.7727273 5.45454545 67.9090909 5.45454545 71.1818182 10.5 74.4545455 5.45454545 77.4545455 5.45454545 72.5454545 12.4090909">
            </polygon>
            <path
                d="M30.4090909,9 C29.4545455,9 29.4545455,5.59090909 27.2727273,5.59090909 C26.3181818,5.59090909 25.5,6.27272727 25.5,7.63636364 C25.5,10.0909091 29.5909091,12.5454545 29.5909091,15.4090909 C29.5909091,17.8636364 27.4090909,20.3181818 24.5454545,20.3181818 C22.3636364,20.3181818 20.5909091,19.5 20.5909091,18.4090909 C20.5909091,17.7272727 20.7272727,16.6363636 20.8636364,16.2272727 C21,15.2727273 21.2727273,15.1363636 21.6818182,15.1363636 C22.2272727,15.1363636 22.2272727,15.5454545 22.6363636,16.7727273 C23.0454545,18 23.8636364,19.5 25.2272727,19.5 C26.1818182,19.5 27.1363636,18.6818182 27.1363636,17.1818182 C27.1363636,14.5909091 23.1818182,12.8181818 23.1818182,9.68181818 C23.1818182,6.68181818 25.6363636,4.90909091 28.0909091,4.90909091 C29.8636364,4.90909091 31.6363636,5.59090909 31.6363636,6.27272727 C31.6363636,6.68181818 31.0909091,9 30.4090909,9 Z"
                id="Path"></path>
            <path
                d="M34.5,18.4090909 L33.9545455,19.7727273 L31.5,19.7727273 L35.8636364,3.27272727 C36,2.86363636 36.1363636,2.31818182 35.7272727,2.04545455 C35.1818182,1.77272727 34.0909091,1.77272727 34.0909091,1.90909091 L34.2272727,0.954545455 L39.1363636,1.21115239e-15 L35.3181818,14.1818182 L36.6818182,11.8636364 C37.7727273,9.95454545 40.9090909,4.36363636 43.2272727,5.04545455 C45.8181818,5.72727273 44.1818182,9.81818182 44.0454545,10.2272727 L42.4090909,15.1363636 C42.1363636,15.8181818 41.1818182,18 41.8636364,18.2727273 C42.4090909,18.4090909 43.3636364,17.3181818 43.9090909,16.3636364 L44.7272727,14.8636364 L45.5454545,15.4090909 L44.1818182,17.4545455 C43.9090909,17.8636364 42.2727273,20.1818182 40.5,20.0454545 C39.4090909,19.9090909 38.4545455,18.6818182 39.5454545,15.6818182 L41.4545455,10.0909091 C41.8636364,9 42.5454545,7.5 41.5909091,7.22727273 C40.0909091,6.81818182 35.0454545,17.0454545 34.5,18.4090909 Z"
                id="Path"></path>
            <g id="Group" transform="translate(19.090909, 20.454545)">
                <path
                    d="M14.1818182,1.77272727 C14.4545455,1.77272727 14.5909091,1.77272727 14.8636364,1.63636364 C15.1363636,1.77272727 15.5454545,2.04545455 15.9545455,1.90909091 C16.0909091,1.77272727 16.3636364,1.77272727 16.5,1.63636364 C16.6363636,1.63636364 16.7727273,1.63636364 16.9090909,1.63636364 C16.9090909,1.90909091 16.6363636,1.77272727 16.6363636,1.90909091 C16.6363636,2.04545455 16.7727273,2.18181818 16.9090909,2.18181818 C17.1818182,2.18181818 17.0454545,1.90909091 17.3181818,1.77272727 C17.7272727,1.63636364 18,2.04545455 18.1363636,2.31818182 C18.1363636,2.31818182 18.2727273,2.31818182 18.2727273,2.31818182 C18.2727273,2.18181818 18.2727273,2.18181818 18.2727273,2.04545455 C18.4090909,1.90909091 18.4090909,1.90909091 18.5454545,2.04545455 C18.5454545,2.04545455 18.6818182,2.04545455 18.6818182,2.18181818 C18.8181818,2.31818182 18.4090909,2.45454545 18.6818182,2.59090909 C18.9545455,2.59090909 19.2272727,2.59090909 19.3636364,2.59090909 C19.3636364,2.72727273 19.2272727,2.72727273 19.3636364,2.72727273 C19.5,2.86363636 19.7727273,2.86363636 20.0454545,3 C20.0454545,3.13636364 20.0454545,3.13636364 20.1818182,3.13636364 C20.1818182,3.13636364 20.3181818,3 20.3181818,3 C20.3181818,2.86363636 20.1818182,2.86363636 20.1818182,2.86363636 L20.1818182,2.86363636 C20.1818182,2.72727273 20.3181818,2.45454545 20.4545455,2.45454545 C20.5909091,2.45454545 20.8636364,2.59090909 21,2.45454545 C21.1363636,2.45454545 21.2727273,2.45454545 21.4090909,2.59090909 C21.4090909,2.72727273 21.2727273,2.72727273 21.4090909,2.86363636 C21.6818182,3.13636364 22.2272727,2.86363636 22.3636364,3.13636364 C22.5,3.13636364 22.5,3.13636364 22.5,3 L23.4545455,3.13636364 C23.5909091,3.13636364 23.7272727,3.27272727 23.7272727,3.27272727 C23.7272727,3.27272727 23.8636364,3.27272727 24,3.27272727 C24.1363636,3.40909091 24,3.54545455 24,3.68181818 L23.8636364,3.81818182 C24,3.81818182 23.8636364,4.22727273 24.1363636,4.09090909 C24.2727273,4.22727273 24.2727273,4.09090909 24.4090909,4.09090909 C24.6818182,4.09090909 24.8181818,4.36363636 24.9545455,4.36363636 C24.9545455,4.5 24.8181818,4.63636364 24.6818182,4.77272727 C24.5454545,4.77272727 24.5454545,4.77272727 24.5454545,4.77272727 C24.5454545,4.77272727 24.5454545,4.90909091 24.6818182,4.90909091 C24.8181818,4.90909091 25.0909091,4.90909091 25.2272727,4.90909091 C25.2272727,4.77272727 25.2272727,4.77272727 25.3636364,4.77272727 C25.5,4.77272727 25.6363636,4.90909091 25.7727273,4.90909091 C25.7727273,5.04545455 25.6363636,5.18181818 25.7727273,5.31818182 C26.1818182,5.72727273 26.8636364,5.45454545 27.4090909,5.31818182 C27.5454545,5.31818182 27.5454545,5.31818182 27.6818182,5.45454545 C27.6818182,5.59090909 27.6818182,5.59090909 27.5454545,5.59090909 C27.4090909,5.59090909 27.1363636,5.59090909 27.1363636,5.72727273 C27.4090909,5.86363636 27.5454545,5.72727273 27.8181818,5.72727273 C27.9545455,5.86363636 28.2272727,5.86363636 28.3636364,6 C28.3636364,6.13636364 28.3636364,6.13636364 28.2272727,6.13636364 C28.0909091,6 27.8181818,6 27.5454545,6 C27.4090909,6 27.2727273,5.72727273 27.1363636,5.86363636 C27.1363636,6 27.1363636,6.13636364 27,6.13636364 C26.7272727,6.13636364 26.5909091,6.27272727 26.3181818,6.27272727 C26.3181818,6.27272727 26.3181818,6.40909091 26.1818182,6.40909091 C26.0454545,6.40909091 25.9090909,6.40909091 25.9090909,6.40909091 C25.7727273,6.27272727 26.0454545,6.27272727 25.9090909,6.13636364 C25.7727273,6 25.7727273,6 25.6363636,6 C25.5,6 25.5,6.27272727 25.5,6.27272727 C25.2272727,6.27272727 24.9545455,6.40909091 24.6818182,6.27272727 C24.5454545,6.27272727 24.5454545,6.13636364 24.5454545,6.13636364 C24.8181818,6.13636364 25.0909091,6 25.3636364,6 C25.3636364,6 25.3636364,5.86363636 25.3636364,5.86363636 C25.3636364,5.86363636 25.2272727,5.86363636 25.0909091,5.72727273 C24.9545455,5.86363636 24.6818182,5.72727273 24.4090909,5.72727273 C24.4090909,5.72727273 24.4090909,5.59090909 24.2727273,5.59090909 C24.1363636,5.59090909 24,5.59090909 24.1363636,5.72727273 C24.1363636,5.72727273 24.2727273,5.86363636 24.2727273,5.86363636 C24.1363636,6 23.8636364,5.86363636 23.7272727,6 C23.5909091,6 23.4545455,6.13636364 23.1818182,6.13636364 C23.1818182,6 23.4545455,6 23.4545455,5.86363636 C23.4545455,5.59090909 23.8636364,5.72727273 23.8636364,5.45454545 C23.8636364,5.31818182 23.7272727,5.31818182 23.7272727,5.18181818 C23.8636364,5.04545455 24,5.04545455 24,4.90909091 C24,4.77272727 24,4.63636364 23.8636364,4.63636364 C23.7272727,4.5 23.5909091,4.63636364 23.4545455,4.63636364 C23.0454545,4.77272727 23.1818182,5.31818182 22.7727273,5.31818182 C22.5,5.31818182 22.2272727,5.31818182 21.9545455,5.18181818 C21.8181818,5.31818182 21.9545455,5.72727273 21.6818182,5.59090909 C21.5454545,5.45454545 21.4090909,5.18181818 21.1363636,5.31818182 C21,5.31818182 20.7272727,5.59090909 20.5909091,5.45454545 C20.5909091,5.18181818 21,5.18181818 21.1363636,4.90909091 C21.1363636,4.90909091 21.2727273,4.77272727 21.2727273,4.77272727 C21.2727273,4.63636364 21.5454545,4.77272727 21.5454545,4.63636364 C21.4090909,4.36363636 21.2727273,4.5 21.1363636,4.36363636 C21,4.36363636 20.8636364,4.36363636 20.8636364,4.5 C20.8636364,4.63636364 20.8636364,4.77272727 20.5909091,4.90909091 C20.4545455,4.90909091 20.3181818,4.90909091 20.3181818,4.77272727 C20.1818182,4.36363636 19.6363636,4.63636364 19.5,4.36363636 C19.3636364,4.63636364 19.0909091,4.22727273 19.0909091,4.63636364 C19.0909091,4.77272727 19.3636364,4.77272727 19.3636364,4.90909091 C19.2272727,4.90909091 19.0909091,4.90909091 18.9545455,4.90909091 C18.8181818,4.77272727 18.6818182,4.5 18.4090909,4.5 C18.2727273,4.36363636 18.1363636,4.5 18.1363636,4.36363636 C17.8636364,4.22727273 17.7272727,4.09090909 17.4545455,4.09090909 C17.3181818,4.09090909 17.3181818,4.22727273 17.3181818,4.36363636 C17.3181818,4.5 17.4545455,4.5 17.4545455,4.5 C17.3181818,4.5 17.1818182,4.36363636 17.0454545,4.36363636 L16.6363636,4.36363636 C16.6363636,4.09090909 16.5,3.95454545 16.3636364,3.81818182 L16.2272727,3.81818182 C16.0909091,3.68181818 16.3636364,3.54545455 16.2272727,3.40909091 C16.0909091,3.27272727 16.0909091,3.27272727 15.9545455,3.27272727 C15.8181818,3.40909091 15.6818182,3.40909091 15.8181818,3.54545455 C15.8181818,3.54545455 15.8181818,3.68181818 15.8181818,3.68181818 C15.6818182,3.81818182 15.5454545,3.81818182 15.5454545,3.68181818 C15.4090909,3.54545455 15.2727273,3.27272727 15,3.40909091 C14.8636364,3.40909091 14.8636364,3.54545455 14.8636364,3.68181818 C14.8636364,3.81818182 15,3.81818182 14.8636364,3.95454545 C14.5909091,4.09090909 14.3181818,3.68181818 14.0454545,3.95454545 C14.0454545,4.09090909 14.0454545,4.09090909 13.9090909,4.09090909 C13.6363636,4.22727273 13.6363636,3.95454545 13.3636364,4.09090909 C13.2272727,4.22727273 13.0909091,4.22727273 13.0909091,4.22727273 C13.0909091,4.09090909 13.0909091,3.95454545 12.9545455,3.81818182 C12.6818182,3.81818182 12.4090909,3.81818182 12.2727273,3.95454545 C12,4.09090909 11.7272727,4.09090909 11.5909091,4.22727273 C11.3181818,4.22727273 10.7727273,3.81818182 10.6363636,4.36363636 C10.6363636,4.5 10.3636364,4.36363636 10.2272727,4.36363636 C10.0909091,4.22727273 9.81818182,4.36363636 9.68181818,4.22727273 C9.54545455,4.36363636 9.13636364,4.36363636 9.27272727,4.63636364 C9.27272727,4.77272727 9.27272727,4.77272727 9.13636364,4.77272727 C9,4.77272727 8.72727273,4.77272727 8.72727273,4.63636364 C8.59090909,4.63636364 8.45454545,4.77272727 8.31818182,4.63636364 C8.31818182,4.5 8.31818182,4.5 8.45454545,4.5 C8.59090909,4.5 8.72727273,4.5 8.86363636,4.36363636 C9,4.36363636 9.27272727,4.36363636 9.40909091,4.22727273 C9.40909091,4.09090909 9.27272727,4.09090909 9.13636364,3.95454545 C8.86363636,3.81818182 8.59090909,3.95454545 8.31818182,4.09090909 C8.31818182,4.09090909 8.31818182,4.22727273 8.31818182,4.22727273 C8.18181818,4.36363636 7.90909091,4.36363636 7.63636364,4.5 C7.63636364,4.5 7.63636364,4.63636364 7.63636364,4.63636364 C7.77272727,4.63636364 7.77272727,4.63636364 7.90909091,4.77272727 C7.63636364,4.90909091 7.5,4.63636364 7.22727273,4.77272727 C6.95454545,4.77272727 6.54545455,4.63636364 6.40909091,5.04545455 C6.13636364,5.04545455 5.86363636,5.59090909 5.45454545,5.31818182 C5.45454545,5.18181818 5.31818182,5.18181818 5.18181818,5.18181818 C4.90909091,5.18181818 5.04545455,5.72727273 4.77272727,5.45454545 C4.5,5.31818182 4.22727273,5.45454545 4.09090909,5.59090909 C3.95454545,5.72727273 3.81818182,5.72727273 3.54545455,5.86363636 C3,5.86363636 2.59090909,6.13636364 2.31818182,6.40909091 C2.31818182,6.54545455 2.45454545,6.81818182 2.18181818,6.81818182 C2.04545455,6.81818182 1.90909091,6.68181818 1.77272727,6.54545455 C1.63636364,6.54545455 1.63636364,6.40909091 1.63636364,6.40909091 C1.63636364,6.13636364 1.77272727,5.86363636 1.36363636,5.86363636 C1.36363636,5.86363636 1.36363636,5.86363636 1.22727273,5.86363636 C1.22727273,5.72727273 1.22727273,5.45454545 0.954545455,5.31818182 C0.818181818,5.18181818 0.954545455,4.90909091 0.681818182,4.90909091 C0.545454545,4.90909091 0.409090909,4.90909091 0.409090909,4.63636364 C0.409090909,4.36363636 -2.96707103e-14,4.22727273 0.272727273,3.95454545 C0.818181818,3.40909091 1.5,3.13636364 2.31818182,3.13636364 C2.45454545,3.13636364 2.45454545,3 2.45454545,2.86363636 C3.27272727,2.59090909 4.09090909,2.45454545 4.77272727,2.18181818 C4.90909091,2.18181818 5.04545455,2.31818182 5.18181818,2.18181818 C5.31818182,2.04545455 5.59090909,1.90909091 5.72727273,1.90909091 C6,2.18181818 6.13636364,1.63636364 6.40909091,1.63636364 C6.95454545,1.63636364 7.5,1.63636364 8.04545455,1.36363636 C8.31818182,1.22727273 8.45454545,1.63636364 8.59090909,1.5 C8.72727273,1.36363636 8.86363636,1.22727273 9,1.22727273 C9.13636364,1.22727273 9.27272727,1.5 9.40909091,1.5 C9.95454545,1.5 10.2272727,0.954545455 10.7727273,1.09090909 C11.0454545,1.22727273 11.1818182,0.954545455 11.4545455,1.09090909 C11.4545455,1.36363636 11.7272727,1.36363636 12,1.5 C12.4090909,1.5 12.6818182,1.22727273 13.2272727,1.22727273 C13.2272727,1.09090909 13.5,1.22727273 13.6363636,1.09090909 C13.7727273,1.09090909 13.9090909,1.09090909 14.0454545,1.09090909 C14.1818182,1.63636364 14.1818182,1.77272727 14.1818182,1.77272727 Z M13.6363636,2.04545455 C13.6363636,2.04545455 13.6363636,2.18181818 13.6363636,2.18181818 C13.7727273,2.18181818 13.7727273,2.31818182 13.9090909,2.18181818 C13.9090909,2.18181818 14.0454545,2.18181818 14.0454545,2.04545455 C13.9090909,2.04545455 13.7727273,1.90909091 13.6363636,2.04545455 Z M20.4545455,2.72727273 C20.3181818,2.86363636 20.3181818,3 20.4545455,3.13636364 C20.5909091,3.27272727 20.7272727,3.40909091 21,3.54545455 C21.1363636,3.54545455 21.1363636,3.27272727 21.2727273,3.13636364 C21.1363636,3 21.1363636,3.13636364 21,3.13636364 C20.5909091,3.13636364 20.7272727,2.72727273 20.4545455,2.72727273 Z M10.6363636,4.09090909 C10.6363636,4.09090909 10.6363636,4.09090909 10.6363636,4.09090909 C10.6363636,4.22727273 10.6363636,4.22727273 10.7727273,4.22727273 C10.9090909,4.22727273 10.9090909,4.22727273 10.9090909,4.09090909 C10.9090909,3.95454545 10.7727273,4.09090909 10.6363636,4.09090909 Z M21.8181818,4.22727273 C21.8181818,4.22727273 21.6818182,4.36363636 21.6818182,4.36363636 C21.6818182,4.5 21.8181818,4.5 21.8181818,4.5 C21.9545455,4.5 21.9545455,4.36363636 21.9545455,4.36363636 C21.9545455,4.22727273 21.8181818,4.22727273 21.8181818,4.22727273 Z M22.6363636,4.36363636 C22.6363636,4.5 22.5,4.5 22.6363636,4.63636364 C22.7727273,4.63636364 22.9090909,4.77272727 23.0454545,4.63636364 C22.9090909,4.5 22.7727273,4.36363636 22.6363636,4.36363636 Z"
                    id="Shape"></path>
                <path
                    d="M29.0454545,5.72727273 C29.0454545,5.86363636 29.0454545,5.86363636 28.9090909,5.86363636 C28.7727273,5.86363636 28.5,5.86363636 28.3636364,5.72727273 C28.3636364,5.72727273 28.3636364,5.59090909 28.3636364,5.59090909 C28.6363636,5.59090909 29.0454545,5.45454545 29.0454545,5.72727273 Z"
                    id="Path"></path>
                <path
                    d="M28.3636364,6.54545455 C28.5,6.81818182 28.2272727,6.68181818 28.0909091,6.81818182 L27.5454545,6.81818182 C27.5454545,6.68181818 27.1363636,6.81818182 27.2727273,6.54545455 C27.5454545,6.54545455 27.9545455,6.68181818 28.3636364,6.54545455 L28.3636364,6.54545455 Z"
                    id="Path"></path>
                <path
                    d="M29.4545455,6.81818182 C29.4545455,6.95454545 29.3181818,6.95454545 29.1818182,6.95454545 C29.0454545,6.95454545 28.9090909,6.95454545 28.7727273,6.81818182 C28.7727273,6.68181818 29.0454545,6.68181818 29.3181818,6.54545455 C29.3181818,6.68181818 29.4545455,6.68181818 29.4545455,6.81818182 Z"
                    id="Path"></path>
                <path
                    d="M28.2272727,7.09090909 C28.0909091,7.22727273 27.9545455,7.22727273 27.8181818,7.09090909 C27.8181818,6.95454545 27.9545455,6.95454545 27.9545455,6.95454545 C28.0909091,6.95454545 28.2272727,6.95454545 28.2272727,7.09090909 Z"
                    id="Path"></path>
                <path
                    d="M30.2727273,7.63636364 L30.2727273,7.63636364 C30.1363636,7.77272727 30,7.77272727 29.7272727,7.63636364 C29.7272727,7.63636364 29.7272727,7.5 29.7272727,7.5 C30,7.5 30.1363636,7.5 30.2727273,7.63636364 Z"
                    id="Path"></path>
            </g>
        </g>
    </g>
</svg>