<svg width="121" height="28" viewBox="0 0 121 28" xmlns="http://www.w3.org/2000/svg" xmlns:xlink="http://www.w3.org/1999/xlink"><title>LOGO / test</title><desc>Created with Sketch.</desc><g id="01_Homepage" stroke="none" stroke-width="1" fill="none" fill-rule="evenodd"><g id="01.01_Homepage-/-Navigation---Brands" transform="translate(-1014.000000, -239.000000)" fill="#fff"><g id="Group" transform="translate(-240.000000, 0.000000)"><g id="Group-9"><g id="Drop-down-/-Support-2" transform="translate(0.000000, 120.000000)"><g id="Drop-down-/-Support"><g id="Appliances-"><g id="Col1" transform="translate(370.000000, 40.000000)"><g id="LOGO-/-test" transform="translate(884.000000, 79.000000)"><path d="M4.1698662 14.6661557C10.5009342 14.6661557 16.6340485 19.8813892 16.6340485 26.2185389 15.841659 26.3804551 14.8421175 26.5002156 13.9953051 26.5002156 7.33271738 26.4914012 1.76989358 21.140503 1.51809191 14.6661557H4.1698662zM13.9953051 1.50438323C14.8894501 1.50438323 15.841659 1.62356886 16.6351983 1.78165269 16.6351983 8.12512575 10.499976 13.3451497 4.16775827 13.3451497L1.51981658 13.341509C1.95404989 6.83861078 7.33520857 1.50438323 13.9953051 1.50438323v0zM17.9465216 2.13901796C22.8955549 3.76047904 26.4717517 8.45221557 26.4853969 13.9951138 26.4989631 19.4475689 22.9944359 24.1281916 17.9465216 25.8569581V2.13901796zM0 28H28V0H0V28z" id="Fill-1"/><path d="M37.4541691 16.6379282V14.8541309H43.4472699V12.5795473H37.4531835V9.26838581H43.8292923V7H35V11.8757125 16.5348902C35 18.9448564 36.0449438 20.5936583 38.4973389 20.9324055 38.5466194 20.9444137 38.5949143 20.9531293 38.6394638 20.953904H38.6844076C38.935344 20.9814067 39.1923911 21 39.4606742 21H44V18.7339384H39.4811748C38.7013601 18.7339384 37.4541691 18.3560677 37.4541691 16.6379282" id="Fill-4"/><path id="Fill-6" d="M45 13.6156441V21h2V13.5672488 7H45z"/><path d="M51.3781469 14.4000797C51.475592 13.1339814 52.6842105 12.1171998 54.1460741 12.1171998 55.5104926 12.1171998 56.6216661 13.1548906 56.6216661 14.4000797H51.3781469zM54.1460741 10C51.2027083 10 49 12.1586198 49 15.5206104V15.6038487C49 18.8829993 51.1249018 21 54.204616 21 55.6861183 21 57.0699884 20.5640942 58.3371488 19.1321168L56.9338271 17.6792303C56.1927954 18.4678035 55.4717765 18.8829993 54.2824225 18.8829993 52.5476752 18.8829993 51.3975985 17.8036894 51.319792 16.1433045H58.9609097C59 15.7283079 59 15.2718912 59 15.2718912 59 12.3454081 57.0699884 10 54.1460741 10v0z" id="Fill-8"/><path d="M66.1804878 12.2454183C67.201673 12.2454183 67.9579923 12.6573056 68.6007458 13.378306L70 11.7922237C68.9033461 10.5150568 67.5986092 10 66.1804878 10 63.3065108 10 61 12.3276376 61 15.5 61 18.6723624 63.3065108 21 66.1804878 21 67.5986092 21 68.9033461 20.4849432 70 19.207974L68.6007458 17.6214963C67.9579923 18.3426944 67.201673 18.7545817 66.1804878 18.7545817 64.5167305 18.7545817 63.2499093 17.374443 63.2499093 15.5 63.2499093 13.625557 64.5167305 12.2454183 66.1804878 12.2454183" id="Fill-10"/><path d="M73.5945067 16.6400393 73.5913808 16.6398457V13.0656536H75.9514442V10.8759939H73.5949235V7H71v5.0216402V16.7821319L71.0072938 16.7817448C71.0812737 19.0558083 72.1943067 20.6056638 74.6973284 20.9324382 74.7494269 20.9444406 74.8002751 20.9533456 74.8475805 20.9541199H74.8950944C75.1605885 20.9814157 75.432126 21 75.7159588 21H75.9904139L76 18.7352286H75.7374234C74.9130163 18.7352286 73.5945067 18.3575409 73.5945067 16.6400393" id="Fill-12"/><path d="M80.3413802 12.6525098V11.1942585H78V15.9997187 21H80.3413802V15.8438994C80.3413802 14.2290788 81.3837209 13.2172845 83.0160516 13.2172845 83.3899141 13.2172845 83.7249115 13.2559112 84 13.3147888V11.0577525C83.9014156 11.0386267 83.5478387 11 83.2922776 11 81.8751264 11 80.8130688 11.6418406 80.3413802 12.6525098" id="Fill-14"/><path d="M89.5002891 18.7548144C87.7204437 18.7548144 86.3808372 17.3331348 86.3808372 15.4999007 86.3808372 13.6658725 87.7204437 12.2449871 89.5002891 12.2449871 91.2606669 12.2449871 92.619741 13.6658725 92.619741 15.4999007 92.619741 17.3331348 91.2606669 18.7548144 89.5002891 18.7548144m0-8.7548144C86.4400112 10 84 12.3887234 84 15.4999007 84 18.6094898 86.4400112 21 89.5002891 21 92.5395574 21 95 18.6094898 95 15.4999007 95 12.3887234 92.5395574 10 89.5002891 10" id="Fill-16"/><path id="Fill-18" d="M97 13.3741427V21h2V13.4709347 7H97z"/><path d="M107.643635 16.6666977C107.643635 18.2137198 106.728314 18.8721223 105.500188 18.8721223 104.272813 18.8721223 103.357679 18.2137198 103.357679 16.6868301V11H101V13.8237487 16.8801379C101 19.6654861 103.045625 21 105.481036 21 107.935974 21 110 19.6462858 110 16.8217914V13.8235623 11H107.643635v5.6666977z" id="Fill-20"/><path id="Fill-22" d="M118.757069 17.8019276 117.284595 15.7024515 119.107703 13.1694649 120.669242 11H118.120866L115.999625 13.995946 113.859821 11H111.330758L112.781107 13.0231767 114.716155 15.7219566 112.688292 18.6024018 111 21H113.50975L115.999625 17.4678548 118.490062 21H121z"/></g></g></g></g></g></g></g></g></g></svg>