<?xml version="1.0" encoding="UTF-8"?>
<svg width="185px" height="25px" viewBox="0 0 185 25" version="1.1" xmlns="http://www.w3.org/2000/svg"
    xmlns:xlink="http://www.w3.org/1999/xlink">
    <!-- Generator: Sketch 63.1 (92452) - https://sketch.com -->
    <title>Kelvinator</title>
    <desc>Created with Sketch.</desc>
    <g id="Kelvinator" stroke="none" stroke-width="1" fill="none" fill-rule="evenodd">
        <g id="kelv" fill="#FFF" fill-rule="nonzero">
            <path
                d="M152.1875,20 C152.109375,19.921875 152.03125,19.84375 152.34375,19.765625 C159.921875,18.28125 178.75,18.59375 183.984375,19.921875 C184.140625,19.921875 184.296875,20.15625 184.0625,20.234375 C178.59375,21.328125 178.203125,25.703125 177.265625,24.84375 C174.140625,22.109375 156.796875,19.609375 152.1875,20 Z M168.203125,8.359375 C168.4375,8.359375 168.59375,8.203125 168.59375,7.890625 C168.59375,7.734375 168.515625,7.65625 168.4375,7.578125 C167.34375,6.640625 163.984375,3.828125 163.984375,3.828125 C163.75,3.671875 163.515625,3.75 163.515625,3.75 C161.71875,4.296875 158.671875,6.875 158.28125,7.65625 C158.046875,8.046875 157.8125,8.359375 158.515625,8.359375 L168.203125,8.359375 L168.203125,8.359375 Z M172.03125,8.828125 C172.109375,8.75 172.109375,8.75 172.109375,8.671875 C172.109375,8.515625 172.03125,8.4375 171.875,8.4375 L169.53125,8.4375 C168.28125,9.765625 162.734375,12.34375 161.25,12.34375 C161.25,12.34375 157.96875,10.9375 156.953125,8.28125 C157.578125,5.9375 162.265625,2.8125 164.296875,2.5 L172.734375,8.515625 L180.234375,8.515625 C180.46875,8.515625 180.703125,8.28125 180.703125,8.046875 C180.703125,7.96875 180.703125,7.890625 180.703125,7.8125 C179.765625,5.078125 174.84375,1.875 166.484375,2.34375 L163.828125,0.234375 C173.4375,-0.859375 182.265625,3.203125 182.65625,8.28125 C182.109375,10.15625 181.09375,11.796875 178.046875,13.59375 C177.1875,14.0625 176.796875,15.46875 178.28125,15.78125 C181.875,17.1875 182.96875,17.421875 184.140625,18.515625 C184.375,18.90625 183.984375,18.828125 183.984375,18.75 C177.96875,16.015625 159.84375,17.8125 152.1875,19.0625 C151.953125,19.0625 152.03125,18.828125 152.34375,18.75 C160.15625,16.171875 165.46875,16.484375 165.859375,15.078125 C166.25,13.75 163.203125,14.21875 163.671875,13.359375 C165.234375,12.96875 170.546875,10.234375 172.03125,8.828125 Z M6.171875,6.953125 L13.125,6.953125 L10.3125,12.03125 L20.234375,7.03125 L23.359375,7.03125 L14.21875,12.1875 L17.8125,16.171875 C18.28125,16.796875 18.4375,16.953125 18.828125,16.953125 L20.546875,16.953125 L19.765625,18.359375 L12.109375,18.359375 L8.828125,14.765625 L6.796875,18.359375 L0,18.359375 L6.171875,6.953125 Z M27.34375,13.4375 L29.375,13.4375 C30.46875,11.015625 28.59375,10.625 27.34375,13.4375 Z M34.296875,15.15625 L26.5625,15.15625 C26.25,15.859375 26.015625,16.09375 26.015625,16.328125 C26.015625,16.796875 26.40625,16.953125 26.953125,16.953125 L32.5,16.953125 L31.875,18.359375 L25.703125,18.359375 C20.78125,18.515625 20.78125,15.46875 20.78125,14.84375 C20.78125,11.640625 24.453125,10 28.046875,10 C31.640625,10 34.609375,11.640625 34.609375,13.59375 C34.609375,14.140625 34.6875,14.6875 34.296875,15.15625 Z M39.6875,7.03125 L44.921875,7.03125 L40.234375,15.78125 C39.84375,16.5625 39.453125,17.109375 40.390625,17.109375 L42.890625,17.109375 L42.265625,18.515625 L37.03125,18.515625 C33.671875,18.515625 34.765625,16.40625 35.390625,15.3125 L39.6875,7.03125 Z M44.6875,10.078125 L50.234375,10.078125 L50.234375,15.703125 L55.9375,10.078125 L57.734375,10.078125 L49.84375,18.359375 L44.6875,18.359375 L44.6875,10.078125 L44.6875,10.078125 Z M59.609375,10.078125 L64.84375,10.078125 L61.71875,15.859375 C61.5625,16.09375 61.171875,16.953125 62.109375,16.953125 L63.28125,16.953125 L62.578125,18.359375 L58.125,18.359375 C56.875,18.359375 55.703125,17.265625 56.40625,15.78125 L59.609375,10.078125 Z M60.15625,6.484375 C60.15625,5.390625 61.71875,4.453125 63.671875,4.453125 C65.625,4.453125 67.1875,5.390625 67.1875,6.484375 C67.1875,7.578125 65.625,8.515625 63.671875,8.515625 C61.796875,8.515625 60.15625,7.65625 60.15625,6.484375 Z M69.296875,10.078125 L74.609375,10.078125 L74.453125,10.703125 C77.109375,8.828125 83.203125,10.234375 81.5625,13.984375 L80.390625,16.171875 C80.15625,16.640625 80.15625,17.03125 80.859375,17.03125 L82.109375,17.03125 L81.5625,18.4375 L74.84375,18.4375 C73.59375,18.4375 73.359375,17.421875 73.90625,16.5625 L75.46875,13.59375 C77.265625,11.09375 73.75,11.40625 73.28125,12.34375 L70,18.359375 L64.84375,18.359375 L69.296875,10.078125 Z M91.484375,15.625 L93.046875,12.578125 C93.515625,11.71875 92.734375,11.5625 92.265625,11.5625 C91.71875,11.5625 91.171875,11.953125 90.9375,12.421875 L89.21875,15.46875 C88.90625,16.25 89.609375,16.5625 90.3125,16.484375 C91.09375,16.484375 91.25,16.015625 91.484375,15.625 Z M93.984375,10.9375 L94.375,10.078125 L99.6875,10.078125 L96.171875,16.40625 C95.9375,17.03125 96.640625,17.03125 96.875,17.03125 L98.90625,17.03125 L98.28125,18.4375 L91.875,18.4375 C91.015625,18.4375 91.25,17.65625 91.25,17.421875 C89.53125,19.453125 80.9375,18.984375 83.515625,13.671875 C84.6875,11.171875 89.6875,8.75 93.984375,10.9375 Z M105.78125,6.953125 L111.09375,6.953125 L109.375,10.078125 L111.5625,10.078125 L110.3125,12.109375 L108.28125,12.03125 L106.484375,15.390625 C105.546875,17.1875 107.03125,17.03125 108.125,17.03125 L110.625,16.875 L109.765625,18.28125 L103.125,18.28125 C99.765625,18.28125 100.078125,17.109375 100.859375,15.859375 L102.96875,11.875 L100.703125,11.953125 L101.875,9.921875 L104.140625,10 L105.78125,6.953125 Z M119.21875,15.859375 L121.09375,12.1875 C121.5625,11.328125 121.09375,11.09375 120.3125,11.171875 C119.609375,11.25 118.984375,11.640625 118.75,12.109375 L116.71875,16.09375 C116.40625,16.875 117.265625,16.953125 117.96875,16.875 C118.75,16.71875 118.984375,16.25 119.21875,15.859375 Z M117.03125,18.4375 C113.203125,18.046875 111.09375,15.78125 112.34375,13.359375 C113.59375,10.9375 117.65625,9.21875 121.484375,9.609375 C125.3125,10 127.421875,12.265625 126.171875,14.6875 C124.921875,17.109375 120.859375,18.828125 117.03125,18.4375 Z M130.234375,10 L134.84375,10 L134.921875,10.703125 C136.953125,8.90625 140.46875,9.0625 140.703125,11.015625 C141.015625,14.609375 134.375,16.71875 135.3125,12.65625 C135.390625,11.5625 134.609375,11.796875 134.375,12.734375 L131.328125,18.28125 L125.859375,18.28125 L130.234375,10 Z"
                id="Shape"></path>
        </g>
    </g>
</svg>