<?xml version="1.0" encoding="UTF-8"?>
<svg width="136px" height="23px" viewBox="0 0 136 23" version="1.1" xmlns="http://www.w3.org/2000/svg"
    xmlns:xlink="http://www.w3.org/1999/xlink">
    <!-- Generator: Sketch 63.1 (92452) - https://sketch.com -->
    <title>Simpson</title>
    <desc>Created with Sketch.</desc>
    <g id="Simpson" stroke="none" stroke-width="1" fill="none" fill-rule="evenodd">
        <g id="simpson" transform="translate(1.000000, 1.000000)" fill-rule="nonzero">
            <path
                d="M17.78,2.84666667 C17.8733333,2.94 17.78,3.03333333 17.6866667,3.08 C16.8466667,2.75333333 16.1,2.19333333 15.12,2.14666667 C13.16,1.86666667 11.4333333,2.70666667 10.3133333,4.29333333 C9.89333333,4.9 9.66,5.55333333 9.52,6.3 C9.38,9.00666667 9.33333333,13.6266667 9.33333333,13.6266667 C6.62666667,13.6266667 3.73333333,13.6266667 0.98,13.5333333 C0.42,12.9733333 0.466666667,12.1333333 0.28,11.4333333 C-0.0933333333,7.74666667 1.54,4.57333333 4.38666667,2.33333333 C7.37333333,-0.14 12.3666667,-0.466666667 15.7733333,1.4 C16.4733333,1.77333333 17.22,2.19333333 17.78,2.84666667 Z"
                id="Path" stroke="#FFFFFF" stroke-width="0.884" fill="#FFF" stroke-linejoin="round"></path>
            <path
                d="M102.246667,4.94666667 C102.48,5.64666667 102.433333,6.48666667 102.433333,7.32666667 L97.3,7.32666667 C97.2533333,6.44 97.44,5.46 96.6933333,4.80666667 C96.0866667,4.48 95.1533333,4.43333333 94.64,4.85333333 C94.4066667,5.08666667 94.2666667,5.46 94.36,5.83333333 C94.4533333,6.20666667 94.5466667,6.67333333 95.0133333,6.86 C96.9733333,7.60666667 98.8866667,8.30666667 100.8,9.19333333 C102.806667,10.1733333 102.433333,12.6466667 102.433333,14.56 C102.293333,15.7266667 101.826667,16.8 100.706667,17.36 C97.44,18.8533333 92.68,18.9933333 89.6933333,16.7533333 C88.62,15.7266667 88.9466667,14.0466667 88.9466667,12.6 C88.9466667,12.6 93.9866667,12.6 93.9866667,12.6 C94.08,13.58 93.7533333,14.7466667 94.5,15.4466667 C95.06,15.7733333 95.8533333,15.9133333 96.4133333,15.54 C97.02,14.98 97.0666667,14.0466667 96.74,13.3466667 L96.0866667,12.74 L90.8133333,10.5933333 C89.32,9.8 88.8066667,8.35333333 88.8533333,6.76666667 C88.9933333,5.55333333 88.9466667,4.24666667 89.9733333,3.36 C92.12,1.77333333 95.1533333,1.77333333 97.9066667,2.05333333 C99.68,2.28666667 101.78,2.98666667 102.246667,4.94666667 Z"
                id="Path" fill="#FFF"></path>
            <path
                d="M134.026667,3.96666667 C134.68,4.85333333 134.586667,6.02 134.633333,7.09333333 L134.633333,18.0133333 L134.493333,18.1066667 L128.846667,18.1066667 L128.8,6.58 C128.426667,5.69333333 127.306667,5.69333333 126.373333,5.69333333 C125.906667,5.69333333 125.533333,5.64666667 125.44,6.06666667 L125.393333,18.1066667 C124.46,18.1533333 121.706667,18.06 119.886667,18.1066667 L119.793333,17.9666667 L119.793333,2.14666667 L119.98,2.00666667 C121.053333,2.00666667 129.546667,1.91333333 131.413333,2.14666667 C132.44,2.38 133.373333,3.08 134.026667,3.96666667 Z"
                id="Path" fill="#FFF"></path>
            <path
                d="M40.6933333,4.48 C41.02,5.32 41.2066667,6.34666667 41.02,7.28 C39.3866667,7.37333333 37.6133333,7.37333333 35.98,7.28 C35.7933333,6.34666667 36.0733333,5.22666667 35.1866667,4.71333333 C34.6733333,4.48 34.02,4.48 33.5066667,4.66666667 C33.0866667,4.9 32.9466667,5.36666667 33.04,5.78666667 C33.04,6.25333333 33.32,6.62666667 33.6933333,6.86 C35.7933333,7.84 38.08,8.4 40.0866667,9.70666667 C41.4866667,10.92 41.02,13.0666667 41.02,14.84 C40.88,16.0066667 40.04,17.1266667 38.8733333,17.5933333 C35.8866667,18.7133333 31.9666667,18.5733333 29.0733333,17.2666667 C27.2533333,16.4266667 27.6266667,14.28 27.6266667,12.5066667 L27.7666667,12.46 L32.62,12.4133333 L32.7133333,12.5066667 C32.9,13.6266667 32.3866667,15.1666667 33.6466667,15.7266667 C34.0666667,15.9133333 34.72,15.9133333 35.14,15.6333333 C35.56,15.3066667 35.6533333,14.7466667 35.6533333,14.1866667 C35.7,13.58 35.3733333,13.1133333 34.9066667,12.7866667 C33.0866667,11.9466667 31.1733333,11.2466667 29.3066667,10.4533333 C27.58,9.38 27.58,7.28 27.7666667,5.41333333 C27.9066667,4.29333333 28.7466667,3.36 29.7266667,2.89333333 C32.2,1.82 35.5133333,1.86666667 38.1266667,2.52 C39.1066667,2.70666667 40.2733333,3.36 40.6933333,4.48 Z"
                id="Path" fill="#FFF"></path>
            <path
                d="M71.4,3.17333333 C72.66,4.57333333 72.1933333,6.72 72.2866667,8.54 L72.2866667,18.0133333 C72.2866667,18.0133333 66.78,18.0133333 66.78,18.0133333 L66.7333333,6.48666667 C66.5933333,6.06666667 66.1733333,5.78666667 65.8,5.69333333 C65.24,5.55333333 64.3533333,5.41333333 63.9333333,5.92666667 L63.9333333,18.06 C62.1133333,18.1066667 60.2466667,18.0133333 58.38,18.06 L58.2866667,17.92 L58.2866667,6.48666667 C58.1466667,5.92666667 57.7733333,5.78666667 57.3533333,5.64666667 C56.9333333,5.55333333 56.0933333,5.32 55.58,5.92666667 L55.58,17.92 L55.58,18.06 L50.26,18.1066667 L50.12,17.9666667 L50.12,2.14666667 C50.12,2.14666667 58.7533333,2.05333333 59.5,2.19333333 C60.2466667,2.33333333 60.8533333,2.66 61.5066667,2.98666667 C62.02,2.8 62.3466667,2.47333333 62.9533333,2.28666667 C64.3066667,1.82 68.5066667,2.14666667 69.3466667,2.24 C70.14,2.38 70.84,2.61333333 71.4,3.17333333 Z"
                id="Path" fill="#FFF"></path>
            <path
                d="M47.9733333,2.28666667 L48.02,17.9666667 L47.7866667,18.1066667 L42.5133333,18.1066667 L42.3266667,18.0133333 L42.3266667,2.24 L42.56,2.14666667 C44.3333333,2.14666667 46.1066667,2.14666667 47.8333333,2.14666667 L47.9733333,2.28666667 Z"
                id="Path" fill="#FFF"></path>
            <path
                d="M85.7733333,2.19333333 C86.4733333,2.42666667 87.1733333,2.89333333 87.5933333,3.5 C88.1066667,4.66666667 87.9666667,6.06666667 88.06,7.46666667 C87.8266667,9.52 88.5733333,12.2733333 86.2866667,13.16 C84.28,13.6266667 80.0333333,13.4866667 79.8933333,13.5333333 C79.7533333,13.58 79.66,13.9066667 79.66,13.7666667 C79.66,13.6266667 79.66,18.06 79.66,18.06 C77.7933333,18.06 75.9266667,18.06 74.0133333,18.06 L74.0133333,2.1 C77.8866667,2.14666667 81.9,2.05333333 85.7733333,2.19333333 Z M79.7066667,5.69333333 C79.7066667,5.69333333 79.7066667,9.98666667 79.7066667,9.98666667 C80.4533333,10.1733333 81.4333333,10.1733333 82.32,10.08 C82.5533333,10.0333333 82.8333333,9.84666667 82.8333333,9.56666667 C82.7866667,8.4 83.0666667,7.04666667 82.74,6.02 C82.3666667,5.50666667 80.1733333,5.69333333 79.7066667,5.69333333 Z"
                id="Shape" fill="#FFF"></path>
            <path
                d="M21.1866667,7.60666667 C22.2133333,11.1066667 21.14,14.7466667 18.76,17.3133333 C15.96,20.2533333 11.9466667,21.3733333 7.93333333,20.44 C6.34666667,19.9266667 4.85333333,19.2266667 3.68666667,17.8733333 C3.73333333,17.78 3.78,17.64 3.92,17.64 C5.46,18.7133333 7.74666667,19.3666667 9.42666667,18.2466667 C10.7333333,17.36 11.9933333,16.7066667 11.9933333,14.1866667 L12.1333333,7.32666667 L12.2733333,7.18666667 C15.1666667,7.23333333 18.06,7.18666667 20.86,7.23333333 L21.1866667,7.60666667 Z"
                id="Path" stroke="#FFFFFF" stroke-width="0.884" fill="#FFF" stroke-linejoin="round"></path>
            <path
                d="M117.46,4.80666667 C118.113333,7.60666667 117.926667,10.9666667 117.786667,13.9066667 C117.786667,15.2133333 117.086667,16.2866667 116.106667,17.08 C113.82,18.5266667 110.646667,18.6666667 107.893333,18.1066667 C106.633333,17.8266667 105.28,17.0333333 104.533333,15.8666667 C103.506667,13.1133333 103.926667,9.8 103.926667,6.72 C103.833333,5.08666667 104.766667,3.40666667 106.353333,2.8 C109.293333,1.68 113.12,1.58666667 115.92,3.08 C116.62,3.45333333 117.226667,4.10666667 117.46,4.80666667 Z M109.293333,14.7466667 C109.293333,15.8666667 112.466667,16.0066667 112.466667,14.7466667 C112.466667,13.4866667 112.466667,7.28 112.466667,5.88 C112.466667,4.48 109.293333,4.57333333 109.293333,5.88 C109.293333,5.92666667 109.293333,13.6266667 109.293333,14.7466667 Z"
                id="Shape" fill="#FFF"></path>
        </g>
    </g>
</svg>