<svg xmlns="http://www.w3.org/2000/svg" id="Layer_1" x="0" y="0" version="1.1" viewBox="0 0 121 15.8" width="121" xml:space="preserve"><defs/><path id="Layer_2_1_" fill="#d5ba8c" d="M83.8 12.7c-.2.1-.7.4-1.2.6-.8.4-1.5.6-2.3.6h-.2c-1.4 0-2.4-.4-3.4-1.1-1.7-1.3-2.5-3-2.5-5 0-1.2.3-2.4 1-3.5 1.2-1.8 2.7-2.7 4.7-2.7.7 0 1.5.2 2.4.6.4-.2.7-.4 1-.6.2-.2.3-.4.4-.6-1.1-.6-2.3-1-3.2-1h-.4c-1.2 0-2.2.3-3.4.9l-.2.1c-2.5 1.5-3.8 3.9-3.8 6.7V8c0 1.2.3 2.4.9 3.6l.1.1c1.5 2.5 3.7 3.9 6.4 3.9 1.3 0 2.5-.3 3.5-1l.3-.2c.2-.4.2-.9.2-1.2-.2-.1-.2-.3-.3-.5zM105 1v11.7c0 .2-.1.4-.1.6-.1.3-.4.4-.6.5-.5.2-1 .3-2.1.3-2 0-3.1-.9-3.9-1.9S97 10.1 97 8.7V.2c-.1 0-.4 0-.8.2-.3.1-.6.4-.9.6v7.8c0 .4.1 1.3.3 2 .4 1.4 1.1 2.3 2.2 3.4 1 .8 1.5 1.1 2.2 1.2.4.2 1.2.3 2.1.3.9 0 1.4-.1 1.6-.1 1.5-.3 1.8-.5 2.2-.9.4-.4.7-.8.7-2.1V.2c-.1 0-.4 0-.8.2-.2.1-.4.3-.8.6zM87.2 14.1V.2c-.1 0-.4 0-.8.2-.3.1-.6.4-.9.6v13.6c0 .2.1.4.2.6.1.2.4.4.7.4h8.4c.3-.3.5-.6.6-.8.2-.3.2-.7.2-.8h-8.4v.1zm-22.9-1.4c-.2.1-.7.4-1.2.6-.8.4-1.5.6-2.3.6h-.2c-1.4 0-2.4-.4-3.4-1.1-1.7-1.3-2.5-3-2.5-5 0-1.2.3-2.4 1-3.5 1.2-1.8 2.7-2.7 4.7-2.7.7 0 1.5.2 2.4.6.4-.2.7-.4 1-.6.2-.2.3-.4.4-.6h-.1c-1.1-.6-2.3-1-3.2-1h-.4c-1.2 0-2.2.3-3.4.9L57 1c-2.5 1.5-3.8 3.9-3.8 6.7V8c0 1.2.3 2.4.9 3.6l.1.1c1.5 2.5 3.7 3.9 6.4 3.9 1.3 0 2.5-.3 3.5-1l.3-.2c.2-.4.2-.9.2-1.2-.2-.1-.3-.3-.3-.5zm-12.4.4l-.4.2c-.8.4-1.7.7-2.6.7-1.1 0-2-.3-2.8-.8-1.8-1.2-2.7-2.7-2.8-4.7h6.6c.4-.3.6-.7.8-1 .1-.3.2-.5.2-.7h-7.6c.1-.7.4-1.5.9-2.4 1.3-2 2.8-2.6 4.6-2.7h.1c.5 0 1.2.1 1.9.4.3-.2.6-.4.7-.7.2-.3.3-.5.3-.7-1.1-.4-2.1-.7-3.1-.7-1.7 0-3.3.6-4.8 1.9l-.2.2c-1.6 1.5-2.4 3.5-2.5 5.6V8c0 1.4.4 2.8 1.2 4l.2.4c1.4 2.1 3.5 3.3 5.9 3.3 1.1 0 2.1-.3 3.1-.7.1-.4.2-.8.2-1.1.3-.4.2-.7.1-.8zM41.8 1.7c.3-.3.4-.6.6-.8.2-.3.2-.7.2-.8H31.3c-.3.3-.4.6-.6.8-.2.3-.2.7-.2.8h5.2v14c.1 0 .4 0 .8-.2.2-.1.5-.3.8-.6V1.7h4.5c-.1 0 0 0 0 0zM29.7 3.8C28.4 1.4 26.2.2 23.5.2c-1.2 0-2.3.3-3.1.8-.2.1-.4.4-.6.6-.3.4-.5 1-.5 1.7v12.4c.1 0 .4 0 .8-.2.2-.1.5-.3.8-.6V3.6c0-.5.2-.8.3-1.1l.4-.4c.6-.3 1.2-.4 1.9-.4 1.9 0 3.4.6 4.5 2.5.6 1 .8 1.8.8 2.4v9.1c.1 0 .4 0 .8-.2.3-.1.6-.4.9-.7v-8c0-1.1-.1-1.6-.7-2.8l-.1-.2zM14.9 1v14.6c.1 0 .4 0 .8-.2.3-.1.6-.4.9-.6V.2s-.4 0-.8.2c-.3.1-.6.3-.9.6zM11.2.2l-5.1 13L1.2.2C1.1.2.9.4.6.5s-.4.7-.6 1.1c2.6 6.7 4 10.3 4.3 11.1l.8 2c0 .1.1.1.1.1l.4.6c.1.1.4.3.8.3h.5l.2-.5c.3-.7 2-5 5.4-13.7-.2-.3-.4-.6-.5-.8-.4-.3-.7-.5-.8-.5zm109.3 9c-.4-.8-1.1-1.3-1.6-1.6.8-.8 1.1-2.3.3-3.9-1.2-2.4-3.6-3.6-6.3-3.6-1.2 0-2.2.3-3.1.8-.2.1-.4.4-.7.6-.3.4-.5 1-.5 1.7v8.2c0 .5.1 1.2 1 2.3 1.4 1.7 4.1 2 5.7 2 1.6 0 2.4-.3 3.1-.7 1.6-.8 2.4-2.1 2.5-3.6 0-.7 0-1.3-.4-2.2zm-10.2-5.6c0-.5.2-.8.3-1.1l.4-.4c.6-.3 1.2-.4 1.9-.4 1.9 0 3.5.6 4.7 2.5.6 1 .4 1.6.3 2-.2.5-.7.8-.7.8h-6.8l-.1-3.4zm8.6 8.5c-.8 1.7-2.1 2-3.8 2-1.3 0-2.7-.3-3.5-.7-.8-.4-1.5-1.1-1.5-2V8.9h7.5c1.1.4 1.3 1.2 1.5 1.9.1.2 0 .9-.2 1.3z"/></svg>