<?xml version="1.0" encoding="UTF-8"?>
<svg width="141px" height="30px" viewBox="0 0 141 30" version="1.1" xmlns="http://www.w3.org/2000/svg"
    xmlns:xlink="http://www.w3.org/1999/xlink">
    <!-- Generator: Sketch 63.1 (92452) - https://sketch.com -->
    <title>Westinghouse</title>
    <desc>Created with Sketch.</desc>
    <g id="Westinghouse" stroke="none" stroke-width="1" fill="none" fill-rule="evenodd">
        <g id="WST" fill="#FFF" fill-rule="nonzero">
            <polygon id="Path"
                points="34.0285714 7.11428571 36.6 7.11428571 38.2285714 17.2285714 40.0285714 7.11428571 42.7714286 7.11428571 44.5714286 17.2285714 46.1142857 7.11428571 48.7714286 7.11428571 46.0285714 23.1428571 43.4571429 23.1428571 41.4 12.0857143 39.3428571 23.1428571 36.7714286 23.1428571">
            </polygon>
            <g id="Group">
                <path
                    d="M48.9428571,17.4 C48.9428571,21.8571429 50.1428571,23.4 53.1428571,23.4 C55.9714286,23.4 56.9142857,21.3428571 56.9142857,19.5428571 L56.9142857,18.7714286 L54.5142857,18.7714286 L54.5142857,19.0285714 C54.5142857,20.1428571 54.3428571,21.0857143 53.1428571,21.0857143 C52.0285714,21.0857143 51.5142857,20.5714286 51.5142857,18.7714286 L51.5142857,17.2285714 L56.9142857,17.2285714 L56.9142857,14.6571429 C56.9142857,12.2571429 55.8857143,10.3714286 53.0571429,10.3714286 C49.9714286,10.3714286 48.9428571,12.2571429 48.9428571,14.8285714 L48.9428571,17.4 L48.9428571,17.4 Z M51.3428571,14.7428571 C51.3428571,13.8857143 51.4285714,12.3428571 52.9714286,12.3428571 C54.2571429,12.3428571 54.4285714,13.7142857 54.4285714,14.6571429 L54.4285714,15.0857143 L51.3428571,15.0857143 L51.3428571,14.7428571 Z"
                    id="Shape"></path>
                <path
                    d="M70.0285714,20.1428571 C70.0285714,20.8285714 70.2,21.4285714 70.3714286,21.9428571 C70.5428571,22.4571429 70.8,22.8 71.1428571,23.2285714 L68.5714286,23.2285714 C68.2285714,22.8 68.0571429,22.4571429 67.8857143,21.8571429 C67.7142857,21.2571429 67.7142857,20.8285714 67.7142857,20.2285714 L67.7142857,12.7714286 L62.3142857,12.7714286 C61.0285714,12.7714286 60.7714286,13.5428571 60.7714286,13.8857143 C60.6857143,14.6571429 61.1142857,15.1714286 61.8,15.6857143 L64.2,16.9714286 C65.5714286,17.7428571 66.0857143,18.6 66.0857143,20.1428571 C66.0857143,22.4571429 64.2,23.4 62.1428571,23.4 C59.9142857,23.4 58.0285714,21.6857143 58.0285714,19.2857143 L58.0285714,18.8571429 L60.3428571,18.8571429 L60.3428571,18.9428571 C60.3428571,20.0571429 60.9428571,21.2571429 62.3142857,21.2571429 C63,21.2571429 63.3428571,20.8285714 63.5142857,20.3142857 C63.7714286,19.5428571 63,18.8571429 62.4,18.5142857 L60.2571429,17.3142857 C59.0571429,16.4571429 58.2857143,15.6857143 58.2857143,13.9714286 C58.2857143,12 59.9142857,10.6285714 62.4,10.6285714 L67.7142857,10.6285714 L67.7142857,8.4 L69.9428571,8.4 L69.9428571,10.6285714 L71.8285714,10.6285714 L71.8285714,12.7714286 L70.0285714,12.7714286 L70.0285714,20.1428571 Z"
                    id="Path"></path>
                <path
                    d="M74.4,6.85714286 C75.1714286,6.85714286 75.7714286,7.37142857 75.7714286,8.14285714 C75.7714286,8.91428571 75.1714286,9.42857143 74.4857143,9.42857143 C73.7142857,9.42857143 73.1142857,8.91428571 73.1142857,8.14285714 C73.0285714,7.45714286 73.6285714,6.85714286 74.4,6.85714286 M73.2,10.7142857 L75.5142857,10.7142857 L75.5142857,23.1428571 L73.2,23.1428571 L73.2,10.7142857 Z"
                    id="Shape"></path>
                <path
                    d="M81,12.6 C80.2285714,12.6 79.4571429,13.2857143 79.4571429,14.4 L79.4571429,23.1428571 L77.1428571,23.1428571 L77.1428571,10.6285714 L79.3714286,10.6285714 L79.3714286,11.6571429 C80.0571429,10.7142857 80.6571429,10.3714286 81.8571429,10.3714286 C83.5714286,10.3714286 84.6857143,11.9142857 84.6857143,13.5428571 L84.6857143,23.1428571 L82.3714286,23.1428571 L82.3714286,14.4 C82.3714286,13.2 81.6857143,12.6 81,12.6"
                    id="Path"></path>
                <path
                    d="M88.2857143,15.0857143 C88.2857143,13.5428571 88.6285714,12.4285714 89.8285714,12.4285714 C91.0285714,12.4285714 91.2857143,13.3714286 91.2857143,15.0857143 C91.2857143,16.5428571 91.0285714,17.9142857 89.8285714,17.9142857 C88.5428571,18 88.2857143,16.8 88.2857143,15.0857143 M86.1428571,21.5142857 C86.1428571,22.3714286 86.5714286,22.9714286 87.6857143,23.1428571 C86.0571429,23.4 86.1428571,24.3428571 86.1428571,25.0285714 C86.1428571,26.3142857 86.9142857,26.9142857 88.7142857,26.9142857 L91.8,26.9142857 C94.0285714,26.9142857 94.9714286,25.7142857 94.9714286,24 C94.9714286,22.3714286 94.0285714,21.1714286 91.7142857,21.1714286 L87.9428571,21.1714286 L87.9428571,19.3714286 C86.8285714,19.3714286 85.9714286,20.4 86.1428571,21.5142857 M93.0857143,12.3428571 C93.3428571,12.6 93.6857143,12.7714286 94.0285714,12.7714286 C94.7142857,12.7714286 95.3142857,12.2571429 95.3142857,11.5714286 C95.3142857,10.8857143 94.7142857,10.2857143 94.0285714,10.2857143 C93.3428571,10.2857143 92.8285714,10.8857143 92.8285714,11.5714286 C92.8285714,11.6571429 92.8285714,11.7428571 92.8285714,11.8285714 C92.3142857,11.0571429 91.4571429,10.4571429 89.8285714,10.4571429 C85.8857143,10.4571429 86.0571429,13.3714286 86.0571429,15 C86.0571429,16.5428571 85.8857143,19.8 89.7428571,19.8 C93.1714286,19.8 93.4285714,16.8 93.4285714,15.0857143 C93.5142857,14.4 93.5142857,13.2857143 93.0857143,12.3428571 M87.9428571,23.1428571 L91.8,23.1428571 C92.3142857,23.1428571 93.1714286,23.3142857 93.1714286,24.0857143 C93.1714286,25.0285714 92.3142857,25.0285714 91.8,25.0285714 L87.9428571,25.0285714 L87.9428571,23.1428571 Z"
                    id="Shape"></path>
                <path
                    d="M96,23.1428571 L96,7.11428571 L98.4,7.11428571 L98.4,11.6571429 C99,10.8857143 99.4285714,10.3714286 100.8,10.3714286 C102.771429,10.3714286 103.714286,11.9142857 103.714286,13.3714286 L103.714286,23.1428571 L101.4,23.1428571 L101.4,14.0571429 C101.4,13.2 101.057143,12.5142857 100.114286,12.5142857 C98.9142857,12.5142857 98.4,13.2 98.4,14.0571429 L98.4,23.1428571 L96,23.1428571 Z"
                    id="Path"></path>
                <path
                    d="M112.628571,19.9714286 L112.628571,17.0571429 L112.628571,14.4 C112.628571,11.4857143 110.742857,10.3714286 108.942857,10.3714286 C106.971429,10.3714286 105.171429,11.4 105.171429,14.4 L105.171429,17.0571429 L105.171429,19.9714286 C105.171429,22.1142857 106.628571,23.4 108.942857,23.4 C111.257143,23.4 112.628571,22.1142857 112.628571,19.9714286 M110.4,14.5714286 L110.4,16.9714286 L110.4,19.3714286 C110.4,20.5714286 109.8,21.2571429 108.942857,21.2571429 C108,21.2571429 107.4,20.5714286 107.4,19.3714286 L107.4,16.9714286 L107.4,14.5714286 C107.4,13.5428571 107.657143,12.6 108.942857,12.6 C110.228571,12.6 110.4,13.5428571 110.4,14.5714286"
                    id="Shape"></path>
                <path
                    d="M114.257143,10.6285714 L116.571429,10.6285714 L116.571429,19.2857143 C116.571429,20.9142857 117.171429,21.2571429 118.028571,21.2571429 C118.885714,21.2571429 119.485714,20.4 119.485714,19.0285714 L119.485714,10.5428571 L121.714286,10.5428571 L121.714286,23.1428571 L119.485714,23.1428571 L119.485714,22.1142857 C118.885714,22.9714286 117.942857,23.4 117,23.4 C115.028571,23.4 114.257143,21.9428571 114.257143,19.3714286 L114.257143,10.6285714 L114.257143,10.6285714 Z"
                    id="Path"></path>
                <path
                    d="M126.6,15.1714286 L128.742857,16.4571429 C130.285714,17.4 130.8,18.6 130.8,19.8857143 C130.714286,22.2857143 129.171429,23.4 126.942857,23.4 C124.114286,23.4 122.914286,21 122.914286,19.0285714 L122.914286,18.7714286 L125.142857,18.7714286 L125.142857,18.8571429 C125.142857,19.8857143 125.828571,21.1714286 127.2,21.1714286 C128.142857,21.1714286 129.257143,19.5428571 127.114286,18.3428571 L124.971429,17.0571429 C123.857143,16.4571429 123.171429,15.3428571 123.171429,13.8857143 C123.171429,11.5714286 124.971429,10.3714286 126.857143,10.3714286 C130.628571,10.3714286 130.542857,14.4 130.542857,14.4 L128.228571,14.4 C128.228571,14.4 128.228571,12.9428571 127.114286,12.6 C126,12.2571429 124.371429,13.8 126.6,15.1714286"
                    id="Path"></path>
                <path
                    d="M132,17.4 C132,21.8571429 133.2,23.4 136.2,23.4 C139.028571,23.4 139.971429,21.3428571 139.971429,19.5428571 L139.971429,18.7714286 L137.571429,18.7714286 L137.571429,19.0285714 C137.571429,20.1428571 137.4,21.0857143 136.2,21.0857143 C135.085714,21.0857143 134.571429,20.5714286 134.571429,18.7714286 L134.571429,17.2285714 L139.971429,17.2285714 L139.971429,14.6571429 C139.971429,12.2571429 138.942857,10.3714286 136.114286,10.3714286 C133.028571,10.3714286 132,12.2571429 132,14.8285714 L132,17.4 Z M134.485714,14.7428571 C134.485714,13.8857143 134.571429,12.3428571 136.114286,12.3428571 C137.4,12.3428571 137.571429,13.7142857 137.571429,14.6571429 L137.571429,15.0857143 L134.485714,15.0857143 L134.485714,14.7428571 Z"
                    id="Shape"></path>
                <path
                    d="M15.0857143,28.9714286 C22.8,28.9714286 28.9714286,22.7142857 28.9714286,15.0857143 C28.9714286,7.37142857 22.7142857,1.2 15.0857143,1.2 C7.37142857,1.2 1.2,7.45714286 1.2,15.0857143 C1.11428571,22.7142857 7.37142857,28.9714286 15.0857143,28.9714286 M0,15 C0,6.68571429 6.68571429,0 15,0 C23.3142857,0 30,6.68571429 30,15 C30,23.3142857 23.3142857,30 15,30 C6.68571429,30 0,23.3142857 0,15"
                    id="Shape"></path>
                <path
                    d="M19.5428571,23.4857143 C20.4857143,23.4857143 21.2571429,22.7142857 21.2571429,21.7714286 C21.2571429,20.8285714 20.4857143,20.0571429 19.5428571,20.0571429 L10.3714286,20.0571429 C9.42857143,20.0571429 8.57142857,20.8285714 8.57142857,21.7714286 C8.57142857,22.7142857 9.34285714,23.4857143 10.3714286,23.4857143 L19.5428571,23.4857143 Z"
                    id="Path"></path>
                <path
                    d="M22.2,7.45714286 C20.9142857,7.45714286 19.9714286,8.48571429 19.9714286,9.68571429 C19.9714286,10.3714286 20.3142857,11.0571429 20.8285714,11.4857143 L18.6,16.2 L16.3714286,11.5714286 C16.9714286,11.1428571 17.3142857,10.4571429 17.3142857,9.77142857 C17.3142857,8.48571429 16.2857143,7.54285714 15.0857143,7.54285714 C13.8,7.54285714 12.8571429,8.57142857 12.8571429,9.77142857 C12.8571429,10.5428571 13.2,11.2285714 13.8,11.5714286 L11.5714286,16.2 L9.25714286,11.4857143 C9.77142857,11.0571429 10.1142857,10.4571429 10.1142857,9.68571429 C10.1142857,8.4 9.08571429,7.45714286 7.88571429,7.45714286 C6.6,7.45714286 5.65714286,8.48571429 5.65714286,9.68571429 C5.65714286,10.9714286 6.68571429,11.9142857 7.88571429,11.9142857 L8.05714286,11.9142857 L11.4857143,18.9428571 L15.0857143,11.9142857 L15.0857143,11.9142857 L18.6,18.9428571 L22.1142857,12 L22.2857143,12 C23.5714286,12 24.5142857,10.9714286 24.5142857,9.77142857 C24.5142857,8.48571429 23.4857143,7.45714286 22.2,7.45714286"
                    id="Path"></path>
            </g>
        </g>
    </g>
</svg>