<svg width="55" height="33" viewBox="0 0 55 33" xmlns="http://www.w3.org/2000/svg" xmlns:xlink="http://www.w3.org/1999/xlink"><title>7A5FB9D4-9CEE-4AA8-B576-4D9F0F26D5BD</title><desc>Created with sketchtool.</desc><g id="Home-page" stroke="none" stroke-width="1" fill="none" fill-rule="evenodd"><g id="01.00-Landing-Page-Unauthenticated" transform="translate(-230.000000, -4477.000000)"><g id="Footer" transform="translate(0.000000, 3851.000000)"><g id="Footer-/-Social-/-App" transform="translate(20.000000, 462.000000)"><g id="test-App" transform="translate(0.000000, 132.000000)"><g id="ICO-/-AmericanExpress-dark" transform="translate(210.000000, 32.000000)"><g><rect id="Rectangle" fill="#0072ce" x="0" y="0" width="55" height="33" rx="2"/><path d="M46.4240491 19.0660707H44.4808767C44.2868689 19.0660707 44.1579788 19.0733141 44.0494044 19.1464183 43.9369283 19.2184494 43.8936062 19.3253559 43.8936062 19.4664671 43.8936062 19.6342715 43.988592 19.7484213 44.1267653 19.7977834 44.2392414 19.8368171 44.3600591 19.8482186 44.5376529 19.8482186L45.1155055 19.8636443C45.6986052 19.8779969 46.0878317 19.9779283 46.3251616 20.2216537 46.3683492 20.2555901 46.3943156 20.2936848 46.4240491 20.3317795V19.0660707zM46.424048 21.9986894C46.165057 22.3762826 45.6603946 22.5676949 44.9771965 22.5676949H42.9181845V21.6138528H44.968855C45.1722807 21.6138528 45.3146248 21.5871597 45.4003273 21.503727 45.4745938 21.4349151 45.526392 21.3349837 45.526392 21.2135905 45.526392 21.084015 45.4745938 20.9811325 45.3961565 20.9194299 45.3187956 20.851557 45.2061849 20.8207057 45.0205187 20.8207057 44.0194007 20.7867693 42.7704587 20.851557 42.7704587 19.4439323 42.7704587 18.7987374 43.1813462 18.1196061 44.3001873 18.1196061h2.1237262V17.2345757H44.4507385C43.855261 17.2345757 43.4227124 17.3767601 43.116363 17.5978164V17.2345757H40.19777C39.731048 17.2345757 39.183198 17.3499328 38.9240724 17.5978164V17.2345757H33.7122318V17.5978164C33.2974426 17.2994976 32.5975615 17.2345757 32.2745291 17.2345757H28.8367431V17.5978164C28.5085982 17.2809869 27.778849 17.2345757 27.3340572 17.2345757H23.4865946L22.6061598 18.184528 21.7815594 17.2345757H16.0342464V23.4413237H21.6733886L22.580597 22.4763482 23.4352 23.4413237 26.9111956 23.4444088V21.9843368H27.2529291C27.7141349 21.991446 28.2580833 21.9729352 28.7379902 21.7660973V23.4411895H31.6050542V21.8235076H31.7433621C31.9198796 21.8235076 31.9372354 21.8307509 31.9372354 22.0066034V23.4410554H40.6468671C41.1998297 23.4410554 41.7778169 23.2999442 42.0978894 23.0438783V23.4410554H44.8605497C45.4354424 23.4410554 45.9968811 23.3607078 46.424048 23.154943V21.9986894v0zM42.1710795 20.2216535C42.3786759 20.4358689 42.4899411 20.7062874 42.4899411 21.1640941 42.4899411 22.1210213 41.8902929 22.5676946 40.815043 22.5676946H38.7384061V21.6138525H40.8067014C41.0089162 21.6138525 41.1523367 21.5871594 41.2422099 21.5037268 41.3155347 21.4349149 41.3681401 21.3349835 41.3681401 21.2135903 41.3681401 21.0840148 41.3112294 20.9811324 41.2380392 20.9194297 41.1565075 20.8515568 41.0440314 20.8207055 40.8583651 20.8207055 39.8612834 20.7867691 38.6126104 20.8515568 38.6126104 19.4439322 38.6126104 18.7987373 39.0191927 18.119606 40.1369575 18.119606h2.1374493V19.0663389H40.3185875C40.1247142 19.0663389 39.9986495 19.0735823 39.8914205 19.1466865 39.7746391 19.2187176 39.731317 19.3256241 39.731317 19.4667353 39.731317 19.6345396 39.8304736 19.7486895 39.9646107 19.7980516 40.0770868 19.8370852 40.1979044 19.8484868 40.3795345 19.8484868L40.9534854 19.8639124C41.5322799 19.8779967 41.9295788 19.977794 42.1710795 20.2216535v0zM32.5503379 19.9469427C32.4077246 20.0313144 32.2313417 20.0385577 32.0238798 20.0385577H30.7286557V19.0395117H32.0415046C32.2313417 19.0395117 32.4213133 19.0435358 32.5503379 19.1198593 32.6885112 19.1918904 32.7711193 19.3296482 32.7711193 19.5199874 32.7711193 19.7103266 32.6885112 19.8636442 32.5503379 19.9469427v0zM33.1942505 20.5005226C33.4315804 20.5878453 33.6255882 20.7443821 33.7165378 20.8739577 33.8670889 21.0911241 33.8888845 21.2938038 33.8931898 21.6858838V22.5676948H32.8227834V22.0111639C32.8227834 21.7435623 32.8486152 21.3473241 32.6504367 21.1404862 32.4946384 20.9811324 32.257174 20.9430378 31.8682166 20.9430378H30.7287907V22.5676948H29.6574425V18.1194719H32.1190006C32.6587782 18.1194719 33.0519063 18.143214 33.4018469 18.329395 33.7383334 18.5320747 33.949966 18.8097365 33.949966 19.3171735 33.9498315 20.0271562 33.4749026 20.3894579 33.1942505 20.5005226v0zM34.5411388 18.1194719H38.099608V19.0393776H35.6029347V19.8480844h2.4357264V20.7556496H35.6029347V21.6406799L38.099608 21.644704V22.5676948H34.5411388V18.1194719v0zM27.3476463 20.1722915H25.9698142V19.0395117H27.3600241C27.7449452 19.0395117 28.0121432 19.1959145 28.0121432 19.5849093 28.0121432 19.9696118 27.757323 20.1722915 27.3476463 20.1722915v0zM24.9078838 22.1631402 23.2709261 20.3512291 24.9078838 18.5968624V22.1631402v0zM20.6804778 21.6406799H18.0590852V20.7556496H20.3998257V19.8480844H18.0590852V19.0393776H20.7321414L21.8983409 20.3356693 20.6804778 21.6406799v0zM29.1568156 19.5849093C29.1568156 20.8205715 28.2321169 21.0756984 27.3001529 21.0756984H25.9698137V22.5676948H23.8974821L22.5846332 21.0951482 21.2202552 22.5676948H16.9970202V18.1194719H21.2852384L22.597011 19.5775318 23.953182 18.1194719h3.4068416C28.2061505 18.1194719 29.1568156 18.3530029 29.1568156 19.5849093v0z" id="EXPRESS" fill="#fff"/><path d="M11.9101678 12.9933244 11.1804186 11.2204469 10.4548401 12.9933244H11.9101678zM27.9864448 12.2873658C27.8399299 12.3760298 27.6666413 12.3789808 27.4590449 12.3789808H26.1638208V11.3912022h1.312849C27.6624706 11.3912022 27.8563438 11.3995187 27.982274 11.4714156 28.1205819 11.5362034 28.2061499 11.6740954 28.2061499 11.8645687 28.2061499 12.0589319 28.1247527 12.2153347 27.9864448 12.2873658v0zM37.2264368 12.9933244 36.4886152 11.2204469 35.7548298 12.9933244H37.2264368v0zM20.0025263 14.912276H18.909517L18.9054808 11.4292969 17.3594727 14.912276H16.423338L14.8732937 11.4262118V14.912276H12.7047655L12.2950888 13.9203393H10.075166L9.66131858 14.912276H8.50332612L10.4125943 10.4651263H11.9966774l1.8133406 4.2105336V10.4651263H15.5501684L16.9454908 13.4819823 18.2272607 10.4651263H20.0023917V14.912276H20.0025263zm4.356296499999999.0H20.7971247V10.4651263H24.3588228V11.3912023H21.8633604V12.1927999H24.2989522V13.1043891H21.8633604V13.9925045H24.3588228V14.912276v0zM29.3806916 11.662828C29.3806916 12.3718716 28.9060317 12.7381974 28.6294159 12.8481891 28.8627096 12.9367189 29.0619645 13.0931217 29.1568158 13.2226972 29.3073669 13.4438877 29.3333333 13.6414702 29.3333333 14.0386473V14.912276H28.2579488L28.2539126 14.3514528C28.2539126 14.0838512 28.2796099 13.6990146 28.0856021 13.4850675 27.9298038 13.3286647 27.6923393 13.2947283 27.3084945 13.2947283H26.1639561V14.912276H25.0978549V10.4651263H27.5501297C28.0950199 10.4651263 28.4964896 10.4794789 28.8411831 10.6781345 29.1784768 10.8767902 29.3806916 11.1667925 29.3806916 11.662828v0zM31.0869387 14.912276H29.9990419V10.4651263H31.0869387V14.912276v0zM43.7079384 14.912276H42.1970455L40.1761085 11.5744322V14.912276H38.0047549L37.5898311 13.9203393H35.3750208L34.9724748 14.912276H33.7248782C33.2066272 14.912276 32.5504718 14.797992 32.1788702 14.4203988 31.8041741 14.0428056 31.6092245 13.5313444 31.6092245 12.7226376 31.6092245 12.0630902 31.7257368 11.4601482 32.1839827 10.9836967 32.5286762 10.6287724 33.0684538 10.4651263 33.803181 10.4651263H34.8353778V11.4180295H33.824842C33.4357501 11.4180295 33.216045 11.475708 33.0044124 11.6814729 32.8226478 11.8687269 32.6979285 12.2227122 32.6979285 12.6888353 32.6979285 13.1652869 32.7929143 13.5088096 32.9910928 13.7332193 33.1552326 13.909206 33.4535095 13.9625921 33.7341615 13.9625921H34.2129922L35.7156781 10.4652605H37.3132153L39.1183489 14.6716358V10.4652605H40.7417179L42.6158709 13.562464V10.4652605H43.7079384V14.912276v0zM8.49094837 15.7857707H10.3126306L10.7233836 14.7979921H11.6429699L12.0526466 15.7857707h3.584301V15.0305842L15.9568856 15.7889899H17.8175846L18.1375226 15.0193167V15.7857707H27.0451989L27.0410281 14.1643329H27.2133749C27.334058 14.1684911 27.3693076 14.1796244 27.3693076 14.3782801V15.7857707H31.9763877V15.4083115C32.3479894 15.606833 32.9259766 15.7857707 33.6865357 15.7857707H35.6247302L36.0395194 14.7979921H36.9591057L37.3647462 15.7857707H41.0997329V14.8474883L41.6653423 15.7857707H44.6583366V9.58331528H41.6962867v.73251752L41.2814975 9.58331528H38.2420866v.73251752L37.8612017 9.58331528H33.7556896C33.0684553 9.58331528 32.4643672 9.67895435 31.9763877 9.94548287V9.58331528H29.1432279V9.94548287C28.8327078 9.67077204 28.409577 9.58331528 27.9390879 9.58331528H17.5884617L16.8939622 11.1853033 16.1807615 9.58331528H12.9205692v.73251752L12.5624216 9.58331528H9.78200174L8.49081383 12.5322984V15.7857707H8.49094837z" id="AMERICAN" fill="#fff"/></g></g></g></g></g></g></g></svg>