<svg width="55" height="33" viewBox="0 0 55 33" xmlns="http://www.w3.org/2000/svg" xmlns:xlink="http://www.w3.org/1999/xlink"><title>F21A6933-455F-4CA0-9316-1E6CDE609D08</title><desc>Created with sketchtool.</desc><g id="Home-page" stroke="none" stroke-width="1" fill="none" fill-rule="evenodd"><g id="01.00-Landing-Page-Unauthenticated" transform="translate(-90.000000, -4477.000000)"><g id="Footer" transform="translate(0.000000, 3851.000000)"><g id="Footer-/-Social-/-App" transform="translate(20.000000, 462.000000)"><g id="test-App" transform="translate(0.000000, 132.000000)"><g id="ICO-/-MasterCard-dark" transform="translate(70.000000, 32.000000)"><g><rect id="Rectangle" fill="#006" x="0" y="0" width="55" height="33" rx="2"/><path d="M30.8707411 16.7669708C30.8707411 22.6950113 26.0655832 27.4999995 20.1377123 27.4999995 14.2096717 27.4999995 9.40417461 22.6950113 9.40417461 16.7669708 9.40417461 10.8391 14.2096717 6.03360295 20.1377123 6.03360295 26.0655832 6.03360295 30.8707411 10.8391 30.8707411 16.7669708" id="Fill-333" fill="#c00"/><path d="M34.5477571 6.03360295C31.7737958 6.03360295 29.2471401 7.08575423 27.3419711 8.81180477 26.95439 9.16359612 26.5925911 9.54354435 26.2586098 9.94808744H28.4271982C28.7233543 10.308699 28.9962725 10.6877992 29.2454439 11.084879H25.4401946C25.2125649 11.449731 25.0056288 11.8288312 24.821761 12.2216705H29.8635382C30.0358719 12.5895757 30.1875119 12.9685063 30.3181191 13.3579532H24.3671801C24.2433576 13.7280635 24.1388719 14.1073332 24.055419 14.4940662H30.629541C30.7869481 15.2268235 30.8707403 15.9870592 30.8707403 16.7669708 30.8707403 17.9585495 30.6765257 19.1055183 30.3181191 20.176667H24.3671801C24.4977873 20.5657747 24.6494273 20.945214 24.8214217 21.3136281H29.8635382C29.6793312 21.7054497 29.4734128 22.0848891 29.2444262 22.45025H25.4401946C25.6883482 22.8461425 25.9617753 23.2257515 26.2586098 23.5858542H28.4265198C28.093217 23.9907366 27.7310788 24.3706848 27.3423104 24.7224761 29.2473097 26.4485267 31.7737958 27.4999995 34.5477571 27.4999995 40.4754582 27.4999995 45.2807856 22.6950113 45.2807856 16.7669708 45.2807856 10.8396088 40.4754582 6.03360295 34.5477571 6.03360295" id="Fill-334" fill="#f90"/><path d="M17.6312413 17.9420962C17.5089454 17.9281874 17.4550063 17.9237773 17.3710446 17.9237773 16.7105453 17.9237773 16.376564 18.1503893 16.376564 18.5980158 16.376564 18.8736479 16.5395686 19.0488651 16.7939982 19.0488651 17.2687638 19.0488651 17.6108869 18.5969981 17.6312413 17.9420962v0zM18.4788311 19.9149437H17.5130163L17.5352365 19.4561223C17.2407766 19.8184301 16.8477676 19.9914423 16.3139743 19.9914423 15.6826496 19.9914423 15.2496104 19.4985273 15.2496104 18.782223 15.2496104 17.7039503 16.0025525 17.0751698 17.2952245 17.0751698 17.4276975 17.0751698 17.596978 17.0873825 17.7703294 17.1092634 17.8062888 16.9630512 17.8157875 16.9009704 17.8157875 16.8220972 17.8157875 16.5289942 17.6129223 16.4190806 17.0686125 16.4190806 16.4985206 16.4133136 16.0283347 16.5552853 15.8351378 16.6187231 15.8473504 16.5451081 15.9967854 15.6228855 15.9967854 15.6228855 16.5772242 15.4522481 16.9602255 15.388471 17.3912293 15.388471 18.3919858 15.388471 18.9220475 15.8376241 18.9208601 16.6867406 18.9228956 16.9145399 18.8850704 17.1945822 18.8265516 17.564014 18.7254582 18.2051766 18.5083449 19.580284 18.4788311 19.9149437v0z" id="Fill-336" fill="#006"/><path id="Fill-337" fill="#006" d="M14.761954 19.914944H13.5964967L14.2644593 15.7300857 12.7736713 19.914944H11.9796813L11.8814714 15.7534933 11.1799241 19.914944H10.0892692L11.0002968 14.4706592H12.6759703L12.7772333 17.5180475 13.7995315 14.4706592H15.6631437L14.761954 19.914944"/><path d="M35.9874915 17.9420962C35.8651957 17.9281874 35.8119351 17.9237773 35.7281429 17.9237773 35.0671348 17.9237773 34.7334927 18.1503893 34.7334927 18.5980158 34.7334927 18.8736479 34.8958188 19.0488651 35.1509269 19.0488651 35.6253533 19.0488651 35.967646 18.5969981 35.9874915 17.9420962v0zM36.8355902 19.9149437H35.8701146L35.8919956 19.4561223C35.5975357 19.8184301 35.2046964 19.9914423 34.6712423 19.9914423 34.0390695 19.9914423 33.6065392 19.4985273 33.6065392 18.782223 33.6065392 17.7039503 34.3598204 17.0751698 35.6521533 17.0751698 35.7844567 17.0751698 35.9533979 17.0873825 36.1269189 17.1092634 36.1630479 16.9630512 36.172377 16.9009704 36.172377 16.8220972 36.172377 16.5289942 35.9695118 16.4190806 35.425202 16.4190806 34.8551101 16.4133136 34.3850938 16.5552853 34.1912184 16.6187231 34.2041095 16.5451081 34.3538837 15.6228855 34.3538837 15.6228855 34.9339833 15.4522481 35.3173239 15.388471 35.7476492 15.388471 36.7490841 15.388471 37.2784674 15.8376241 37.2774496 16.6867406 37.2794851 16.9145399 37.2419991 17.1945822 37.1831411 17.564014 37.0823869 18.2051766 36.8647648 19.580284 36.8355902 19.9149437v0z" id="Fill-338" fill="#006"/><path d="M23.6573224 19.8476052C23.3382676 19.9480201 23.0897747 19.9914428 22.8200793 19.9914428 22.2245443 19.9914428 21.8993832 19.6491501 21.8993832 19.0186735 21.8910719 18.8229323 21.9850412 18.3081364 22.0589954 17.8386289 22.1265041 17.4249263 22.5644623 14.8171923 22.5644623 14.8171923H23.7224563L23.5872694 15.4873599H24.2869509L24.1290349 16.5515542H23.4269787C23.2924703 17.393377 23.1006303 18.4423056 23.0984253 18.5813938 23.0984253 18.809702 23.2202122 18.9094384 23.4975405 18.9094384 23.6303528 18.9094384 23.7331424 18.8958688 23.8116763 18.8677119L23.6573224 19.8476052" id="Fill-339" fill="#006"/><path d="M27.2084819 19.8118148C26.810554 19.9334321 26.4270437 19.992799 26.020126 19.9914421 24.723383 19.9897459 24.0474483 19.3129631 24.0474483 18.0162201 24.0474483 16.5028728 24.9072508 15.388471 26.0747435 15.388471 27.029533 15.388471 27.6396553 16.0123325 27.6396553 16.9903599 27.6396553 17.315521 27.5979288 17.6323706 27.4966658 18.0794883H25.1901766C25.1123211 18.7218383 25.5231401 18.9893286 26.1973786 18.9893286 26.6114204 18.9893286 26.9856015 18.9038403 27.4013395 18.7109826L27.2084819 19.8118148v0zM26.5574815 17.1871189C26.5640966 17.0946761 26.6801166 16.3966908 26.0180907 16.3966908 25.6496766 16.3966908 25.3855786 16.6779204 25.2785485 17.1871189H26.5574815v0z" id="Fill-340" fill="#006"/><path d="M19.1776646 16.8872312C19.1776646 17.4468067 19.4490562 17.8330309 20.0647759 18.1232503 20.5364884 18.3452826 20.6099338 18.4109254 20.6099338 18.6119248 20.6099338 18.8875569 20.4016407 19.0127363 19.9407838 19.0127363 19.5928937 19.0127363 19.2695985 18.9581187 18.8966046 18.8375191 18.8966046 18.8375191 18.7437772 19.8138504 18.7364836 19.8604958 19.00126 19.9178273 19.2373707 19.9712575 19.9490952 19.9914423 21.1784992 19.9914423 21.7463861 19.5232917 21.7463861 18.5115099 21.7463861 17.9032535 21.5089185 17.5462039 20.9250873 17.2775262 20.436752 17.0534585 20.3802686 17.0032511 20.3802686 16.7966542 20.3802686 16.5573207 20.574144 16.4350249 20.9505302 16.4350249 21.1793473 16.4350249 21.4916173 16.4594501 21.787943 16.5013462L21.9536615 15.4744682C21.6520775 15.4264659 21.1944434 15.388471 20.9281404 15.388471 19.6247822 15.388471 19.1734241 16.0691551 19.1776646 16.8872312" id="Fill-341" fill="#006"/><path d="M32.8756467 15.5053395C33.1992811 15.5053395 33.5015435 15.5894709 33.9169423 15.7992905L34.1077645 14.6177193C33.9364485 14.5505499 33.335825 14.1568624 32.8269658 14.1568624 32.0473935 14.1568624 31.3875727 14.544274 30.9243411 15.1822139 30.2478976 14.9583158 29.9695516 15.4108613 29.6289551 15.8620498L29.3261839 15.9326117C29.3490826 15.7841944 29.3699458 15.6367948 29.3633306 15.4873598H28.2926908C28.1468178 16.858057 27.8878085 18.2458859 27.6851129 19.617092L27.6320219 19.9149443H28.7978184C28.9923722 18.6505986 29.0987238 17.8413428 29.1635186 17.2931317L29.6024945 17.049897C29.6684765 16.8054749 29.8732076 16.723379 30.2850443 16.7333865 30.2312749 17.0220793 30.2021003 17.3262076 30.2021003 17.6408522 30.2021003 19.0895745 30.9847258 19.9914428 32.2385549 19.9914428 32.5616805 19.9914428 32.8391784 19.9490378 33.2688252 19.8320002L33.4730474 18.5914013C33.0866536 18.7812058 32.7703128 18.8705954 32.4834858 18.8705954 31.8060246 18.8705954 31.3960536 18.3703868 31.3960536 17.544169 31.3960536 16.3451269 32.0053278 15.5053395 32.8756467 15.5053395" id="Fill-342" fill="#006"/><path d="M42.7410706 14.4706592 42.4820612 16.0435431C42.1640242 15.6244127 41.8217315 15.3207933 41.3698645 15.3207933 40.7819625 15.3207933 40.2468122 15.766554 39.8963778 16.4229825 39.4083818 16.3217195 38.9041023 16.1495554 38.9041023 16.1495554L38.9037631 16.1537959C38.942606 15.7869084 38.9590591 15.5636888 38.9551578 15.4873599H37.8846876C37.7393235 16.8580571 37.4799749 18.2458859 37.2774489 19.617092L37.2238491 19.9149443H38.3899849C38.547392 18.8931549 38.6676524 18.0436992 38.7563635 17.3709873 39.1549699 17.0107149 39.3544427 16.6974272 39.7562719 16.7177816 39.5780015 17.148955 39.4740246 17.6452624 39.4740246 18.1544609 39.4740246 19.2608905 40.0334306 19.9914428 40.8808508 19.9914428 41.3079533 19.9914428 41.6356587 19.8440432 41.9552223 19.5027683L41.9002655 19.914605H43.0027938L43.890414 14.4706592H42.7410706v0zM41.2838673 18.8921372C40.8872964 18.8921372 40.6864666 18.5980166 40.6864666 18.019274 40.6864666 17.148955 41.0618351 16.532048 41.5902006 16.532048 41.9906728 16.532048 42.2077861 16.836685 42.2077861 17.3991442 42.2077861 18.2769264 41.8261417 18.8921372 41.2838673 18.8921372v0z" id="Fill-343" fill="#006"/><path id="Fill-344" fill="#fff" d="M15.0971221 19.5918182H13.9320041L14.599797 15.4069599 13.1093483 19.5918182H12.315019L12.2169788 15.4312155 11.5152619 19.5918182h-1.090655L11.3356346 14.1480421H13.0113081L13.0581231 17.5180472 14.1888084 14.1480421H15.9984815L15.0971221 19.5918182"/><path d="M17.9665804 17.61965C17.8444542 17.6054019 17.7905151 17.6015007 17.7065534 17.6015007 17.0460541 17.6015007 16.7119032 17.8277734 16.7119032 18.2750607 16.7119032 18.5503536 16.8750774 18.7265885 17.1296766 18.7265885 17.6042726 18.7265885 17.9463957 18.2747215 17.9665804 17.61965v0zM18.8140007 19.5918191H17.8486947L17.8707453 19.1333369C17.5762854 19.4954751 17.1832764 19.6686568 16.6494831 19.6686568 16.0179888 19.6686568 15.5851192 19.1750633 15.5851192 18.4589287 15.5851192 17.3804863 16.3382308 16.752554 17.630903 16.752554 17.7630367 16.752554 17.9323172 16.764597 18.1058383 16.7869868 18.1417976 16.6404353 18.1512963 16.5781849 18.1512963 16.4989724 18.1512963 16.2060391 17.9484311 16.0969736 17.4041213 16.0969736 16.8338597 16.0901888 16.3638434 16.2321605 16.1704769 16.2954287 16.1828592 16.222153 16.3321245 15.2999304 16.3321245 15.2999304 16.9127329 15.1296321 17.2957343 15.0653462 17.7267381 15.0653462 18.727325 15.0653462 19.2572171 15.5150082 19.256369 16.3637855 19.2582348 16.5912456 19.2207489 16.8726448 19.1620604 17.2410589 19.0607974 17.8817127 18.8436842 19.2576682 18.8140007 19.5918191v0z" id="Fill-345" fill="#fff"/><path d="M34.4429328 14.2945938 34.2521106 15.4759953C33.8360333 15.2668542 33.534619 15.1822139 33.2113238 15.1822139 32.3413441 15.1822139 31.7310523 16.023019 31.7310523 17.2222307 31.7310523 18.0484485 32.1411928 18.5476394 32.8186541 18.5476394 33.1056507 18.5476394 33.42267 18.4589283 33.8082157 18.2684453L33.6034847 19.5090441C33.1745163 19.6259121 32.8968488 19.6686563 32.5738928 19.6686563 31.3192155 19.6686563 30.5377773 18.7666185 30.5377773 17.3182354 30.5377773 15.3720184 31.6180855 14.0118377 33.1623037 14.0118377 33.6711629 14.0118377 34.2721257 14.2274244 34.4429328 14.2945938" id="Fill-346" fill="#fff"/><path d="M36.3226589 17.61965C36.2012112 17.6054019 36.1471025 17.6015007 36.0633103 17.6015007 35.4031503 17.6015007 35.0688298 17.8277734 35.0688298 18.2750607 35.0688298 18.5503536 35.2318344 18.7265885 35.486264 18.7265885 35.9606904 18.7265885 36.3031526 18.2747215 36.3226589 17.61965v0zM37.1707577 19.5918191H36.2054517L36.2273327 19.1333369C35.9328728 19.4954751 35.5398638 19.6686568 35.0065793 19.6686568 34.3744065 19.6686568 33.9420458 19.1750633 33.9420458 18.4589287 33.9420458 17.3804863 34.694479 16.752554 35.9874904 16.752554 36.1196242 16.752554 36.2885654 16.764597 36.4619168 16.7869868 36.4980458 16.6404353 36.5075445 16.5781849 36.5075445 16.4989724 36.5075445 16.2060391 36.3051882 16.0969736 35.7605391 16.0969736 35.1907864 16.0901888 34.7209397 16.2321605 34.5272339 16.2954287 34.5394465 16.222153 34.6888815 15.2999304 34.6888815 15.2999304 35.26949 15.1296321 35.6521521 15.0653462 36.0831559 15.0653462 37.0837428 15.0653462 37.6141438 15.5150082 37.6127868 16.3637855 37.6151615 16.5912456 37.5773363 16.8726448 37.5186479 17.2410589 37.4177241 17.8817127 37.2006108 19.2576682 37.1707577 19.5918191v0z" id="Fill-347" fill="#fff"/><path d="M23.9924912 19.5246486C23.6737757 19.6250635 23.4249435 19.6686558 23.1555873 19.6686558 22.5598828 19.6686558 22.2345521 19.3261935 22.2345521 18.6963954 22.2264103 18.4999758 22.3205493 17.986028 22.3946731 17.5160117 22.4616729 17.1019699 22.8998008 14.4945752 22.8998008 14.4945752H24.0581341L23.9226079 15.1645732H24.5172947L24.3588699 16.2284282H23.7623172C23.6278087 17.0710991 23.4359688 18.1193491 23.4335941 18.2584373 23.4335941 18.4874239 23.55589 18.5864818 23.832879 18.5864818 23.9656913 18.5864818 24.0683112 18.5734211 24.1471844 18.5445858L23.9924912 19.5246486" id="Fill-348" fill="#fff"/><path d="M27.5443282 19.4895379C27.1462306 19.6114945 26.7618723 19.6689956 26.3554634 19.6686564 25.0585508 19.6678083 24.3831249 18.9901774 24.3831249 17.6936041 24.3831249 16.1797479 25.2427578 15.0653462 26.4094024 15.0653462 27.3652097 15.0653462 27.9749927 15.6892076 27.9749927 16.6684224 27.9749927 16.992905 27.9325878 17.309585 27.8325121 17.7568723H25.5256836C25.4474888 18.3992222 25.8588167 18.6672214 26.5323768 18.6672214 26.9467578 18.6672214 27.3207694 18.5813938 27.7370162 18.3880273L27.5443282 19.4895379v0zM26.8931581 16.8639941C26.899434 16.7713817 27.0159628 16.0737357 26.3541065 16.0737357 25.9853531 16.0737357 25.7212552 16.3554741 25.6138859 16.8639941H26.8931581v0z" id="Fill-349" fill="#fff"/><path d="M19.512834 16.5641064C19.512834 17.1246997 19.7845649 17.5100758 20.4004542 17.8006344 20.8721668 18.0224971 20.9452729 18.0881399 20.9452729 18.289309 20.9452729 18.5652803 20.7371494 18.6897812 20.2759533 18.6897812 19.9284024 18.6897812 19.6049376 18.6358421 19.2317741 18.5155817 19.2317741 18.5155817 19.0791163 19.4912346 19.0719923 19.5372015 19.3365991 19.5952115 19.5728794 19.6481328 20.2842647 19.6686568 21.5140079 19.6686568 22.0818949 19.2006759 22.0818949 18.1888941 22.0818949 17.5802984 21.844088 17.2234184 21.2604264 16.9554192 20.7719215 16.730673 20.7157773 16.6809744 20.7157773 16.4740383 20.7157773 16.2347048 20.9094831 16.1115609 21.2862086 16.1115609 21.5145168 16.1115609 21.827126 16.1370039 22.1232821 16.1787303L22.2891702 15.1520219C21.9874166 15.1043588 21.5301218 15.0653462 21.2636492 15.0653462 19.9599517 15.0653462 19.5089328 15.7461999 19.512834 16.5641064" id="Fill-350" fill="#fff"/><path d="M43.3381302 19.5918186H42.2359411L42.2905587 19.1798122C41.9708255 19.5212567 41.6432898 19.6686563 41.2161873 19.6686563 40.3694455 19.6686563 39.8091915 18.9389521 39.8091915 17.8313351 39.8091915 16.3586964 40.6778142 15.117419 41.705201 15.117419 42.157068 15.117419 42.499191 15.3019653 42.8179065 15.7212653L43.076407 14.1480421H44.2255807L43.3381302 19.5918186v0zM41.6190343 18.5688417C42.1619871 18.5688417 42.542953 17.9539701 42.542953 17.077036 42.542953 16.5144072 42.3260093 16.2087524 41.9255371 16.2087524 41.397002 16.2087524 41.0218031 16.8258291 41.0218031 17.6964873 41.0218031 18.2759084 41.2228025 18.5688417 41.6190343 18.5688417v0z" id="Fill-351" fill="#fff"/><path d="M38.2203667 15.1645729C38.0746633 16.5349309 37.8154843 17.9227598 37.6127887 19.2941355L37.5596977 19.5918182H38.725155C39.1420804 16.8843476 39.2423257 16.3559821 39.8963794 16.4219642 40.0003563 15.8678164 40.1942317 15.3825343 40.3385781 15.1379426 39.8505821 15.0361708 39.5780031 15.3119725 39.2207839 15.8360975 39.2492801 15.6093159 39.3006748 15.3893191 39.2910065 15.1645729H38.2203667" id="Fill-352" fill="#fff"/><path d="M28.6285385 15.1645729C28.4821566 16.5349309 28.2226384 17.9227598 28.020282 19.2941355L27.9673607 19.5918182H29.1331572C29.5502522 16.8843476 29.6501582 16.3559821 30.3031942 16.4219642 30.4078496 15.8678164 30.6020642 15.3825343 30.7460714 15.1379426 30.2585842 15.0361708 29.9854964 15.3119725 29.6289557 15.8360975 29.6571126 15.6093159 29.7088466 15.3893191 29.6986694 15.1645729H28.6285385" id="Fill-353" fill="#fff"/></g></g></g></g></g></g></g></svg>