<svg width="55" height="33" viewBox="0 0 55 33" xmlns="http://www.w3.org/2000/svg" xmlns:xlink="http://www.w3.org/1999/xlink"><title>BC82F04F-BAEE-455F-B512-0A5A59B6BCC0</title><desc>Created with sketchtool.</desc><g id="Home-page" stroke="none" stroke-width="1" fill="none" fill-rule="evenodd"><g id="01.00-Landing-Page-Unauthenticated" transform="translate(-160.000000, -4477.000000)"><g id="Footer" transform="translate(0.000000, 3851.000000)"><g id="Footer-/-Social-/-App" transform="translate(20.000000, 462.000000)"><g id="test-App" transform="translate(0.000000, 132.000000)"><g id="ICO-/-Paypal-dark" transform="translate(140.000000, 32.000000)"><g transform="translate(27.500000, 16.500000) scale(1, -1) translate(-27.500000, -16.500000)"><rect id="Rectangle" fill="#00457c" x="0" y="0" width="55" height="33" rx="2"/><path d="M43.1344182 20.9036401 42.0251976 13.8461668C42.0035916 13.7095615 42.1091819 13.5858501 42.2475296 13.5858501H43.3633714C43.5480673 13.5858501 43.7055815 13.7203645 43.7341571 13.9029695L44.8280445 20.8335951C44.8496504 20.9702003 44.7440602 21.0939117 44.605364 21.0939117H43.3570987C43.2459327 21.0939117 43.1514939 21.0134122 43.1344182 20.9036401" id="Shape" fill="#fff"/><path d="M29.2242051 18.5937572H27.9233189C27.7989106 18.5937572 27.6825173 18.5320758 27.6128208 18.4289249L25.8181345 15.7860314 25.057745 18.325774C25.0100029 18.4846821 24.8636401 18.5937572 24.6977623 18.5937572H23.419179C23.2648011 18.5937572 23.1560745 18.4418188 23.2059075 18.2958045l1.4322643-4.2047934L23.2909373 12.1900375C23.1853471 12.0408869 23.2919828 11.8345851 23.4749362 11.8345851H24.7744285C24.8974429 11.8345851 25.0127907 11.8948726 25.0831843 11.9959326L29.4092495 18.2400472C29.5127489 18.3895463 29.4061131 18.5937572 29.2242051 18.5937572" id="Shape" fill="#fff"/><path d="M39.8052208 16.0746093C39.6801154 15.3351288 39.0932704 14.8385408 38.3443809 14.8385408 37.9690649 14.8385408 37.6683242 14.9594643 37.4752648 15.188069 37.2835992 15.4145829 37.2118118 15.7376264 37.2724478 16.0969122 37.388841 16.83012 37.9854436 17.3423897 38.7228332 17.3423897 39.0904825 17.3423897 39.3887838 17.2204207 39.5856766 16.9897251 39.7839633 16.7572871 39.8620235 16.4325011 39.8052208 16.0746093M41.6089674 18.5937913H40.3147024C40.2038849 18.5937913 40.109446 18.5132918 40.0920219 18.4035197L40.0352192 18.0417946 39.9446137 18.1728241C39.6644335 18.5795035 39.0396039 18.7157603 38.4158197 18.7157603 36.9859949 18.7157603 35.7645628 17.6319788 35.5268975 16.1122454 35.4031861 15.3539468 35.5788215 14.6294511 36.0088492 14.1238026 36.4036802 13.659275 36.9671768 13.465867 37.6387032 13.465867 38.7914842 13.465867 39.4306016 14.2060445 39.4306016 14.2060445L39.3727535 13.8464102C39.3511475 13.709805 39.4567378 13.5860936 39.5954339 13.5860936H40.7607604C40.9458047 13.5860936 41.1029704 13.7202595 41.1318945 13.9028645L41.8316479 18.3334747C41.8532539 18.4700799 41.7473151 18.5937913 41.6089674 18.5937913" id="Shape" fill="#fff"/><path d="M20.527225 16.0746093C20.4021197 15.3351288 19.8152746 14.8385408 19.0663851 14.8385408 18.6910691 14.8385408 18.3903285 14.9594643 18.197269 15.188069 18.0059519 15.4145829 17.933816 15.7376264 17.994452 16.0969122 18.1108453 16.83012 18.7074478 17.3423897 19.4448374 17.3423897 19.8124868 17.3423897 20.110788 17.2204207 20.3076808 16.9897251 20.5059675 16.7572871 20.5840277 16.4325011 20.527225 16.0746093M22.3309717 18.5937913H21.0367066C20.9258891 18.5937913 20.8314503 18.5132918 20.8140261 18.4035197L20.7572234 18.0417946 20.6669664 18.1728241C20.3864378 18.5795035 19.7616081 18.7157603 19.137824 18.7157603 17.7079991 18.7157603 16.486567 17.6319788 16.2489017 16.1122454 16.1251904 15.3539468 16.3008257 14.6294511 16.7308534 14.1238026 17.1256844 13.659275 17.6891811 13.465867 18.3607074 13.465867 19.5134884 13.465867 20.1526058 14.2060445 20.1526058 14.2060445L20.0947577 13.8464102C20.0731517 13.709805 20.178742 13.5860936 20.3174382 13.5860936H21.4827646C21.6678089 13.5860936 21.8249747 13.7202595 21.8538987 13.9028645L22.5536522 18.3334747C22.5752581 18.4700799 22.4693193 18.5937913 22.3309717 18.5937913" id="Shape" fill="#fff"/><path d="M14.564231 18.5627069C14.4164743 17.5925308 13.6755999 17.5925308 12.9587708 17.5925308H12.551046L12.8371504 19.4039444C12.854226 19.513368 12.9486648 19.5938675 13.0594824 19.5938675H13.2466176C13.7344935 19.5938675 14.1951878 19.5938675 14.432853 19.3161267 14.575034 19.1499004 14.6178974 18.9031746 14.564231 18.5627069M14.252339 21.0940858H11.5495064C11.364462 21.0940858 11.2072963 20.9595715 11.1783722 20.7769665L10.0855302 13.8463409C10.0639242 13.7097357 10.1695145 13.5860243 10.3078622 13.5860243H11.5986425C11.7833383 13.5860243 11.9405041 13.7205386 11.9694282 13.9027951L12.2645931 15.7727537C12.2931687 15.9553587 12.4506829 16.0898731 12.6353788 16.0898731H13.4905556C15.2709542 16.0898731 16.2986299 16.9513225 16.5669617 18.6592366 16.6878852 19.4056868 16.5718404 19.9925318 16.2223122 20.403393 15.8379357 20.8550266 15.1566518 21.0940858 14.252339 21.0940858" id="Shape" fill="#fff"/><path d="M33.8421943 18.5627069C33.6944376 17.5925308 32.9535632 17.5925308 32.2367341 17.5925308H31.8290092L32.1151136 19.4039444C32.1321893 19.513368 32.2266281 19.5938675 32.3374456 19.5938675H32.5245809C33.0124568 19.5938675 33.473151 19.5938675 33.7108163 19.3161267 33.8529973 19.1499004 33.8958606 18.9031746 33.8421943 18.5627069M33.5303022 21.0940858H30.8274697C30.6424253 21.0940858 30.4852595 20.9595715 30.4563355 20.7769665L29.3634934 13.8463409C29.3418875 13.7097357 29.4478263 13.5860243 29.5858255 13.5860243H30.972787C31.1020741 13.5860243 31.2121947 13.6801146 31.2324067 13.8076593L31.5425563 15.7727537C31.5711319 15.9553587 31.7286462 16.0898731 31.913342 16.0898731H32.7685188C34.5489174 16.0898731 35.5765932 16.9513225 35.8449249 18.6592366 35.9658485 19.4056868 35.8498037 19.9925318 35.5002755 20.403393 35.1158989 20.8550266 34.4346151 21.0940858 33.5303022 21.0940858" id="Shape" fill="#fff"/></g></g></g></g></g></g></g></svg>