<svg width="55" height="33" viewBox="0 0 55 33" xmlns="http://www.w3.org/2000/svg" xmlns:xlink="http://www.w3.org/1999/xlink"><title>C9AB1540-3706-420F-835F-15697D992FCA</title><desc>Created with sketchtool.</desc><g id="Home-page" stroke="none" stroke-width="1" fill="none" fill-rule="evenodd"><g id="01.00-Landing-Page-Unauthenticated" transform="translate(-20.000000, -4477.000000)"><g id="Footer" transform="translate(0.000000, 3851.000000)"><g id="Footer-/-Social-/-App" transform="translate(20.000000, 462.000000)"><g id="test-App" transform="translate(0.000000, 132.000000)"><g id="ICO-/-Visa-dark" transform="translate(0.000000, 32.000000)"><g><rect id="Rectangle" fill="#26337a" x="0" y="0" width="55" height="33" rx="2"/><path id="Fill-3" fill="#fff" d="M22.8194946 21.7507183 24.5106002 11.2599714H27.2137716L25.5228207 21.7507183H22.8194946"/><path d="M35.3280786 11.5174651C34.7935977 11.3069158 33.9529924 11.0773102 32.9058304 11.0773102 30.2332714 11.0773102 28.3519977 12.5009581 28.3363823 14.5395215 28.3193754 16.0474511 29.6788461 16.8884089 30.7037445 17.3896061 31.7570908 17.9033526 32.1109892 18.2321131 32.1068148 18.6914793 32.0995482 19.394085 31.2660548 19.7160286 30.488839 19.7160286 29.4065809 19.7160286 28.8315927 19.5575357 27.942595 19.1658737L27.5948809 18.9988596 27.2168636 21.3471273C27.8472016 21.6393245 29.0157311 21.8929442 30.2284786 21.9062681 33.0687876 21.9062681 34.9143468 20.4998174 34.9359919 18.3229019 34.9457322 17.1271554 34.2254122 16.2208173 32.6654145 15.4725074 31.7207578 14.9860286 31.1409767 14.663775 31.1476249 14.1714088 31.1482433 13.735437 31.637424 13.2686342 32.6961816 13.2686342 33.5803864 13.2543806 34.2204647 13.4585778 34.7192311 13.6717609L34.9619661 13.7916764 35.3280786 11.5174651" id="Fill-4" fill="#fff"/><path d="M38.9275155 18.0313243C39.1515429 17.4283384 40.0043623 15.0989722 40.0043623 15.0989722 39.9885922 15.1267046 40.2271528 14.4913384 40.363672 14.0981271L40.5461098 15.0029158C40.5461098 15.0029158 41.0648206 17.5068877 41.1716549 18.0313243H38.9275155v0zM42.2624165 11.2706622H40.1733491C39.5253858 11.2706622 39.0403795 11.4562679 38.7565187 12.140282L34.7421143 21.7544372H37.581341C37.581341 21.7544372 38.0445475 20.461085 38.1496811 20.177254 38.4593616 20.177254 41.218192 20.1826766 41.6119794 20.1826766 41.6929941 20.5487752 41.9411404 21.7544372 41.9411404 21.7544372H44.4501239L42.2624165 11.2706622v0z" id="Fill-5" fill="#fff"/><path d="M20.5517006 11.2688033 17.905889 18.4209724 17.622492 16.9671132C17.1294461 15.2920146 15.5946497 13.4763949 13.8778792 12.5666484L16.2984266 21.741578 19.1592983 21.7398738 23.4162829 11.2688033H20.5517006" id="Fill-6" fill="#fff"/><path d="M15.4497816 11.2616761H11.0906008L11.0547317 11.4790423C14.446683 12.3480423 16.690977 14.4456338 17.622492 16.9671126L16.675207 12.1467888C16.511786 11.481986 16.0368293 11.2849156 15.4497816 11.2616761" id="Fill-7" fill="#ec982d"/></g></g></g></g></g></g></g></svg>