<svg width="99" height="99" viewBox="0 0 99 99" xmlns="http://www.w3.org/2000/svg" xmlns:xlink="http://www.w3.org/1999/xlink"><title>F9BD6ADF-202B-4406-8A8E-66124BFCFA24</title><desc>Created with sketchtool.</desc><g id="01_Homepage" stroke="none" stroke-width="1" fill="none" fill-rule="evenodd"><g id="01.00-Landing-Page-Unauthenticated" transform="translate(-677.000000, -728.000000)" stroke="#011e41"><g id="Shop-by-Category" transform="translate(236.000000, 640.000000)"><g id="TAB-/-Warranty" transform="translate(0.000000, 88.000000)"><g id="Icons"><g id="Service-Centres" transform="translate(412.000000, 0.000000)"><g id="ICO-/-Book-A-Service" transform="translate(29.000000, 0.000000)"><g id="Group-5-Copy-2"><g><circle id="Oval" stroke-width="1.5" cx="49.5" cy="49.5" r="48.75"/><g id="001-customer-support" transform="translate(25.000000, 27.000000)" fill="#011e41"><path d="M2.10058854 4.32085265 5.2458657 9.8265399C5.35204834 10.0124202 5.5298483 10.147146 5.73740592 10.1992953L8.67189274 10.9327845 18.7369455 21 19.8491692 19.8882006 9.62645887 9.66362521C9.52607857 9.56256007 9.39975356 9.4913419 9.26149233 9.45668625L6.44197453 8.74898155 3.7638678 4.05886262 6.05984967 1.76238738 10.7509504 4.44363974 11.4587517 7.2637634C11.4930683 7.40238597 11.5649343 7.52906976 11.6653146 7.62947163L21.8881078 17.8543786 23 16.7419159 12.9349473 6.67470038 12.2012012 3.74115826C12.1490632 3.53289277 12.0143662 3.35513751 11.8285259 3.24860043L6.32377279.102896122C6.01682954-.0719573482 5.63056016-.0201397005 5.38023108.229248274L2.23495392 3.37553294C1.98205523 3.62425764 1.92701599 4.01127329 2.10058854 4.32085265z" id="Fill-1"/><g id="Group-7"><path d="M12.7466022 33.3207716C12.6014714 33.0846622 12.3412661 32.9406487 12.0599538 32.9406487H7.25451256C6.97353803 32.9406487 6.71299493 33.0846622 6.56820187 33.3207716L4.16531238 37.2421219C4.01292084 37.4904666 4.01292084 37.8011456 4.16531238 38.049821L6.56820187 41.971254C6.71299493 42.20695 6.97353803 42.3512942 7.25451256 42.3512942H12.0599538C12.3412661 42.3512942 12.6014714 42.20695 12.7466022 41.971254L15.149154 38.049821C15.3017988 37.8011456 15.3017988 37.4904666 15.149154 37.2421219L12.7466022 33.3207716zM11.6068317 40.7827706H7.70797236L5.78555946 37.6461368 7.70797236 34.5088416H11.6068317L13.5291602 37.6461368 11.6068317 40.7827706z" id="Fill-4"/><path d="M38.4903029 18.8238538C43.7799356 18.8412974 48.083118 14.6560602 48.1008477 9.47653455 48.1035494 8.68793251 48.0046004 7.90255466 47.8063648 7.13850601 47.6998174 6.71803951 47.2651849 6.46225434 46.8357869 6.56658559 46.6949619 6.60114221 46.5663789 6.67248759 46.4634619 6.77293329L41.4779369 11.6515352 37.522089 10.3607047 36.2029102 6.48837849 41.1886884 1.60531234C41.5013233 1.29884963 41.50107.802490826 41.1880975.496358805 41.0848427.39525174 40.9549089.323575677 40.8130707.289349736 35.6830904-.982714376 30.471722 2.05810334 29.1726369 7.08096675 28.9754144 7.84311395 28.8768031 8.62625968 28.8794204 9.41254692 28.8814466 10.0300193 28.9463713 10.6455902 29.0740256 11.2500831L11.5338864 28.4253874C10.9162152 28.3003883 10.2876529 28.2371447 9.65740205 28.2348299 4.34936421 28.2348299.0461818119 32.4481755.0461818119 37.6461368.0461818119 42.8434368 4.34936421 47.0567823 9.65740205 47.0567823 14.9651022 47.0567823 19.2682846 42.8434368 19.2682846 37.6461368 19.2662583 37.0283338 19.2009959 36.4128456 19.0733416 35.8083526l4.1992522-4.1119904L25.1092284 33.4947948C25.422201 33.8009268 25.9287656 33.8009268 26.2417382 33.4947948L26.6420931 33.1024366C26.9933957 32.7607559 27.5612547 32.7607559 27.9124729 33.1024366 28.2634377 33.4451093 28.2640287 34.0011568 27.9141614 34.3448217 27.9138237 34.3450697 27.9131483 34.345731 27.9124729 34.3463924L27.5121179 34.73842C27.1994831 35.044552 27.1994831 35.5412415 27.5121179 35.8473735L37.0662652 45.2027945C39.5789948 47.6861593 43.6720373 47.7039336 46.2079 45.2435515 48.7436783 42.782756 48.7620835 38.7747661 46.2491006 36.2920627 46.2355922 36.2785046 46.2217461 36.2649465 46.2079 36.2513884L36.6537527 26.8962981C36.3410335 26.590166 35.8338778 26.590166 35.5211586 26.8962981L35.1211413 27.2879949C34.7695854 27.6300063 34.2019797 27.6300063 33.8504239 27.2879949 33.4998811 26.9454049 33.498868 26.3892747 33.8488197 26.0460232 33.8494952 26.0453618 33.8501706 26.0450311 33.8504239 26.0443698L34.2512009 25.6520115C34.5638358 25.3458795 34.5638358 24.8495207 34.2512009 24.5433887L32.4145663 22.7449561 36.6138185 18.6330483C37.231152 18.7579647 37.8601365 18.8219523 38.4903029 18.8238538zM41.6369137 45.4885925C41.0551242 45.48768 40.4783159 45.3846715 39.9335056 45.1844415L46.188735 39.0589902C47.1326338 41.5178016 45.8625918 44.2601757 43.3515507 45.1844415 42.803701 45.3859116 42.2229246 45.4892508 41.6369137 45.4885925zM32.5635808 25.1056366C31.6767549 26.1415913 31.815638 27.6855615 32.8735983 28.5539414 33.8033133 29.3166673 35.1584583 29.3160059 36.0874978 28.5516266L45.0753903 37.3603419C45.1729884 37.4562407 45.2643389 37.5573478 45.3527344 37.6596949L38.5048244 44.3651684C38.3996278 44.2791902 38.2964575 44.1897398 38.1987749 44.093841L29.2036218 35.2854563C30.0904476 34.2495016 29.9516489 32.7052007 28.8936042 31.8371515 27.9636359 31.0737642 26.6081533 31.0747563 25.6794514 31.8391356L24.3981805 30.5845151 31.2820566 23.8539096 32.5635808 25.1056366zM35.7979117 17.2179627 17.6288725 35.0052004C17.429286 35.2002221 17.3495021 35.4831235 17.4171284 35.7504827 18.5159516 39.9761462 15.9086633 44.2737338 11.5929012 45.3491228 7.27789896 46.4250905 2.88902271 43.8720337 1.7901151 39.6463702.691545195 35.4207893 3.29925566 31.1232017 7.61459561 30.0471514 8.91992832 29.7220049 10.2876529 29.7220049 11.5929012 30.0471514 11.8663617 30.1127097 12.154597 30.0342546 12.354099 29.840473L30.5188325 12.0525739C30.7177435 11.8578829 30.7978652 11.5746508 30.7293101 11.3075397 29.6383387 7.13172696 32.2107585 2.87993926 36.4756108 1.81132935 37.2813019 1.60952858 38.1150229 1.53198285 38.9451135 1.58274306L34.7204487 5.72143634C34.5057497 5.93100822 34.4308625 6.24168717 34.5265188 6.52359649L36.1283607 11.2290846C36.2081447 11.4632098 36.3961646 11.6469883 36.6352631 11.724782L41.4410421 13.2933056C41.7282642 13.3873029 42.0455426 13.3139734 42.2602416 13.1044015L46.4849064 8.96727902C46.4944467 9.11707951 46.4995332 9.26497856 46.4995332 9.41254692 46.5218012 13.7217912 42.9728936 17.2330916 38.5717754 17.2550822 37.891459 17.2583064 37.2133378 17.1766271 36.554466 17.0112844 36.2813433 16.9444032 35.9924325 17.0225277 35.7936059 17.2176321H35.7979117V17.2179627z" id="Fill-6"/></g></g></g></g></g></g></g></g></g></g></g></svg>