<svg width="99" height="99" viewBox="0 0 99 99" xmlns="http://www.w3.org/2000/svg" xmlns:xlink="http://www.w3.org/1999/xlink"><title>C322821D-9DF1-4258-BB5E-DA7A11E3BFC7</title><desc>Created with sketchtool.</desc><g id="01_Homepage" stroke="none" stroke-width="1" fill="none" fill-rule="evenodd"><g id="01.00-Landing-Page-Unauthenticated" transform="translate(-877.000000, -728.000000)" stroke="#011e41"><g id="Shop-by-Category" transform="translate(236.000000, 640.000000)"><g id="TAB-/-Warranty" transform="translate(0.000000, 88.000000)"><g id="Icons"><g id="Phone" transform="translate(612.000000, 0.000000)"><g id="ICO-/-Call-Us" transform="translate(29.000000, 0.000000)"><g id="Group-5-Copy-3"><g><circle id="Oval" stroke-width="1.5" cx="49.5" cy="49.5" r="48.75"/><g id="phone-call" transform="translate(23.000000, 23.000000)" fill="#011e41" fill-rule="nonzero"><path d="M43.0114568 53.5157273C40.7848568 53.5157273 38.0956568 52.9577273 35.1382568 51.8417273 28.6546568 49.3973273 21.6004568 44.5661273 15.2752568 38.2409273 8.94825684 31.9139273 4.11705684 24.8579273 1.67085684 18.3743273-.552143157 12.4793273-.557543157 7.64092731 1.65825684 5.42692731 1.97685684 5.10832731 2.30085684 4.76632731 2.63565684 4.41352731 4.65705684 2.28772731 6.94125684-.104472694 9.96885684.00352730627 12.0550568.0899273063 14.0764568 1.38592731 16.1464568 3.96172731 22.2628568 11.5685273 19.5052568 14.2793273 16.3138568 17.4221273L15.7504568 17.9801273C15.2284568 18.5021273 14.2420568 20.9195273 23.4184568 30.0959273 26.4136568 33.0911273 28.9678568 35.2835273 31.0090568 36.6101273 32.2942568 37.4453273 34.5928568 38.7089273 35.5360568 37.7657273L36.1030568 37.1933273C39.2422568 34.0091273 41.9530568 31.2605273 49.5544568 37.3715273 52.1302568 39.4415273 53.4244568 41.4611273 53.5108568 43.5509273 53.6350568 46.5767273 51.2248568 48.8663273 49.0972568 50.8859273 48.7462568 51.2207273 48.4042568 51.5447273 48.0856568 51.8615273 46.9858568 52.9631273 45.2272568 53.5157273 43.0114568 53.5157273zM9.75285684 1.79992731C7.60185684 1.79992731 5.65965684 3.84472731 3.94065684 5.65372731 3.59505684 6.01732731 3.26025684 6.37012731 2.93085684 6.69952731 1.28025684 8.34832731 1.44765684 12.6809273 3.35565684 17.7407273 5.71365684 23.9903273 10.3990568 30.8195273 16.5496568 36.9701273 22.6984568 43.1171273 29.5240568 47.8025273 35.7754568 50.1587273 40.8352568 52.0703273 45.1678568 52.2323273 46.8148568 50.5853273 47.1442568 50.2559273 47.4970568 49.9211273 47.8606568 49.5773273 49.7092568 47.8205273 51.8062568 45.8297273 51.7144568 43.6211273 51.6514568 42.1037273 50.5462568 40.4711273 48.4294568 38.7701273 42.0952568 33.6761273 40.3240568 35.4743273 37.3864568 38.4533273L36.8104568 39.0347273C35.4064568 40.4405273 33.1258568 40.1291273 30.0298568 38.1167273 27.8824568 36.7199273 25.2292568 34.4483273 22.1476568 31.3649273 14.5318568 23.7509273 12.0964568 19.0907273 14.4796568 16.7021273L15.0538568 16.1351273C18.0400568 13.1975273 19.8418568 11.4245273 14.7460568 5.08672731 13.0414568 2.97172731 11.4106568 1.86652731 9.89325684 1.80172731 9.84645684 1.79992731 9.79965684 1.79992731 9.75285684 1.79992731z" id="Shape"/></g></g></g></g></g></g></g></g></g></g></svg>