<svg width="99" height="99" viewBox="0 0 99 99" xmlns="http://www.w3.org/2000/svg" xmlns:xlink="http://www.w3.org/1999/xlink"><title>EB9BD0AC-777D-4932-9F8B-FAE7DCAAC15C</title><desc>Created with sketchtool.</desc><g id="01_Homepage" stroke="none" stroke-width="1" fill="none" fill-rule="evenodd"><g id="01.00-Landing-Page-Unauthenticated" transform="translate(-265.000000, -728.000000)" stroke="#011e41"><g id="Shop-by-Category" transform="translate(236.000000, 640.000000)"><g id="TAB-/-Warranty" transform="translate(0.000000, 88.000000)"><g id="Icons"><g id="Product-Manual"><g id="ICO-/-Staff-Rates" transform="translate(29.000000, 0.000000)"><g id="ICO-/-Product-Manual"><circle id="Oval" stroke-width="1.5" cx="49.5" cy="49.5" r="48.75"/><g id="identity" transform="translate(25.000000, 29.000000)" fill="#011e41" stroke-width=".5"><g id="Group-3"><path d="M49.0196289 6.10829556H28.430957V3.69171234C28.430957 1.65597133 26.7722656.0 24.7333984.0 22.6944336.0 21.0353516 1.65597133 21.0353516 3.69171234V6.10829556H.980371094C.4390625 6.10829556.0 6.54676136.0 7.08721408V38.5516812C0 39.0924265.4390625 39.5308923.980371094 39.5308923H29.18125C29.7225586 39.5308923 30.1616211 39.0924265 30.1616211 38.5516812 30.1616211 38.0112285 29.7225586 37.5728602 29.18125 37.5728602H1.96113281V8.0660351H21.0353516V8.56456203C21.0353516 10.600303 22.6944336 12.2562744 24.7333984 12.2562744 26.7722656 12.2562744 28.430957 10.600303 28.430957 8.56456203V8.0660351H48.0388672V37.5728602H37.8585938C37.3172852 37.5728602 36.8782227 38.0112285 36.8782227 38.5516812 36.8782227 39.0924265 37.3172852 39.5308923 37.8585938 39.5308923H49.0196289C49.5609375 39.5308923 50 39.0924265 50 38.5516812V7.08721408C50 6.54676136 49.5609375 6.10829556 49.0196289 6.10829556zM26.4702148 8.56456203C26.4702148 9.52056762 25.6908203 10.2982423 24.7333984 10.2982423 23.7754883 10.2982423 22.9964844 9.52056762 22.9964844 8.56456203V3.69210235C22.9964844 2.73580426 23.7754883 1.95803204 24.7333984 1.95803204 25.6908203 1.95803204 26.4702148 2.73580426 26.4702148 3.69210235V8.56456203z" id="Fill-1"/></g><path d="M6.66849018 16.9811321H16.9164155C17.4730416 16.9811321 17.9245283 16.5587131 17.9245283 16.0376419 17.9245283 15.5168526 17.4730416 15.0943396 16.9164155 15.0943396H6.66849018C6.11186409 15.0943396 5.66037736 15.5168526 5.66037736 16.0376419 5.66037736 16.5587131 6.11146241 16.9811321 6.66849018 16.9811321z" id="Fill-4"/><path d="M6.61275639 21.6981132H19.8023379C20.3281908 21.6981132 20.754717 21.27561 20.754717 20.754717 20.754717 20.2338239 20.3281908 19.8113208 19.8023379 19.8113208H6.61275639C6.08690352 19.8113208 5.66037736 20.2338239 5.66037736 20.754717 5.66037736 21.27561 6.08652405 21.6981132 6.61275639 21.6981132z" id="Fill-5"/><path d="M34.3522301 38.1823962C34.1605017 37.7201688 33.6201929 37.4975517 33.1463156 37.6843847 32.6719769 37.8715773 32.4431576 38.3976408 32.634886 38.8598682L32.6687476 38.9406074C32.8147121 39.2922455 33.1614472 39.5050625 33.527558 39.5050625 33.6432594 39.5050625 33.7611751 39.4839336 33.8746621 39.4389786 34.3490008 39.251786 34.5778201 38.7257225 34.3860916 38.2634951L34.3522301 38.1823962z" id="Fill-8"/><path d="M43.3553413 33.9622642C43.8988089 33.9622642 44.3396226 33.5164831 44.3396226 32.9664949V28.9628935C44.3396226 26.0294244 42.5043042 23.4089737 39.7702004 22.4341252 40.4875031 21.6513314 40.9271402 20.604797 40.9271402 19.4560384V16.6492837C40.9271402 16.400614 40.9057663 16.1573977 40.8662538 15.919932 40.8597828 15.8548892 40.8497821 15.7871694 40.8348792 15.7166733 40.7364413 15.254235 40.5626061 14.8215419 40.3281787 14.4288064 39.5733245 13.1348913 38.1811729 12.2641509 36.591361 12.2641509H36.0750521C34.4622975 12.2641509 33.0536742 13.1599764 32.3068597 14.4842316 32.2922509 14.5090193 32.2781323 14.5338069 32.2643078 14.5589911 32.2631313 14.560875 32.2620528 14.562858 32.2612684 14.5647419 31.9287953 15.1717417 31.739567 15.8638128 31.739567 16.5985186 31.739567 16.6012948 31.7399591 16.6035753 31.7399591 16.6058557 31.7399591 16.6206292 31.7388806 16.6345103 31.7388806 16.6492837V19.4560384C31.7388806 20.6013267 32.1758705 21.645184 32.8893495 22.4266889 30.145245 23.3965799 28.3018868 26.0228805 28.3018868 28.9624969V32.9664949C28.3018868 33.5160865 28.7427005 33.9618675 29.2861681 33.9618675H43.3553413V33.9622642zM33.7078354 19.4560384V17.9022496C34.0486425 17.9843463 34.3665068 18.0264853 34.669076 18.0264853 35.1137135 18.0264853 35.5258978 17.9374481 35.9299443 17.7588779 37.2672884 17.1678412 37.9804732 17.2604479 38.841413 17.456072 38.8797488 17.4645989 38.9187711 17.4715395 38.9585776 17.4769928V19.4560384C38.9585776 20.7764266 37.896546 21.8500291 36.591361 21.8500291H36.0750521C34.769867 21.8500291 33.7078354 20.7764266 33.7078354 19.4560384zM36.4814517 14.2552929C37.3619026 14.2552929 38.1554849 14.6987935 38.5959064 15.3784707 38.5970829 15.3804537 38.5982595 15.3824367 38.599338 15.383924 37.5442677 15.2251839 36.5473385 15.3134279 35.1421467 15.9343089 34.8938949 16.0438703 34.564167 16.1116893 33.8368636 15.8715465 33.8798077 15.7457245 33.93187 15.6244633 33.9939329 15.509052 34.4094508 14.7646295 35.2359765 14.2552929 36.1861379 14.2552929H36.4814517zM30.2704494 28.9628935C30.2704494 26.8675443 31.5848508 24.9960771 33.5407655 24.305989L34.6698603 23.9074037C34.7966335 23.8628851 34.9099744 23.7931822 35.0053729 23.7056323 35.3477487 23.7938763 35.7059098 23.8411711 36.0750521 23.8411711H36.591361C36.9532479 23.8411711 37.3048399 23.7950661 37.6411369 23.7102923 37.7353588 23.7954627 37.847131 23.8632817 37.9716491 23.9074037L39.100744 24.305989C41.0566587 24.9960771 42.37106 26.8675443 42.37106 28.9624969V31.9711222H40.3010201v-3.427239C40.3010201 27.9942915 39.8602064 27.5485105 39.3167388 27.5485105 38.7732712 27.5485105 38.3324575 27.9942915 38.3324575 28.5438832v3.427239H34.3106207V28.5985152C34.3106207 28.0489235 33.869807 27.6030433 33.3259472 27.6030433 32.7824796 27.6030433 32.3416659 28.0489235 32.3416659 28.5985152V31.9711222H30.2704494V28.9628935z" id="Fill-9"/><path d="M5.66037736 28.3783552V32.9423995C5.66037736 33.5055143 6.03268289 33.9622642 6.49168859 33.9622642H23.6969907C24.1559964 33.9622642 24.5283019 33.5055143 24.5283019 32.9423995V28.3783552C24.5283019 27.8152404 24.1559964 27.3584906 23.6969907 27.3584906H6.49168859C6.03268289 27.3584906 5.66037736 27.8149356 5.66037736 28.3783552zM7.54716981 32.0754717H22.6415094V29.245283H7.54716981V32.0754717z" id="Fill-10"/></g></g></g></g></g></g></g></g></g></svg>