<svg width="18" height="18" viewBox="0 0 18 18" xmlns="http://www.w3.org/2000/svg" xmlns:xlink="http://www.w3.org/1999/xlink"><title>AC0669EC-839F-4DAB-A077-0892FA99FA80</title><desc>Created with sketchtool.</desc><g id="01_Homepage" stroke="none" stroke-width="1" fill="none" fill-rule="evenodd" stroke-linecap="round"><g id="01.01_Navigation---My-Account" transform="translate(-1114.000000, -68.000000)" stroke="#011e41" stroke-width="1.5"><g id="account-menu" transform="translate(1095.000000, 40.000000)"><g id="ico/account" transform="translate(20.000000, 29.000000)"><path d="M15.3333714 12.952381C15.3333714 10.4278095 11.9223238 8.38095238 7.71432381 8.38095238 3.50632381 8.38095238.0952761905 10.4278095.0952761905 12.952381" id="Stroke-13"/><path d="M7.71432381 8.38426667C10.0286095 8.38426667 11.9048 6.50807619 11.9048 4.19379048 11.9048 1.87950476 10.0286095.00331428571 7.71432381.00331428571 5.4000381.00331428571 3.52384762 1.87950476 3.52384762 4.19379048 3.52384762 6.50807619 5.4000381 8.38426667 7.71432381 8.38426667v0z" id="Stroke-15"/><path d="M15.2380952 12.952381v2.5009523C15.2380952 15.6765714 15.1622857 16 14.9413333 16H.487238095C.270857143 16 0 15.6739048.0 15.4533333V12.952381" id="Stroke-17"/></g></g></g></g></svg>