<svg id="Layer_1" xmlns="http://www.w3.org/2000/svg" xmlns:xlink="http://www.w3.org/1999/xlink" viewBox="0 0 50 50" style="enable-background:new 0 0 50 50"><style>.st0{fill:#011e41}</style><title>ICO / Email Us</title><desc>Created with Sketch.</desc><g id="_x30_7_x5F_My-Account"><g id="_x30_7.08_x5F_Order-History-Order-Details" transform="translate(-578.000000, -1408.000000)"><g id="Help" transform="translate(130.000000, 1319.000000)"><g id="ICO-_x2F_-Email-Us" transform="translate(448.000000, 89.000000)"><g id="e-mail-envelope" transform="translate(11.000000, 16.000000)"><g id="Shape"><path class="st0" d="M.4.0v18h27.5V0H.4zM14.1 11.1 2.9 1.3h22.6L14.1 11.1zM9.6 9l-7.9 6.9V2.1L9.6 9zM10.7 9.9l3.5 3 3.5-3 7.8 6.8H2.8L10.7 9.9zM18.6 9l7.9-6.9v13.7L18.6 9z"/></g></g><g id="Group-5-Copy-3"><g id="Oval"><path class="st0" d="M25 50C11.2 50 0 38.8.0 25S11.2.0 25 0c4.4.0 8.8 1.2 12.6 3.4C45.3 7.9 50 16.2 50 25 50 38.8 38.8 50 25 50zM25 2C12.3 2 2 12.3 2 25c0 12.7 10.3 23 23 23 12.7.0 23-10.3 23-23 0-8.1-4.4-15.7-11.4-19.9C33.1 3.1 29.1 2 25 2z"/></g></g></g></g></g></g></svg>