<svg xmlns="http://www.w3.org/2000/svg" xmlns:xlink="http://www.w3.org/1999/xlink" viewBox="0 0 24 24"><defs/><defs><path id="a" d="M11 0c6.075 0 11 4.925 11 11s-4.925 11-11 11S0 17.075 0 11 4.925 0 11 0zm0 2a9 9 0 100 18 9 9 0 000-18zm-.707 11.293a1 1 0 111.414 1.414 1 1 0 01-1.414-1.414zM11 6a1 1 0 011 1v4a1 1 0 01-2 0V7a1 1 0 011-1z"/></defs><g fill="none" fill-rule="evenodd"><path d="M-152-287h1440v2173H-152z"/><path d="M-17-10h1170v45H-17z"/><use fill="#000" fill-rule="nonzero" transform="translate(1 1)" xlink:href="#a"/></g></svg>