<svg id="Layer_1" xmlns="http://www.w3.org/2000/svg" xmlns:xlink="http://www.w3.org/1999/xlink" viewBox="0 0 50 50" style="enable-background:new 0 0 50 50"><style>.st0{fill:#011e41}</style><title>ICO / Product Manual</title><desc>Created with Sketch.</desc><g><path class="st0" d="M25 0C11.2.0.0 11.2.0 25s11.2 25 25 25 25-11.2 25-25S38.8.0 25 0zm0 48C12.3 48 2 37.7 2 25 2 12.3 12.3 2 25 2c12.7.0 23 10.3 23 23C48 37.7 37.7 48 25 48z"/><path class="st0" d="M31.6 12c0 0 0 0 0 0H18c-1 0-3 .9-3 4.1v17.7c0 .1.0.3.0.4.0.1.0.1.0.2h0c.2 1.6 1.4 3.5 4 3.5h15v-2h-.9c-.2-.1-.4-.7-.6-1.2.0-1.1.3-1.5.5-1.5l1 .2v-19c0-.7-.3-1.3-.7-1.7C32.9 12.3 32.2 12 31.6 12zm0 2v0c.1.0.2.0.3.1.1.1.1.2.1.4V31h-2.3V14H31.6zM18 14h9.7v17h-9.4c-.4.0-.9.1-1.3.3V16.1C17 14.1 17.9 14 18 14zm1 22c-1.5.0-1.9-1.2-2-1.8.1-1 .9-1.2 1.3-1.2h12.5c-.2.5-.3 1.1-.3 2v.2c0 .1.1.4.3.8H19z"/><path class="st0" d="M20 27.2h6.9v2H20z"/><path class="st0" d="M22 23.6h4.4v2H22z"/></g></svg>