<?xml version="1.0" encoding="UTF-8"?>
<svg width="19px" height="17px" viewBox="0 0 19 17" version="1.1" xmlns="http://www.w3.org/2000/svg" xmlns:xlink="http://www.w3.org/1999/xlink">
    <title>ICO / reorder</title>
    <g id="Order-History" stroke="none" stroke-width="1" fill="none" fill-rule="evenodd">
        <g id="7.0_Order-History" transform="translate(-797.000000, -811.000000)" fill="#011E41" fill-rule="nonzero">
            <g id="content" transform="translate(130.000000, 488.000000)">
                <g id="product" transform="translate(345.000000, 0.000000)">
                    <g id="links" transform="translate(30.000000, 323.000000)">
                        <g id="ICO-/-reorder" transform="translate(292.000000, 0.000000)">
                            <path d="M4.97993921,14.0454545 C5.31712428,14.0454545 5.60891467,14.1691512 5.85531915,14.4165483 C6.10172362,14.6639454 6.22492401,14.9569112 6.22492401,15.2954545 C6.22492401,15.6339979 6.10172362,15.9269637 5.85531915,16.1743608 C5.64411531,16.3864154 5.39956672,16.5075881 5.12166786,16.5378813 L4.97993921,16.5454545 C4.64275414,16.5454545 4.35096374,16.4217579 4.10455927,16.1743608 C3.8581548,15.9269637 3.73495441,15.6339979 3.73495441,15.2954545 C3.73495441,14.9569112 3.8581548,14.6639454 4.10455927,14.4165483 C4.31576311,14.2044937 4.5603117,14.083321 4.83821056,14.0530278 L4.97993921,14.0454545 Z M13.6948328,14.0454545 C14.0320179,14.0454545 14.3238083,14.1691512 14.5702128,14.4165483 C14.8166172,14.6639454 14.9398176,14.9569112 14.9398176,15.2954545 C14.9398176,15.6339979 14.8166172,15.9269637 14.5702128,16.1743608 C14.3590089,16.3864154 14.1144603,16.5075881 13.8365615,16.5378813 L13.6948328,16.5454545 C13.3576478,16.5454545 13.0658574,16.4217579 12.8194529,16.1743608 C12.5730484,15.9269637 12.449848,15.6339979 12.449848,15.2954545 C12.449848,14.9569112 12.5730484,14.6639454 12.8194529,14.4165483 C13.0306567,14.2044937 13.2752053,14.083321 13.5531042,14.0530278 L13.6948328,14.0454545 Z M4.97993921,15.0454545 C4.91132271,15.0454545 4.87364901,15.0614253 4.81308598,15.1222323 C4.75175498,15.1838104 4.73495441,15.2237615 4.73495441,15.2954545 C4.73495441,15.3671476 4.75175498,15.4070987 4.81308598,15.4686768 C4.87364901,15.5294838 4.91132271,15.5454545 4.97993921,15.5454545 C5.04855571,15.5454545 5.08622941,15.5294838 5.14679244,15.4686768 C5.20812344,15.4070987 5.22492401,15.3671476 5.22492401,15.2954545 C5.22492401,15.2237615 5.20812344,15.1838104 5.14679244,15.1222323 C5.08622941,15.0614253 5.04855571,15.0454545 4.97993921,15.0454545 Z M13.6948328,15.0454545 C13.6262163,15.0454545 13.5885426,15.0614253 13.5279796,15.1222323 C13.4666486,15.1838104 13.449848,15.2237615 13.449848,15.2954545 C13.449848,15.3671476 13.4666486,15.4070987 13.5279796,15.4686768 C13.5885426,15.5294838 13.6262163,15.5454545 13.6948328,15.5454545 C13.7634493,15.5454545 13.801123,15.5294838 13.8616861,15.4686768 C13.9230171,15.4070987 13.9398176,15.3671476 13.9398176,15.2954545 C13.9398176,15.2237615 13.9230171,15.1838104 13.8616861,15.1222323 C13.801123,15.0614253 13.7634493,15.0454545 13.6948328,15.0454545 Z M3.11246201,2 C3.21621126,2 3.30861155,2.02115864 3.38966565,2.06347656 C3.47071976,2.10579448 3.53394101,2.15624971 3.57933131,2.21484375 C3.6247216,2.27343779 3.66686911,2.3531896 3.70577508,2.45410156 C3.73171239,2.5213762 3.75188568,2.58141645 3.76629518,2.63422305 L3.81600807,2.88161872 L3.88085106,3.25 L9.14107008,3.55387029 C9.11087402,3.75200763 9.09521484,3.95492463 9.09521484,4.16149902 C9.09521484,4.28825012 9.10111032,4.41362424 9.11298752,4.53781029 L9.11298752,4.53781029 L9.105,4.553 L3.843,4.249 L5.009,9.691 L13.814,9.682 L14.0714697,8.5442953 C14.3622975,8.53939224 14.6549766,8.50486009 14.9449436,8.4392514 C15.0078143,8.4250261 15.0701713,8.40942727 15.1319796,8.39248575 L14.7550152,10.0576116 C14.7550152,10.2138624 14.7015203,10.3522074 14.5945289,10.4726507 C14.4875375,10.593094 14.3562318,10.6630803 14.2006079,10.6826116 L5.47598784,10.6914062 L5.5530397,11.0621956 L5.59452893,11.2956544 L5.60243161,11.375 C5.60243161,11.4494051 5.56273224,11.5769552 5.48333264,11.7576525 L5.36899696,12 L14.3173252,12 C14.4859178,12 14.631813,12.0618483 14.7550152,12.1855469 C14.8782174,12.3092454 14.9398176,12.4557283 14.9398176,12.625 C14.9398176,12.7942717 14.8782174,12.9407546 14.7550152,13.0644531 C14.631813,13.1881517 14.4859178,13.25 14.3173252,13.25 L4.35744681,13.25 C4.18885427,13.25 4.04295908,13.1881517 3.91975684,13.0644531 C3.7965546,12.9407546 3.73495441,12.7942717 3.73495441,12.625 C3.73495441,12.5533851 3.76089133,12.450847 3.81276596,12.3173828 C3.84734904,12.2284067 3.88193178,12.1466651 3.91651463,12.0721572 L4.01063835,11.8846435 L4.31601218,11.3142578 C4.32158865,11.3026693 4.32567375,11.2936198 4.32826748,11.2871094 L2.60668693,3.25 L0.622492401,3.25 C0.453899866,3.25 0.308004669,3.18815166 0.184802432,3.06445313 C0.0616001945,2.94075459 0,2.79427168 0,2.625 C0,2.45572832 0.0616001945,2.30924541 0.184802432,2.18554688 C0.308004669,2.06184834 0.453899866,2 0.622492401,2 L3.11246201,2 Z" id="Combined-Shape"></path>
                            <path d="M12.1818182,4.5 C12.4579606,4.5 12.6818182,4.72385763 12.6818182,5 C12.6818182,5.24545989 12.504943,5.44960837 12.2716938,5.49194433 L12.1818182,5.5 L11.261,5.499 L12.0409147,6.23198976 C12.7139355,6.90534789 13.6853557,7.18633221 14.6139173,6.97623343 C15.5424789,6.76613465 16.2983199,6.09433567 16.6159147,5.19683825 C16.7080348,4.9365144 16.993747,4.80015828 17.2540708,4.89227834 C17.5143947,4.9843984 17.6507508,5.27011063 17.5586308,5.53043448 C17.1264935,6.75161949 16.0980541,7.66570663 14.8346015,7.95157874 C13.6454696,8.22063485 12.4046807,7.89779501 11.5087361,7.10413099 L10.5,6.156 L10.5,7.18181818 C10.5,7.42727807 10.3231248,7.63142655 10.0898756,7.67376251 L10,7.68181818 C9.75454011,7.68181818 9.55039163,7.50494302 9.50805567,7.27169381 L9.5,7.18181818 L9.50239091,4.95079052 L9.51595462,4.87430231 L9.54489612,4.79260188 L9.58483501,4.72123549 L9.63562347,4.65761171 L9.65150877,4.64145547 C9.66466493,4.62866593 9.6785226,4.61659423 9.69301855,4.60530359 L9.63562347,4.65761171 L9.6788671,4.61669511 L9.74175459,4.57175945 L9.8070997,4.53857444 L9.864425,4.51864864 L9.92356554,4.50585432 L10,4.5 L12.1818182,4.5 Z M16.4912639,1.44132355 L17.5,2.389 L17.5,1.36363636 C17.5,1.11817647 17.6768752,0.914027993 17.9101244,0.871692033 L18,0.863636364 C18.2454599,0.863636364 18.4496084,1.04051152 18.4919443,1.27376073 L18.5,1.36363636 L18.5,3.54545455 C18.5,3.57869391 18.4967565,3.61117571 18.4905688,3.64260073 L18.4671448,3.72409023 L18.4286045,3.80308435 L18.3643765,3.88784284 C18.339107,3.91473522 18.3115635,3.93820967 18.2823249,3.9582482 L18.2007567,4.0035214 L18.0898756,4.03739888 L18,4.04545455 L15.8181818,4.04545455 C15.5420394,4.04545455 15.3181818,3.82159692 15.3181818,3.54545455 C15.3181818,3.29999466 15.495057,3.09584618 15.7283062,3.05351021 L15.8181818,3.04545455 L16.738,3.045 L15.9590853,2.31346478 C15.2860645,1.64010665 14.3146443,1.35912234 13.3860827,1.56922112 C12.4575211,1.7793199 11.7016801,2.45111888 11.3840853,3.3486163 C11.2919652,3.60894015 11.006253,3.74529626 10.7459292,3.65317621 C10.4856053,3.56105615 10.3492492,3.27534391 10.4413692,3.01502006 C10.8735065,1.79383505 11.9019459,0.879747914 13.1653985,0.593875802 C14.3545304,0.324819696 15.5953193,0.647659535 16.4912639,1.44132355 Z" id="Shape"></path>
                        </g>
                    </g>
                </g>
            </g>
        </g>
    </g>
</svg>