<?xml version="1.0" encoding="UTF-8"?>
<svg width="369px" height="223px" viewBox="0 0 369 223" version="1.1" xmlns="http://www.w3.org/2000/svg" xmlns:xlink="http://www.w3.org/1999/xlink">
    <title>Illutstration</title>
    <defs>
        <polygon id="path-1" points="0.131585404 0.124463927 140.887025 0.124463927 140.887025 64.0005553 0.131585404 64.0005553"></polygon>
        <polygon id="path-3" points="0 0.0755129032 131.895975 0.0755129032 131.895975 125.991755 0 125.991755"></polygon>
        <polygon id="path-5" points="0 223 369 223 369 0 0 0"></polygon>
    </defs>
    <g id="Desktop" stroke="none" stroke-width="1" fill="none" fill-rule="evenodd">
        <g id="Maintenance-Screen-Darkness" transform="translate(-558.000000, -199.000000)">
            <g id="Illutstration" transform="translate(558.000000, 199.000000)">
                <path d="M174.5,223 C120.099982,223 76,178.900018 76,124.5 C76,70.0999822 120.099982,26 174.5,26 C228.900018,26 273,70.0999822 273,124.5 C273,178.900018 228.900018,223 174.5,223 Z" id="Fill-1" fill-opacity="0.05" fill="#FFFFFF"></path>
                <g id="Group-5" transform="translate(228.000000, 122.000000)">
                    <mask id="mask-2" fill="white">
                        <use xlink:href="#path-1"></use>
                    </mask>
                    <g id="Clip-4"></g>
                    <path d="M138.508197,64.0005553 L72.9818773,64.0005553 C62.7422997,64.0005553 54.441545,55.6909297 54.441545,45.4404091 L54.441545,18.6834411 C54.441545,11.0633498 48.2708245,4.88618082 40.658722,4.88618082 L2.50990217,4.88618082 C1.19638354,4.88618082 0.131585404,3.82024475 0.131585404,2.50532237 C0.131585404,1.1904 1.19638354,0.124463927 2.50990217,0.124463927 L40.658868,0.124463927 C50.8977158,0.124463927 59.1980326,8.43365114 59.1980326,18.6834411 L59.1980326,45.4415781 C59.1980326,53.0610849 65.3681693,59.2378155 72.9796879,59.2378155 L138.508197,59.2378155 C139.822008,59.2378155 140.887098,60.3038977 140.887098,61.6191123 C140.887098,62.9343269 139.822008,64.0005553 138.508197,64.0005553" id="Fill-3" fill="#AEAEAE" mask="url(#mask-2)"></path>
                </g>
                <g id="Group-8">
                    <mask id="mask-4" fill="white">
                        <use xlink:href="#path-3"></use>
                    </mask>
                    <g id="Clip-7"></g>
                    <path d="M131.895975,125.991755 L72.7971686,125.991755 C62.5650537,125.991755 54.2703487,117.736577 54.2703487,107.553223 L54.2703487,18.5128839 C54.2703487,10.9427226 48.1041255,4.80588387 40.4977167,4.80588387 L2.37655425,4.80588387 C1.06399293,4.80588387 -2.91712707e-05,3.74693226 -2.91712707e-05,2.44077097 C-2.91712707e-05,1.13446452 1.06399293,0.0755129032 2.37655425,0.0755129032 L40.4977167,0.0755129032 C50.7292482,0.0755129032 59.0233697,8.33025484 59.0233697,18.513029 L59.0233697,107.554384 C59.0233697,115.123965 65.1891554,121.260223 72.7948349,121.260223 L131.895975,121.260223 L131.895975,125.991755 Z" id="Fill-6" fill="#AEAEAE" mask="url(#mask-4)"></path>
                </g>
                <path d="M119,132 L109.22541,132 C106.891273,132 105,130.219448 105,128.024492 L105,120.974375 C105,119.762744 105.576384,118.678013 106.484087,117.94976 L106.485291,117.94976 C107.222442,117.357753 108.179218,117 109.22541,117 L119,117 L119,132 Z" id="Fill-9" fill="#CCCBCB"></path>
                <path d="M141,140 L122.244419,140 C119.348334,140 117,137.600499 117,134.639799 L117,113.359019 C117,110.399501 119.348334,108 122.244419,108 L141,108 L141,140 Z" id="Fill-11" fill="#E9E9E9"></path>
                <path d="M145,142.300626 C145,142.686817 144.701369,143 144.332983,143 L141.667157,143 C141.298771,143 141,142.686817 141,142.300626 L141,106.699668 C141,106.31333 141.298771,106 141.667157,106 L144.332983,106 C144.701369,106 145,106.31333 145,106.699668 L145,142.300626 Z" id="Fill-13" fill="#D7D7D7"></path>
                <path d="M145,119 L145,114 L158.233439,114 C159.761389,114 161,115.119375 161,116.499932 C161,117.880625 159.761389,119 158.233439,119 L145,119 Z" id="Fill-15" fill="#AEAEAE"></path>
                <path d="M145,134 L145,129 L158.233439,129 C159.761389,129 161,130.11927 161,131.5 C161,132.88073 159.761389,134 158.233439,134 L145,134 Z" id="Fill-17" fill="#AEAEAE"></path>
                <path d="M141,140 L122.244419,140 C119.348334,140 117,137.600499 117,134.639799 L117,113.359019 C117,110.399501 119.348334,108 122.244419,108 C123.806842,130.978413 141,133.08904 141,133.08904 L141,140 Z" id="Fill-19" fill="#D7D7D7"></path>
                <mask id="mask-6" fill="white">
                    <use xlink:href="#path-5"></use>
                </mask>
                <g id="Clip-22"></g>
                <polygon id="Fill-21" fill="#CCCBCB" mask="url(#mask-6)" points="139 140 141 140 141 108 139 108"></polygon>
                <path d="M133,140 L122.220718,140 C119.337721,140 117,137.6359 117,134.718882 L117,120 C117,134.86359 133,140 133,140" id="Fill-23" fill="#CCCBCB" mask="url(#mask-6)"></path>
                <polygon id="Fill-24" fill="#AEAEAE" mask="url(#mask-6)" points="116 132 117 132 117 117 116 117"></polygon>
                <polygon id="Fill-25" fill="#7E7E7E" mask="url(#mask-6)" points="145 119 147 119 147 114 145 114"></polygon>
                <polygon id="Fill-26" fill="#7E7E7E" mask="url(#mask-6)" points="145 134 147 134 147 129 145 129"></polygon>
                <path d="M117,132 L109.938784,132 C107.763059,132 106,130.225815 106,128.038708 L106,121.0138 C106,119.806502 106.537407,118.725649 107.383507,118 L107.384629,118 C106.049251,128.949367 117,130.621239 117,130.621239 L117,132 Z" id="Fill-27" fill="#AEAEAE" mask="url(#mask-6)"></path>
                <path d="M228,132 L237.77459,132 C240.108727,132 242,130.219448 242,128.024492 L242,120.974375 C242,119.762744 241.423616,118.678013 240.515913,117.94976 L240.514709,117.94976 C239.777558,117.357753 238.820782,117 237.77459,117 L228,117 L228,132 Z" id="Fill-28" fill="#CCCBCB" mask="url(#mask-6)"></path>
                <path d="M206,140 L224.755581,140 C227.651666,140 230,137.600499 230,134.639799 L230,113.359019 C230,110.399501 227.651666,108 224.755581,108 L206,108 L206,140 Z" id="Fill-29" fill="#E9E9E9" mask="url(#mask-6)"></path>
                <path d="M202,106.699668 L202,142.300626 C202,142.686817 202.298631,143 202.667017,143 L205.332983,143 C205.701369,143 206,142.686817 206,142.300626 L206,106.699668 C206,106.31333 205.701369,106 205.332983,106 L202.667017,106 C202.298631,106 202,106.31333 202,106.699668" id="Fill-30" fill="#D7D7D7" mask="url(#mask-6)"></path>
                <path d="M206,140 L224.755581,140 C227.651666,140 230,137.600499 230,134.639799 L230,113.359019 C230,110.399501 227.651666,108 224.755581,108 C223.193158,130.978413 206,133.08904 206,133.08904 L206,140 Z" id="Fill-31" fill="#D7D7D7" mask="url(#mask-6)"></path>
                <polygon id="Fill-32" fill="#CCCBCB" mask="url(#mask-6)" points="206 140 208 140 208 108 206 108"></polygon>
                <path d="M214,140 L224.779282,140 C227.662279,140 230,137.6359 230,134.718882 L230,120 C230,134.86359 214,140 214,140" id="Fill-33" fill="#CCCBCB" mask="url(#mask-6)"></path>
                <polygon id="Fill-34" fill="#AEAEAE" mask="url(#mask-6)" points="231 132 232 132 232 117 231 117"></polygon>
                <path d="M231,132 L238.061216,132 C240.236941,132 242,130.225815 242,128.038708 L242,121.0138 C242,119.806502 241.462593,118.725649 240.616493,118 L240.615371,118 C241.950749,128.949367 231,130.621239 231,130.621239 L231,132 Z" id="Fill-35" fill="#AEAEAE" mask="url(#mask-6)"></path>
                <path d="M186,82.7048341 L186,73.2953063 C186,72.5799481 186.671596,72 187.5,72 C188.328404,72 189,72.5799481 189,73.2953063 L189,82.7048341 C189,83.4203326 188.328404,84 187.5,84 C186.671596,84 186,83.4203326 186,82.7048341" id="Fill-36" fill="#CCCBCB" mask="url(#mask-6)"></path>
                <path d="M198,95.5000813 C198,94.6714696 198.579941,94 199.295291,94 L208.704709,94 C209.420059,94 210,94.6714696 210,95.5000813 C210,96.3285304 209.420059,97 208.704709,97 L199.295291,97 C198.579941,97 198,96.3285304 198,95.5000813" id="Fill-37" fill="#CCCBCB" mask="url(#mask-6)"></path>
                <path d="M195,85.7125173 C195,85.3830713 195.125669,85.0534858 195.377146,84.8021472 L201.802016,78.3771125 C202.304831,77.8742958 203.120074,77.8742958 203.622889,78.3771125 C204.125704,78.8799292 204.125704,79.6950361 203.622889,80.1978528 L197.197879,86.6228875 C196.695064,87.1257042 195.879961,87.1257042 195.377146,86.6228875 C195.125669,86.3715489 195,86.0419634 195,85.7125173" id="Fill-38" fill="#CCCBCB" mask="url(#mask-6)"></path>
                <path d="M156,165.295166 L156,174.704834 C156,175.420052 155.32853,176 154.500081,176 C153.67147,176 153,175.420052 153,174.704834 L153,165.295166 C153,164.579808 153.67147,164 154.500081,164 C155.32853,164 156,164.579808 156,165.295166" id="Fill-39" fill="#CCCBCB" mask="url(#mask-6)"></path>
                <path d="M143,153.500081 C143,154.32853 142.420199,155 141.704709,155 L132.295291,155 C131.579941,155 131,154.32853 131,153.500081 C131,152.67147 131.579941,152 132.295291,152 L141.704709,152 C142.420059,152 143,152.67147 143,153.500081" id="Fill-40" fill="#CCCBCB" mask="url(#mask-6)"></path>
                <path d="M146,162.287448 C146,162.617033 145.874331,162.946619 145.622854,163.197818 L139.197984,169.622992 C138.695169,170.125669 137.879926,170.125669 137.377111,169.622992 C136.874296,169.120036 136.874296,168.304929 137.377111,167.802112 L143.802121,161.377217 C144.304936,160.874261 145.120039,160.874261 145.622854,161.377217 C145.874331,161.628416 146,161.958002 146,162.287448" id="Fill-41" fill="#CCCBCB" mask="url(#mask-6)"></path>
            </g>
        </g>
    </g>
</svg>