<svg width="73" height="28" viewBox="0 0 73 28" xmlns="http://www.w3.org/2000/svg" xmlns:xlink="http://www.w3.org/1999/xlink"><title>LOGO / AEG</title><desc>Created with Sketch.</desc><g id="01_Homepage" stroke="none" stroke-width="1" fill="none" fill-rule="evenodd"><g id="01.01_Homepage-/-Navigation---Brands" transform="translate(-847.000000, -239.000000)" fill="#cf122d"><g id="Group" transform="translate(-240.000000, 0.000000)"><g id="Group-9"><g id="Drop-down-/-Support-2" transform="translate(0.000000, 120.000000)"><g id="Drop-down-/-Support"><g id="Appliances-"><g id="Col1" transform="translate(370.000000, 40.000000)"><g id="LOGO-/-AEG" transform="translate(717.000000, 79.000000)"><g><path d="M7.28193963.0 8.90014844 4.34403919.0 28H3.52538347l2.52845127-6.7065868H15.1851559L17.6702622 28H24.8510638L14.4627412.0H7.28193963zM7.26749134 18.0620577 10.6483919 9.05389222 13.9859476 18.0620577H7.26749134z" id="Shape" fill-rule="nonzero"/><path id="Path" fill-rule="nonzero" d="M36.1722897 15.4708764h8.3234828L45.7278198 12.2090365H36.1722897V3.36853566H46.61604L47.8767397.0H29.5106383V28H46.8882365L48.1489362 24.6314643H36.1722897z"/><path d="M62.0101581 15.2631579H66.5571682v9.3533835C66.0091572 24.7669173 65.3870907 24.8571429 64.7354019 24.8571429 58.6184145 24.8571429 56.8262704 19.0977444 56.8262704 14 56.8262704 9.11278195 58.3666256 3.32330827 64.2762576 3.32330827H70.5857895L71.8891669.0H63.5357022C55.4340263.0 49.7021277 5.68421053 49.7021277 14 49.7021277 22.2255639 55.1970486 28 63.7282466 28 67.9790345 28 70.7190894 27.1879699 73 26.3759398V12.0451128H63.2839134L62.0101581 15.2631579z" id="Path" fill-rule="nonzero"/></g></g></g></g></g></g></g></g></g></g></svg>