<svg width="157" height="22" viewBox="0 0 157 22" xmlns="http://www.w3.org/2000/svg" xmlns:xlink="http://www.w3.org/1999/xlink"><title>LOGO / Kelvinator</title><desc>Created with Sketch.</desc><g id="01_Homepage" stroke="none" stroke-width="1" fill="none" fill-rule="evenodd"><g id="01.01_Homepage-/-Navigation---Brands" transform="translate(-370.000000, -242.000000)" fill="#1565a4"><g id="Group" transform="translate(-240.000000, 0.000000)"><g id="Group-9"><g id="Drop-down-/-Support-2" transform="translate(0.000000, 120.000000)"><g id="Drop-down-/-Support"><g id="Appliances-"><g id="Col1" transform="translate(370.000000, 40.000000)"><g id="LOGO-/-Kelvinator" transform="translate(240.000000, 82.000000)"><g id="Group"><path d="M110.552394 9.17525714H114.449622L114.51413 9.770552C116.251388 8.21408343 119.239642 8.38976914 119.398394 10.0477331 119.695436 13.1419389 114.000659 14.927836 114.815432 11.4686189 114.909639 10.5407217 114.242564 10.7675731 114.013419 11.5581651L111.394334 16.2941366H106.777408L110.552413 9.17556514 110.552394 9.17525714zM99.3828765 16.3604571C96.1451112 16.0431857 94.3543729 14.1020629 95.3838175 12.0262057 96.4141378 9.94946857 99.8742677 8.52349143 103.113096 8.84073143 106.350862 9.15799657 108.142476 11.0991257 107.112155 13.1758629 106.081835 15.25172 102.621705 16.67776 99.3828765 16.3604571M101.240668 14.1489543 102.84726 10.9839714C103.246991 10.2232114 102.814171 10.0347029 102.204811 10.1174857 101.5946 10.2010669 101.110002 10.5481829 100.909717 10.9430514L99.1554454 14.3272171C98.920352 14.9804914 99.6111895 15.05724 100.220543 14.9737029 100.830754 14.8909766 101.040384 14.5148583 101.240668 14.1489543M89.7903016 6.56586857H94.3223474L92.8294713 9.24301714 94.6932052 9.22170857 93.6340494 10.9470743 91.9290044 10.9087314 90.4157996 13.7845714C89.606155 15.3257029 90.8970077 15.202 91.8323024 15.202L93.9676275 15.0757703 93.2122761 16.3073303 87.601559 16.3111017C84.7363402 16.3111017 84.9850382 15.3251874 85.6707717 14.2778617L87.4869677 10.908216 85.5324116 10.9465589 86.5287673 9.22119314 88.4510478 9.275816 89.7903016 6.565416V6.56586857zM79.8123574 9.93551429 80.1289219 9.22164571H84.6245012L81.6659582 14.5887657C81.4783963 15.1431343 82.070793 15.1115737 82.2889041 15.1115737H83.9965137L83.4355233 16.3140937H78.0174596C77.2706149 16.3140937 77.4887198 15.6667909 77.5192754 15.4510023 76.0374706 17.1575737 68.7691838 16.7763451 70.9496698 12.2459166 71.8832256 10.1503851 76.1683248 8.08565371 79.8123511 9.93547657M77.6575105 13.9490309 78.9925109 11.3725166C79.3913972 10.6117566 78.7353499 10.505968 78.3491862 10.505968 77.8798563 10.505968 77.4156304 10.8675851 77.2161591 11.2616366L75.7733854 13.8927109C75.5391489 14.5468651 76.1052308 14.8581337 76.7145722 14.7745966 77.3247831 14.6910154 77.4571635 14.3166069 77.6574479 13.9490309M58.8155714 9.22757943H63.3357328L63.205035 9.78364514C65.47528 8.164068 70.6547163 9.38279886 69.2528501 12.5503651L68.2717565 14.3891251C68.0850453 14.7891229 68.0536391 15.0978394 68.6460357 15.0978394H69.7043784L69.2681498 16.3302166H63.5903793C62.5312235 16.3302166 62.3131124 15.437268 62.7807347 14.7285537L64.1157351 12.201508C65.6400112 10.0812737 62.6882235 10.307308 62.2834012 11.1396623L59.4861116 16.2994794H55.044888L58.8156402 9.22742229 58.8155714 9.22757943zM51.1025555 6.17687086C51.1025555 5.21396229 52.4434981 4.43359086 54.0976276 4.43359086 55.7517571 4.43359086 57.091824 5.21396229 57.091824 6.17687086 57.091824 7.13977943 55.7517571 7.92015086 54.0976276 7.92015086 52.4434981 7.92015086 51.1025555 7.13977943 51.1025555 6.17687086M50.5865509 9.22757943H55.01589L52.3832314 14.1818537C52.2270758 14.3660754 51.9155966 15.1362137 52.6947044 15.1362137H53.7606781L53.1377384 16.3694709H49.3695507C48.2806838 16.3694709 47.284328 15.4142937 47.9369726 14.1818537L50.5865822 9.22757943H50.5865509zM37.9502402 9.23468229H42.6375971V14.0363394L47.4564963 9.26711657H49.007919L42.3413613 16.3222023H37.9502402V9.23505943 9.23468229zM33.6897856 6.61555086H38.1123692L34.1218171 14.0829794C33.8103441 14.7601394 33.4360836 15.1917166 34.245722 15.1917166h2.1022362L35.7869678 16.3626823H31.3253531C28.49241 16.3626823 29.4013837 14.5682366 29.9004061 13.6130594L33.6898606 6.61517371 33.6897856 6.61555086zM29.1229621 13.524808 22.5608625 13.5222937C22.3223851 14.1116171 22.1161459 14.342768 22.0694712 14.5278194 22.0694712 14.9440154 22.4250731 15.0787686 22.8910003 15.0787686H27.5868641L27.0886799 16.3111457 21.8259273 16.3273629C17.6223305 16.4501794 17.6409704 13.8301743 17.6248951 13.3218486 17.6248951 10.5952314 20.7548871 9.16498 23.8187014 9.16498 26.8833289 9.16498 29.3683074 10.5500371 29.3683074 12.2591857 29.3683074 12.7103491 29.435317 13.1376143 29.1230371 13.5248143M23.2296575 12.1048086H24.9499646C25.8843961 10.0400143 24.2582889 9.67160857 23.2296575 12.1048086M5.23407976 6.59104286H11.125708L8.74343633 10.9372371 17.1957909 6.59959143H19.8428985L12.0842212 11.0021057 15.1683642 14.4212829C15.5426435 14.9355549 15.6665546 15.0685857 16.0408088 15.0685857H17.5166714L16.8317511 16.2975686H10.3409582L7.55129968 13.2110314 5.84625466 16.2975686H.00297737052L5.23432996 6.59116857 5.23407976 6.59104286zM146.083721 8.15348286C146.121126 8.11507714 146.136326 8.06904686 146.136326 8.0102 146.136326 7.89335486 146.039574 7.79868571 145.925845 7.79868571H143.953463C142.89512 8.94752571 138.161101 11.1120743 136.902224 11.1120743 136.902224 11.1120743 134.094738 9.90609714 133.234991 7.623 133.775615 5.63413714 137.720375 2.95610857 139.459322 2.68066857L146.651924 7.80044571 153.035756 7.79981714C153.210583 7.79981714 153.461802 7.58745429 153.461802 7.36996857 153.461802 7.31276857 153.471935 7.23607029 153.449917 7.18745657 152.641086 4.84803943 148.477396 2.09671943 141.396571 2.54105657L139.126326.774770857C147.312844-.143760571 154.795676 3.31206229 155.096541 7.65574229 154.652669 9.27280514 153.751345 10.6578623 151.180673 12.1801994 150.450779 12.5887206 150.123206 13.7537651 151.374171 14.0539709 154.443052 15.2207251 155.371541 15.4279023 156.316981 16.3754737 156.520668 16.6799411 156.151493 16.6330371 156.172704 16.5844234 151.032987 14.2321834 135.708285 15.7562806 129.187469 16.8479798 129.011791 16.8504726 129.085631 16.6321823 129.298651 16.5605377 135.935185 14.337092 140.436269 14.6219606 140.759651 13.439932 141.076209 12.279212 138.528437 12.7320349 138.902673 11.9925834 140.326806 11.6761669 144.831643 9.35208057 146.08339 8.15383486M142.812535 7.75383714C143.034888 7.75383714 143.17408 7.58752971 143.17408 7.37260857 143.17408 7.25490857 143.122226 7.15000629 143.04083 7.07922286 142.110652 6.28005714 139.259882 3.86904571 139.259882 3.86904571 139.034972 3.73429886 138.87881 3.790556 138.87881 3.790556 137.347778 4.28521657 134.743142 6.44809314 134.404497 7.12783029 134.216936 7.48261486 134.030224 7.75383714 134.617523 7.75383714H142.812798 142.812535zM129.195444 17.6708086C129.152973 17.6222829 129.03419 17.5207057 129.321907 17.4635623 135.736389 16.2021451 151.749764 16.4477909 156.178915 17.5897857 156.287552 17.6178829 156.435219 17.7740074 156.270575 17.86356 151.652836 18.8110686 151.269219 22.5440914 150.475649 21.8225543 147.882022 19.4626457 133.113701 17.3475657 129.195581 17.6707771" id="Shape" fill-rule="nonzero"/></g></g></g></g></g></g></g></g></g></g></svg>