<svg xmlns="http://www.w3.org/2000/svg" viewBox="0 0 1203.06 168.06"><style>.st0{fill:#d5ba8c}</style><g id="Layer_2"><path class="st0" d="M830.55 130.03c-1.45.85-6.5 3.79-11.84 6.34-7.69 3.67-14.86 5.78-22.76 6.33l-2.08.07c-13.64.07-23.61-3.6-32.96-10.57-16.3-13.14-24.23-29.12-24.23-48.85 0-12.4 3.32-23.86 9.86-34.09 12.43-17.56 27.47-26.29 46.02-26.29 6.58 0 14.47 2.04 23.44 5.74 3.78-1.96 7.16-4.36 9.05-6.29 1.9-1.95 3.13-4.18 3.8-5.6l-1.22-.72c-10.8-5.76-22.51-9.3-31.43-9.63l-3.76-.03-.01.01c-11.47.13-21.66 2.8-32.65 8.56l-1.51.9c-24.49 15.11-37.61 38.17-37.61 66.14v2.61c0 11.11 2.32 23.27 8.7 35.36l.27.51c14.25 24.81 36.72 38.64 62.54 38.64 13.09 0 24.88-3.33 35.06-9.89l2.71-1.75c1.3-4.29 1.95-8.68 1.83-11.52-.09-2.36-.69-4.5-1.22-5.98zM1039.06 14.85v115.36c0 1.58-.3 4.69-.98 6.33-1.11 2.66-3.6 3.94-5.99 4.92-5.08 2.08-9.85 2.81-20.34 2.82-19.68.03-30.14-8.87-38.61-18.46-8.47-9.59-12.99-21.01-12.99-35.04l-.09-8.49.09-56.5V7.01c-.68.02-4.38.19-7.98 1.91-2.39 1.14-5.67 3.52-8.68 6.39l.09 37.03-.08 34.41s0 1.55.09 5.22.85 12.77 3.07 19.36c4.69 13.9 10.52 22.83 22.11 33.14 9.05 8.04 14.87 10.03 21.33 12.42 4.24 1.56 11.8 3.15 20.67 3.25 8.67.1 13.96-.64 15.83-1 14.44-2.8 17.24-5.12 21.33-8.5 4.29-3.54 7.31-7.85 7.31-20.99V7.02c-.69.02-4.39.19-7.98 1.91-2.27 1.07-5.33 3.25-8.2 5.92zM864.38 143.06V7.01c-.68.02-4.38.19-7.98 1.91-2.34 1.12-5.53 3.41-8.49 6.2v133.12c0 1.73.41 3.69 1.63 6.17.68 1.4 3.55 4.76 6.76 4.76h82.13c2.74-2.9 4.98-6.01 6.09-8.3 1.61-3.33 1.89-6.76 1.94-7.78h-49.83l-32.25-.03zM638.52 130.03c-1.45.85-6.5 3.79-11.84 6.34-7.69 3.67-14.86 5.78-22.76 6.33l-2.08.07c-13.64.07-23.61-3.6-32.96-10.57-16.3-13.14-24.23-29.12-24.23-48.85 0-12.4 3.32-23.86 9.86-34.09 12.43-17.56 27.47-26.29 46.02-26.29 6.58 0 14.47 2.04 23.44 5.74 3.78-1.96 7.16-4.36 9.05-6.29 1.9-1.95 3.13-4.18 3.8-5.6l-1.23-.72c-10.8-5.76-22.51-9.3-31.43-9.63l-3.76-.03-.01.01c-11.47.13-21.66 2.8-32.65 8.56l-1.51.9c-24.49 15.11-37.61 38.17-37.61 66.14v2.61c0 11.11 2.32 23.27 8.7 35.36l.27.51c14.25 24.81 36.72 38.64 62.54 38.64 13.09 0 24.88-3.33 35.06-9.89l2.71-1.75c1.3-4.29 1.95-8.68 1.83-11.52-.08-2.36-.68-4.5-1.21-5.98zM517.4 133.78l-3.93 2.23c-7.82 4.44-16.4 6.69-25.52 6.69-10.33 0-19.69-2.63-27.83-7.82-17.62-12-26.62-27.14-27.94-46.17h64.72c3.35-3.25 6.18-7 7.48-9.66 1.27-2.61 1.72-5.29 1.88-6.81h-73.71c.92-6.74 3.44-14.8 8.92-23.6 12.68-19.07 27.8-25.91 45.38-26.03h1.24c5.36.03 11.41 1.11 18.75 3.74 3.16-2.26 5.87-4.79 7.38-6.77 1.86-2.45 2.83-5.16 3.25-6.57-10.41-4.59-20.45-6.92-29.9-6.92-16.6 0-32.31 6.23-46.67 18.52l-1.36 1.35C424.3 40.73 415.65 60 415.48 81.17v3c.08 14.13 4.01 27.55 11.09 39.19l2.22 3.35c14.02 20.34 34.34 32.47 58.32 32.47 10.65 0 21.03-2.32 30.91-6.88 1.09-4.05 1.6-8.1 1.46-10.76-.21-3.71-1.63-6.85-2.08-7.76zM417.37 21.72c2.52-2.76 4.58-5.64 5.63-7.8 1.56-3.22 1.87-6.54 1.93-7.68H314.91c-2.54 2.77-4.61 5.67-5.66 7.84-1.62 3.34-1.89 6.78-1.94 7.79h51.64v137.3c.58-.01 4.36-.16 8.02-1.91 2.11-1.01 4.91-2.98 7.61-5.4v-130h42.63l.16-.14zM298.7 42.61c-13.16-23.04-35.05-36.22-60.82-36.22-11.29 0-22.43 2.69-30.67 7.89-1.46 1-4.41 3.37-6.28 6.15-2.8 4.19-5.05 9.17-5.05 17.12v46.03l-.09 6.98.02 68.59c.63-.01 4.37-.17 8-1.91 2.28-1.09 5.37-3.3 8.27-6V40.31c.01-4.96 1.37-8.08 2.63-10.05 1.3-2.04 3.81-3.6 4.69-4.1 5.96-3.03 11.56-3.85 18.54-3.85 18.59 0 33.3 6.41 44.53 24.59 5.59 9.48 7.62 17.27 7.62 22.97l.09 22.38-.11 66.91c.85-.03 4.44-.24 7.91-1.91 2.36-1.13 5.8-3.61 8.79-6.44V72.02c0-10.36-.82-15.59-7.1-27.61l-.97-1.8zM153.83 15.08v144.08c.53-.01 4.34-.14 8.03-1.91 2.34-1.12 5.55-3.43 8.51-6.23V7.01s-4.12.01-8.1 1.91c-2.33 1.11-5.5 3.39-8.44 6.16zM117.67 6.99L68.02 134 18.79 6.96c-.5.21-3.16 1.36-5.3 3.6-1.96 2.05-4.5 6.24-5.97 10.4C33.13 87.07 46.49 121.68 49.7 129.88c3.73 9.75 5.69 14.79 7.53 19.3.15.37.3.73.45 1.09 0 0 1.33 3.32 3.88 5.65 1.23 1.12 4 3.25 7.53 3.25 1.02 0 5.28-.03 5.28-.03l2.09-5.22c2.65-6.6 19.67-49.12 52.89-134.49-1.62-3.23-3.5-6.07-5.08-7.78-2.56-2.78-5.74-4.29-6.6-4.66zM1190.54 95.73c-3.87-7.63-11.04-12.8-15.64-15.27 8.11-7.59 10.99-22.69 2.96-37.84-12.53-23.65-36.05-36.22-61.82-36.22-11.29 0-22 2.55-30.25 7.74-1.46 1-4.83 3.51-6.7 6.3-2.8 4.19-5.05 9.17-5.05 17.12V83.6c0 5.15.01 9.43.01 11.91.01 7.18-.02 17.19-.02 22.05 0 4.9.42 12.04 9.21 22.77 13.91 17 40.24 19.92 55.54 19.92 15.76 0 23.56-3.16 30.63-6.62 15.5-7.58 23.46-20.85 24.83-35.67.69-7.34.55-13.86-3.7-22.23zm-100.31-55.42c.01-4.96 1.38-8.08 2.63-10.05 1.3-2.04 3.81-3.6 4.69-4.1 5.96-3.03 11.56-3.85 18.54-3.85 18.59 0 34.3 6.41 45.53 24.59 5.59 9.48 3.85 16.01 2.54 19.6-1.81 4.96-7.01 8.13-7.01 8.13h-66.93V40.31zm85.11 83.02c-7.57 16.65-21.23 19.53-37.01 19.84-12.72.25-26.21-3.08-33.82-7.2-8.37-4.77-14.15-10.55-14.31-20.26-.12-7.27.07-9.83 0-19.42V90.9h72.97v-.04c10.39 4.74 13.12 11.65 14.33 17.96.76 3.98-.54 10.94-2.16 14.51z"/></g><script id="globalVarsDetection"/></svg>