<svg width="146" height="30" viewBox="0 0 146 30" xmlns="http://www.w3.org/2000/svg" xmlns:xlink="http://www.w3.org/1999/xlink"><title>LOGO / westinghouse</title><desc>Created with Sketch.</desc><g id="01_Homepage" stroke="none" stroke-width="1" fill="none" fill-rule="evenodd"><g id="01.01_Homepage-/-Navigation---Brands" transform="translate(-130.000000, -238.000000)"><g id="Group" transform="translate(-240.000000, 0.000000)"><g id="Group-9"><g id="Drop-down-/-Support-2" transform="translate(0.000000, 120.000000)"><g id="Drop-down-/-Support"><g id="Appliances-"><g id="Col1" transform="translate(370.000000, 40.000000)"><g id="LOGO-/-westinghouse" transform="translate(0.000000, 78.000000)"><g><path d="M14.7224516.0C22.8414122.0 29.4548459 6.65210526 29.4548459 14.8073684c0 8.1557895-6.613433699999998 14.8073684-14.7323943 14.8073684C6.61343369 29.6147368.0 22.9631579.0 14.8073684.0 6.65210526 6.61343369.0 14.7224516.0" id="Fill-3" fill="#1a1919"/><path d="M14.7224516 1.39947368C22.0732115 1.39947368 28.0534552 7.42473684 28.0534552 14.8073684 28.0534552 22.1905263 22.0732115 28.2157895 14.7224516 28.2157895 7.38163441 28.2157895 1.39092473 22.1905263 1.39092473 14.8073684c0-7.38263156 5.99070968-13.40789472 13.33152687-13.40789472" id="Fill-4" fill="#fff"/><path d="M8.24350538 11.7268421 11.3477061 18.3684211 14.7224516 11.7689474c.020408600000001442.0.03087460000000064.0.05180650000000142.0.010465899999999806.0.030874499999999472.0.051806399999998476.0L18.3248315 18.3684211 21.4190896 11.7478947C21.5331685 11.7689474 21.6472473 11.7689474 21.7613262 11.7689474 22.9968315 11.7689474 24.0041792 10.7663158 24.0041792 9.52368421 24.0041792 8.29157895 22.9968315 7.27842105 21.7613262 7.27842105 20.5362867 7.27842105 19.5294624 8.29157895 19.5294624 9.52368421 19.5294624 10.2652632 19.8926308 10.9231579 20.4326738 11.33L18.3248315 15.7684211 15.9370251 11.4347368C16.580681 11.0378947 17.0061219 10.3278947 17.0061219 9.52368421 17.0061219 8.29157895 15.9992975 7.27842105 14.7742581 7.27842105 13.5387527 7.27842105 12.531405 8.29157895 12.531405 9.52368421 12.531405 10.3384211 12.9678351 11.0484211 13.6109677 11.4452632L11.3791039 15.7684211 9.29219355 11.1736842C9.72810036 10.7557895 10.0085878 10.1710526 10.0085878 9.52368421 10.0085878 8.29157895 9.00124014 7.27842105 7.77620072 7.27842105 6.54069534 7.27842105 5.53334767 8.29157895 5.53334767 9.52368421 5.53334767 10.7663158 6.54069534 11.7689474 7.77620072 11.7689474 7.93214337 11.7689474 8.08756272 11.7584211 8.24350538 11.7268421" id="Fill-5" fill="#1a1919"/><path d="M10.0085878 19.3394737H19.5294624C20.4740143 19.3394737 21.252681 20.1226316 21.252681 21.0626316 21.252681 22.0126316 20.4740143 22.7957895 19.5294624 22.7957895H10.0085878C9.06351254 22.7957895 8.28484588 22.0126316 8.28484588 21.0626316 8.28484588 20.1121053 9.06351254 19.3394737 10.0085878 19.3394737" id="Fill-6" fill="#1a1919"/><g id="Group" transform="translate(32.967742, 6.728947)" fill="#1a1919"><path d="M19.8803691 3.79736842C22.3025107 3.79736842 24.0769176 5.26564829 24.0769176 7.81046939v0V11.1782377H18.327636V13.3313201C18.327636 14.5065361 19.1339997 15.0936507 19.9413802 15.0936507 20.7477439 15.0936507 21.5551245 14.5065361 21.5551245 13.3313201v0V12.5873127h2.5217931V13.468478C24.0769176 15.7005002 22.1601514 17.4815789 19.8803691 17.4815789 17.5802498 17.4815789 15.7041577 15.6807653 15.7041577 13.468478v0V7.81046939c0-2.21228728 1.876092100000001-4.01310097 4.1762114-4.01310097zM19.9413802 6.16654851C19.1339997 6.16654851 18.327636 6.8118812 18.327636 8.12425501v0V8.82879253H21.5551245V8.12425501C21.5551245 6.83161614 20.7477439 6.16654851 19.9413802 6.16654851z" id="Combined-Shape"/><path d="M108.327814 3.79736842C110.754833 3.79736842 112.514194 5.26564829 112.514194 7.81046939v0V11.1782377H106.77028V13.3313201C106.77028 14.5065361 107.579627 15.0936507 108.387954 15.0936507 109.1973 15.0936507 109.98626 14.5065361 109.98626 13.3313201v0V12.5873127H112.514194V13.468478C112.514194 15.7005002 110.613147 17.4815789 108.327814 17.4815789 106.022094 17.4815789 104.141434 15.6807653 104.141434 13.468478v0V7.81046939c0-2.21228728 1.8806599999999918-4.01310097 4.18638-4.01310097zM108.387954 6.16654851C107.579627 6.16654851 106.77028 6.8118812 106.77028 8.12425501v0V8.82879253H109.98626V8.12425501C109.98626 6.83161614 109.1973 6.16654851 108.387954 6.16654851z" id="Combined-Shape"/><path id="Fill-11" d="M40.8224373 16.9552632H43.4389247V3.79736842H40.8224373z"/><path d="M47.9577338 4.29058403C48.6675256 3.6011761 49.5552624 3.216129 50.4628813 3.2774097 52.2184728 3.41937667 53.3815771 4.59392352 53.3815771 6.86335232V16.9552632H50.9161937V7.37096083C50.9161937 6.3577865 50.4429992 5.72965926 49.4568459 5.74906482 48.8842407 5.74906482 47.9577338 6.27607889 47.9577338 7.00531928V16.9552632H45.5321147V3.56032229H47.9577338v.73026174" id="Fill-12"/><path d="M67.8567419 4.45423926C68.5647404 3.77373997 69.4502343 3.39366852 70.3555602 3.45415735 72.1057245 3.59428979 73.2668817 4.75365894 73.2668817 6.99376177V16.9552632H70.8077273V7.49481088C70.8077273 6.49472897 70.3158964 5.87471851 69.3520665 5.8938733 68.780908 5.8938733 67.8567419 6.4140772 67.8567419 7.13389422V16.9552632H65.4174194V.113157895H67.8567419V4.45423926" id="Fill-13"/><path d="M90.2093982 15.989443C89.4815678 16.6520879 88.5960739 17.0227364 87.6907481 16.9450673 85.9405837 16.8084091 84.7794265 15.6964636 84.7794265 13.5118986V3.79736842H87.238581V13.024255C87.238581 13.9995423 87.7304119 14.5845181 88.6952334 14.5845181 89.2852321 14.564855 90.2093982 14.0772114 90.2093982 13.3752404V3.79736842H92.6288889V16.691414H90.2093982V15.989443" id="Fill-14"/><path d="M42.3815623.113157895C43.256955.113157895 43.9622222.822249788 43.9622222 1.70347239 43.9622222 2.56196074 43.256955 3.27105263 42.3815623 3.27105263 41.5266277 3.27105263 40.8224373 2.56196074 40.8224373 1.70347239 40.8224373.822249788 41.5266277.113157895 42.3815623.113157895" id="Fill-15"/><path d="M78.7610205 3.7981409C80.7236286 3.83795016 82.6862366 5.04218029 82.6862366 7.84574746V13.4737817C82.6862366 16.1390116 80.7236286 17.4815789 78.7610205 17.4815789 76.7993822 17.4815789 74.8367742 16.1390116 74.8367742 13.4737817V7.84574746C74.8367742 5.25914076 76.7993822 3.75833164 78.7610205 3.7981409zM78.838594 6.16778713C78.0492842 6.18769176 77.2803375 6.77985451 77.2803375 7.90546135v0V13.3155398C77.2803375 14.5595792 78.0492842 15.1915512 78.838594 15.1915512 79.6075407 15.1915512 80.3774571 14.5794839 80.3774571 13.3155398v0V7.90546135C80.3774571 6.70123122 79.6075407 6.1478825 78.838594 6.16778713z" id="Combined-Shape"/><path d="M35.3968755 1.69210526H37.8446828v2.3291832H39.7758423V6.13270658H37.8446828V14.1558947C37.8446828 15.2507413 38.3232091 16.1669603 39.2983192 17.1825283H36.6308112C35.655701 16.1669603 35.3968755 15.2507413 35.3968755 14.1558947V6.13270658H29.6244643C28.9673685 6.13270658 28.0524504 6.47089474 28.0524504 7.54567079 28.0725144 8.56123882 29.4057668 9.2978267 30.3808769 9.69622641 32.5507979 10.6124454 33.7446056 11.8267115 33.7044776 13.8779181 33.6452888 16.0876817 32.0532108 17.4815789 29.4458948 17.4815789 26.0019101 17.4815789 25.066928 14.9326236 25.1261168 12.6034404H27.8528136C27.7735608 13.9371261 28.1517671 15.0921842 29.5050836 15.1915333 30.5795105 15.2908823 31.0179087 14.5141534 31.0379727 13.8377771 31.0580367 12.4438798 29.30645 11.90599 28.1918951 11.2888217 26.4994972 10.3736063 25.4842591 9.23861868 25.4842591 7.70523138 25.4842591 6.19191459 26.6590059 4.02128846 29.6244643 4.02128846H35.3968755V1.69210526" id="Fill-18"/><path id="Fill-19" d="M5.48914606 16.9552632H2.95376511L.00523297491.113157895H2.81604805L4.34876956 10.5343744 6.31544841.113157895H9.02718647L10.8363329 10.5343744 12.6058485.113157895H15.1808602L12.2907835 16.9552632H9.65632555L7.67082206 5.49464705 5.48914606 16.9552632"/><path d="M93.6946919 12.67075H96.2791064C96.3201451 14.2280363 97.1552835 15.2652211 98.1730442 15.2853411 98.9055856 15.3054611 99.8012561 15.0257934 99.8012561 13.8286547 99.8012561 12.9302977 98.9866371 12.2713684 97.9483571 11.752273 96.1775355 10.894156 94.1214947 9.79661117 94.1009754 7.5009217 94.1009754 5.16599827 96.421716 3.64895194 98.4582634 3.80890576 100.432227 3.94873961 102.385671 4.94669051 102.40619 8.11961101H99.7191786C99.739698 6.74340453 99.1497661 6.10459523 98.1730442 6.10459523 97.5420736 6.10459523 96.7684933 6.74340453 96.7684933 7.38120783 96.7684933 8.45963864 98.437744 9.05820798 99.4749981 9.61653736 101.408949 10.6748482 102.630877 12.1717745 102.569319 13.9483686 102.52828 15.8044365 100.798497 17.4411967 98.0704473 17.4814367 95.5876037 17.5015567 93.4494854 15.384935 93.6946919 12.67075" id="Fill-20"/><path d="M62.903748 3.27105263C63.7189045 3.27105263 64.3708244 3.89272525 64.3708244 4.634689 64.3708244 5.39686974 63.7189045 6.01854235 62.903748 6.01854235 62.6388735 6.01854235 62.373999 5.95789137 62.1707232 5.83760024 62.373999 6.31977559 62.4961698 6.84036323 62.4961698 7.40239571V9.70814408C62.4961698 11.8946122 60.683114 13.6797729 58.4635066 13.6797729 57.7099488 13.6797729 56.9964302 13.4594076 56.4061091 13.0985343V14.8624671H61.4171655C62.3945319 14.8624671 64.0238182 15.6448649 64.0238182 17.750465 64.0238182 19.8570759 62.5577685 20.6394737 61.4171655 20.6394737H56.4061091C55.265506 20.6394737 54.4914154 19.7772188 54.4298166 18.87453 54.3916841 18.0340806 55.0174955 17.1386189 56.2212259 16.9513307L56.405172 16.9280526 56.2090592 16.9040277C54.7485081 16.6811035 54.4298166 15.6831087 54.4298166 14.7027529 54.4503496 13.75963 55.2244402 13.0176663 56.0796359 12.8973752 55.1022694 12.1756284 54.4503496 11.0121403 54.4503496 9.70814408V7.40239571C54.4503496 5.21592762 56.2634054 3.4307669 58.4635066 3.4307669 59.6441488 3.4307669 60.7036469 3.93214839 61.4572046 4.73476312 61.4572046 4.71454613 61.4366717 4.67512299 61.4366717 4.634689 61.4366717 3.89272525 62.1091245 3.27105263 62.903748 3.27105263zM61.1923301 16.9084271H56.4061091L56.405172 16.9280526 56.4061091 18.753228H61.1923301C61.8042108 18.753228 62.1296574 18.2922805 62.1296574 17.831333 62.1296574 17.3693746 61.8247437 16.9084271 61.1923301 16.9084271zM58.4019078 5.49694386C57.6278172 5.49694386 56.8537265 6.05897635 56.8537265 7.2214536v0V9.56864681C56.8537265 10.6108329 57.6278172 11.1526484 58.4019078 11.1526484 59.1759985 11.1526484 59.9500891 10.6108329 59.9500891 9.56864681v0V7.2214536C59.9500891 6.05897635 59.1759985 5.49694386 58.4019078 5.49694386z" id="Combined-Shape"/></g></g></g></g></g></g></g></g></g></g></g></svg>