<svg width="81" height="29" viewBox="0 0 81 29" xmlns="http://www.w3.org/2000/svg" xmlns:xlink="http://www.w3.org/1999/xlink"><title>LOGO / zanussi</title><desc>Created with Sketch.</desc><g id="01_Homepage" stroke="none" stroke-width="1" fill="none" fill-rule="evenodd"><g id="01.01_Homepage-/-Navigation---Brands" transform="translate(-1229.000000, -239.000000)"><g id="Group" transform="translate(-240.000000, 0.000000)"><g id="Group-9"><g id="Drop-down-/-Support-2" transform="translate(0.000000, 120.000000)"><g id="Drop-down-/-Support"><g id="Appliances-"><g id="Col1" transform="translate(370.000000, 40.000000)"><g id="LOGO-/-zanussi" transform="translate(1099.000000, 79.000000)"><g><path id="Fill-3" fill="#0a0b09" d="M.159969359 21.1609375V17.6643984L6.42584958 3.7500625H.153200557V.406H11.49839V3.76207031L5.31599164 17.7004219H11.615039V21.1609375H.159969359"/><path d="M17.1293565 15.5958828H18.7204763L18.1703983 6.30296875H17.6153565L17.1293565 15.5958828zM12.3338858 21.1609375 13.6982507.406H21.8963983L23.7918886 21.1609375H19.3122953L19.1281838 19.0545859H16.7424067L16.5585209 21.1609375H12.3338858v0z" id="Fill-4" fill="#0a0b09"/><path id="Fill-5" fill="#0a0b09" d="M24.9804903 21.1609375V.406h4.3015738L31.8363844 8.6039375V.406H36.4671476V21.1609375H31.9681504L29.5925265 13.5656563V21.1609375H24.9804903"/><path d="M38.075415.406H42.6777493V17.0637813C42.6777493 17.0637813 42.7332535 18.1961406 43.8523621 18.1961406 45.1142925 18.1961406 45.1697967 17.0368203 45.1697967 17.0368203V.406H49.6078747V17.0166563c0 0 .2506712999999934 4.6427187-5.8838942 4.6427187C38.075415 21.659375 38.075415 16.6326328 38.075415 16.6326328V.406" id="Fill-6" fill="#0a0b09"/><path id="Fill-7" fill="#0a0b09" d="M76.0152284 21.1607109H80.8467994V.406H76.0152284z"/><path d="M62.354883 4.85614062V6.7261875H57.6343203V4.571125C57.6343203 4.01038281 57.5497103 3.47207031 57.3804903 3.24414844 57.2114958 3.016 56.9177298 2.90203906 56.4998691 2.90203906 56.0914847 2.90203906 55.8078719 3.01373437 55.648805 3.23689844 55.4897382 3.46028906 55.2665933 4.00086719 55.2665933 4.571125V5.9395625C55.533961 8.02869531 59.5855404 8.90549219 61.6028691 11.3544062 62.8025265 12.81075 62.677078 14.5450859 62.677078 15.2197891V16.5028125C62.677078 18.1279453 62.0087716 19.3776641 60.9589304 20.2519687 59.9088635 21.1265 58.4082201 21.5635391 56.4579025 21.5635391 54.4669721 21.5635391 53.3230446 21.1550469 52.4521253 20.3373828 51.5812061 19.5203984 50.8594262 18.1660078 50.8594262 16.2746641V14.4331641H55.4127994v2.0696484C55.4127994 17.1491953 55.5123008 17.6075312 55.7113036 17.8785 55.9103064 18.1492422 56.1056992 18.2847266 56.583351 18.2847266 57.0610028 18.2847266 57.3942535 18.1587578 57.5835543 17.9070469 57.7726295 17.6553359 57.8673928 17.1870312 57.8673928 16.5028125V15.6903594C57.8673928 15.1010703 57.7329192 14.5903984 57.4639721 14.1576641 57.1954763 13.7253828 53.2576128 11.3877109 53.2576128 11.3877109 52.3618747 10.7510703 51.7197409 10.0668516 51.331663 9.33482812 50.9433593 8.60325781 50.7493203 7.44597656 50.7493203 6.43845312V4.59967187C50.7493203 3.18365625 51.4273287 2.04064844 52.4974763 1.17110156 53.5673983.301554687 54.5685042.0106484375 56.3599805.0106484375 58.0517298.0106484375 59.9036741.28728125 60.7696295 1.12828125 61.6353593 1.96950781 62.354883 3.21220312 62.354883 4.85614062" id="Fill-8" fill="#0a0b09"/><path d="M74.9728329 4.85614062V6.7261875H70.2524958V4.571125C70.2524958 4.01038281 70.1678858 3.47207031 69.9986657 3.24414844 69.8294457 3.016 69.5359053 2.90203906 69.1178189 2.90203906 68.7096602 2.90203906 68.4260474 3.01373437 68.2669805 3.23689844 68.107688 3.46028906 67.8847688 4.00086719 67.8847688 4.571125V5.9395625C68.1519109 8.02869531 72.2037159 8.90549219 74.2210446 11.3544062 75.4207019 12.81075 75.2952535 14.5450859 75.2952535 15.2197891V16.5028125C75.2952535 18.1279453 74.6269471 19.3776641 73.5771058 20.2519687 72.5268134 21.1265 71.0263955 21.5635391 69.076078 21.5635391 67.0851476 21.5635391 65.9409944 21.1550469 65.0703008 20.3373828 64.1993816 19.5203984 63.4776017 18.1660078 63.4776017 16.2746641V14.4331641H68.0309749v2.0696484C68.0309749 17.1491953 68.1302507 17.6075312 68.3294791 17.8785 68.5282563 18.1492422 68.723649 18.2847266 69.2015265 18.2847266 69.6791783 18.2847266 70.012429 18.1587578 70.2015042 17.9070469 70.390805 17.6553359 70.4853426 17.1870312 70.4853426 16.5028125V15.6903594C70.4853426 15.1010703 70.3510947 14.5903984 70.0821476 14.1576641 69.8136518 13.7253828 65.8757883 11.3877109 65.8757883 11.3877109 64.9800501 10.7510703 64.3379164 10.0668516 63.9496128 9.33482812 63.5615348 8.60325781 63.3674958 7.44597656 63.3674958 6.43845312V4.59967187C63.3674958 3.18365625 64.0455042 2.04064844 65.1156518 1.17110156 66.1853482.301554687 67.1866797.0106484375 68.9779304.0106484375 70.6696797.0106484375 72.521624.28728125 73.387805 1.12828125 74.2535348 1.96950781 74.9728329 3.21220312 74.9728329 4.85614062" id="Fill-9" fill="#0a0b09"/><path id="Fill-10" fill="#10a650" d="M.105142061 28.880375H27.1855404V26.7230469H.105142061z"/><path id="Fill-11" fill="#fff" d="M27.185766 28.880375H54.040312V26.7230469H27.185766z"/><path id="Fill-12" fill="#bf2c34" d="M54.040312 28.880375H80.8946323V26.7230469H54.040312z"/></g></g></g></g></g></g></g></g></g></g></svg>