<?xml version="1.0" encoding="UTF-8"?>
<svg width="63px" height="24px" viewBox="0 0 63 24" version="1.1" xmlns="http://www.w3.org/2000/svg" xmlns:xlink="http://www.w3.org/1999/xlink">
    <title>7C92A35E-2E77-42A9-848B-58F5E9B66956</title>
    <g id="03_Category" stroke="none" stroke-width="1" fill="none" fill-rule="evenodd">
        <g id="3.0---Product-Detail" transform="translate(-196.000000, -1946.000000)" fill="#CF122D" fill-rule="nonzero">
            <g id="Group-6" transform="translate(0.000000, 1734.000000)">
                <g id="LOGO-/-AEG" transform="translate(196.000000, 212.000000)">
                    <path d="M6.24166254,0 L7.62869866,3.72346217 L0,24 L3.02175726,24 L5.1890012,18.251497 L13.0158479,18.251497 L15.1459391,24 L21.3009119,24 L12.3966353,0 L6.24166254,0 Z M6.22927829,15.4817637 L9.12719304,7.76047904 L11.987955,15.4817637 L6.22927829,15.4817637 Z" id="Shape"></path>
                    <polygon id="Path" points="31.0048198 13.2607512 38.1392336 13.2607512 39.1952742 10.4648884 31.0048198 10.4648884 31.0048198 2.88731628 39.9566057 2.88731628 41.0372054 0 25.2948328 0 25.2948328 24 40.189917 24 41.2705167 21.1126837 31.0048198 21.1126837"></polygon>
                    <path d="M53.1515641,13.0827068 L57.0490013,13.0827068 L57.0490013,21.0998926 C56.5792776,21.2287863 56.0460777,21.3061224 55.4874874,21.3061224 C50.2443553,21.3061224 48.7082318,16.3694952 48.7082318,12 C48.7082318,7.81095596 50.0285363,2.84854995 55.0939351,2.84854995 L60.5021052,2.84854995 L61.6192859,0 L54.4591733,0 C47.5148797,0 42.6018237,4.87218045 42.6018237,12 C42.6018237,19.0504834 47.3117559,24 54.6242114,24 C58.2677439,24 60.6163624,23.3039742 62.5714286,22.6079484 L62.5714286,10.3243824 L54.2433543,10.3243824 L53.1515641,13.0827068 Z" id="Path"></path>
                </g>
            </g>
        </g>
    </g>
</svg>