<?xml version="1.0" encoding="UTF-8"?>
<svg width="121px" height="28px" viewBox="0 0 121 28" version="1.1" xmlns="http://www.w3.org/2000/svg" xmlns:xlink="http://www.w3.org/1999/xlink">
    <title>701CC477-B37F-4649-8FE2-8450FD853C58</title>
    <g id="03_Category" stroke="none" stroke-width="1" fill="none" fill-rule="evenodd">
        <g id="3.0---Product-Detail" transform="translate(-464.000000, -2020.000000)" fill="#011E41">
            <g id="Group-6" transform="translate(0.000000, 1734.000000)">
                <g id="LOGO-/-test" transform="translate(464.000000, 286.000000)">
                    <path d="M4.1698662,14.6661557 C10.5009342,14.6661557 16.6340485,19.8813892 16.6340485,26.2185389 C15.841659,26.3804551 14.8421175,26.5002156 13.9953051,26.5002156 C7.33271738,26.4914012 1.76989358,21.140503 1.51809191,14.6661557 L4.1698662,14.6661557 Z M13.9953051,1.50438323 C14.8894501,1.50438323 15.841659,1.62356886 16.6351983,1.78165269 C16.6351983,8.12512575 10.499976,13.3451497 4.16775827,13.3451497 L1.51981658,13.341509 C1.95404989,6.83861078 7.33520857,1.50438323 13.9953051,1.50438323 L13.9953051,1.50438323 Z M17.9465216,2.13901796 C22.8955549,3.76047904 26.4717517,8.45221557 26.4853969,13.9951138 C26.4989631,19.4475689 22.9944359,24.1281916 17.9465216,25.8569581 L17.9465216,2.13901796 Z M0,28 L28,28 L28,0 L0,0 L0,28 Z" id="Fill-1"></path>
                    <path d="M37.4541691,16.6379282 L37.4541691,14.8541309 L43.4472699,14.8541309 L43.4472699,12.5795473 L37.4531835,12.5795473 L37.4531835,9.26838581 L43.8292923,9.26838581 L43.8292923,7 L35,7 L35,11.8757125 L35,16.5348902 C35,18.9448564 36.0449438,20.5936583 38.4973389,20.9324055 C38.5466194,20.9444137 38.5949143,20.9531293 38.6394638,20.953904 L38.6844076,20.953904 C38.935344,20.9814067 39.1923911,21 39.4606742,21 L44,21 L44,18.7339384 L39.4811748,18.7339384 C38.7013601,18.7339384 37.4541691,18.3560677 37.4541691,16.6379282" id="Fill-4"></path>
                    <polygon id="Fill-6" points="45 13.6156441 45 21 47 21 47 13.5672488 47 7 45 7"></polygon>
                    <path d="M51.3781469,14.4000797 C51.475592,13.1339814 52.6842105,12.1171998 54.1460741,12.1171998 C55.5104926,12.1171998 56.6216661,13.1548906 56.6216661,14.4000797 L51.3781469,14.4000797 Z M54.1460741,10 C51.2027083,10 49,12.1586198 49,15.5206104 L49,15.6038487 C49,18.8829993 51.1249018,21 54.204616,21 C55.6861183,21 57.0699884,20.5640942 58.3371488,19.1321168 L56.9338271,17.6792303 C56.1927954,18.4678035 55.4717765,18.8829993 54.2824225,18.8829993 C52.5476752,18.8829993 51.3975985,17.8036894 51.319792,16.1433045 L58.9609097,16.1433045 C59,15.7283079 59,15.2718912 59,15.2718912 C59,12.3454081 57.0699884,10 54.1460741,10 L54.1460741,10 Z" id="Fill-8"></path>
                    <path d="M66.1804878,12.2454183 C67.201673,12.2454183 67.9579923,12.6573056 68.6007458,13.378306 L70,11.7922237 C68.9033461,10.5150568 67.5986092,10 66.1804878,10 C63.3065108,10 61,12.3276376 61,15.5 C61,18.6723624 63.3065108,21 66.1804878,21 C67.5986092,21 68.9033461,20.4849432 70,19.207974 L68.6007458,17.6214963 C67.9579923,18.3426944 67.201673,18.7545817 66.1804878,18.7545817 C64.5167305,18.7545817 63.2499093,17.374443 63.2499093,15.5 C63.2499093,13.625557 64.5167305,12.2454183 66.1804878,12.2454183" id="Fill-10"></path>
                    <path d="M73.5945067,16.6400393 L73.5913808,16.6398457 L73.5913808,13.0656536 L75.9514442,13.0656536 L75.9514442,10.8759939 L73.5949235,10.8759939 L73.5949235,7 L71,7 L71,12.0216402 L71,16.7821319 L71.0072938,16.7817448 C71.0812737,19.0558083 72.1943067,20.6056638 74.6973284,20.9324382 C74.7494269,20.9444406 74.8002751,20.9533456 74.8475805,20.9541199 L74.8950944,20.9541199 C75.1605885,20.9814157 75.432126,21 75.7159588,21 L75.9904139,21 L76,18.7352286 L75.7374234,18.7352286 C74.9130163,18.7352286 73.5945067,18.3575409 73.5945067,16.6400393" id="Fill-12"></path>
                    <path d="M80.3413802,12.6525098 L80.3413802,11.1942585 L78,11.1942585 L78,15.9997187 L78,21 L80.3413802,21 L80.3413802,15.8438994 C80.3413802,14.2290788 81.3837209,13.2172845 83.0160516,13.2172845 C83.3899141,13.2172845 83.7249115,13.2559112 84,13.3147888 L84,11.0577525 C83.9014156,11.0386267 83.5478387,11 83.2922776,11 C81.8751264,11 80.8130688,11.6418406 80.3413802,12.6525098" id="Fill-14"></path>
                    <path d="M89.5002891,18.7548144 C87.7204437,18.7548144 86.3808372,17.3331348 86.3808372,15.4999007 C86.3808372,13.6658725 87.7204437,12.2449871 89.5002891,12.2449871 C91.2606669,12.2449871 92.619741,13.6658725 92.619741,15.4999007 C92.619741,17.3331348 91.2606669,18.7548144 89.5002891,18.7548144 M89.5002891,10 C86.4400112,10 84,12.3887234 84,15.4999007 C84,18.6094898 86.4400112,21 89.5002891,21 C92.5395574,21 95,18.6094898 95,15.4999007 C95,12.3887234 92.5395574,10 89.5002891,10" id="Fill-16"></path>
                    <polygon id="Fill-18" points="97 13.3741427 97 21 99 21 99 13.4709347 99 7 97 7"></polygon>
                    <path d="M107.643635,16.6666977 C107.643635,18.2137198 106.728314,18.8721223 105.500188,18.8721223 C104.272813,18.8721223 103.357679,18.2137198 103.357679,16.6868301 L103.357679,11 L101,11 L101,13.8237487 L101,16.8801379 C101,19.6654861 103.045625,21 105.481036,21 C107.935974,21 110,19.6462858 110,16.8217914 L110,13.8235623 L110,11 L107.643635,11 L107.643635,16.6666977 Z" id="Fill-20"></path>
                    <polygon id="Fill-22" points="118.757069 17.8019276 117.284595 15.7024515 119.107703 13.1694649 120.669242 11 118.120866 11 115.999625 13.995946 113.859821 11 111.330758 11 112.781107 13.0231767 114.716155 15.7219566 112.688292 18.6024018 111 21 113.50975 21 115.999625 17.4678548 118.490062 21 121 21"></polygon>
                </g>
            </g>
        </g>
    </g>
</svg>