<?xml version="1.0" encoding="UTF-8"?>
<svg width="157px" height="22px" viewBox="0 0 157 22" version="1.1" xmlns="http://www.w3.org/2000/svg" xmlns:xlink="http://www.w3.org/1999/xlink">
    <title>3E2FD87F-F0A4-4D6A-A9C7-70279E68B6AF</title>
    <g id="03_Category" stroke="none" stroke-width="1" fill="none" fill-rule="evenodd">
        <g id="3.0---Product-Detail" transform="translate(-446.000000, -1947.000000)" fill="#1565A4" fill-rule="nonzero">
            <g id="Group-6" transform="translate(0.000000, 1734.000000)">
                <g id="Group" transform="translate(446.000000, 213.000000)">
                    <path d="M110.552394,9.17525714 L114.449622,9.17525714 L114.51413,9.770552 C116.251388,8.21408343 119.239642,8.38976914 119.398394,10.0477331 C119.695436,13.1419389 114.000659,14.927836 114.815432,11.4686189 C114.909639,10.5407217 114.242564,10.7675731 114.013419,11.5581651 L111.394334,16.2941366 L106.777408,16.2941366 L110.552413,9.17556514 L110.552394,9.17525714 Z M99.3828765,16.3604571 C96.1451112,16.0431857 94.3543729,14.1020629 95.3838175,12.0262057 C96.4141378,9.94946857 99.8742677,8.52349143 103.113096,8.84073143 C106.350862,9.15799657 108.142476,11.0991257 107.112155,13.1758629 C106.081835,15.25172 102.621705,16.67776 99.3828765,16.3604571 M101.240668,14.1489543 L102.84726,10.9839714 C103.246991,10.2232114 102.814171,10.0347029 102.204811,10.1174857 C101.5946,10.2010669 101.110002,10.5481829 100.909717,10.9430514 L99.1554454,14.3272171 C98.920352,14.9804914 99.6111895,15.05724 100.220543,14.9737029 C100.830754,14.8909766 101.040384,14.5148583 101.240668,14.1489543 M89.7903016,6.56586857 L94.3223474,6.56586857 L92.8294713,9.24301714 L94.6932052,9.22170857 L93.6340494,10.9470743 L91.9290044,10.9087314 L90.4157996,13.7845714 C89.606155,15.3257029 90.8970077,15.202 91.8323024,15.202 L93.9676275,15.0757703 L93.2122761,16.3073303 L87.601559,16.3111017 C84.7363402,16.3111017 84.9850382,15.3251874 85.6707717,14.2778617 L87.4869677,10.908216 L85.5324116,10.9465589 L86.5287673,9.22119314 L88.4510478,9.275816 L89.7903016,6.565416 L89.7903016,6.56586857 Z M79.8123574,9.93551429 L80.1289219,9.22164571 L84.6245012,9.22164571 L81.6659582,14.5887657 C81.4783963,15.1431343 82.070793,15.1115737 82.2889041,15.1115737 L83.9965137,15.1115737 L83.4355233,16.3140937 L78.0174596,16.3140937 C77.2706149,16.3140937 77.4887198,15.6667909 77.5192754,15.4510023 C76.0374706,17.1575737 68.7691838,16.7763451 70.9496698,12.2459166 C71.8832256,10.1503851 76.1683248,8.08565371 79.8123511,9.93547657 M77.6575105,13.9490309 L78.9925109,11.3725166 C79.3913972,10.6117566 78.7353499,10.505968 78.3491862,10.505968 C77.8798563,10.505968 77.4156304,10.8675851 77.2161591,11.2616366 L75.7733854,13.8927109 C75.5391489,14.5468651 76.1052308,14.8581337 76.7145722,14.7745966 C77.3247831,14.6910154 77.4571635,14.3166069 77.6574479,13.9490309 M58.8155714,9.22757943 L63.3357328,9.22757943 L63.205035,9.78364514 C65.47528,8.164068 70.6547163,9.38279886 69.2528501,12.5503651 L68.2717565,14.3891251 C68.0850453,14.7891229 68.0536391,15.0978394 68.6460357,15.0978394 L69.7043784,15.0978394 L69.2681498,16.3302166 L63.5903793,16.3302166 C62.5312235,16.3302166 62.3131124,15.437268 62.7807347,14.7285537 L64.1157351,12.201508 C65.6400112,10.0812737 62.6882235,10.307308 62.2834012,11.1396623 L59.4861116,16.2994794 L55.044888,16.2994794 L58.8156402,9.22742229 L58.8155714,9.22757943 Z M51.1025555,6.17687086 C51.1025555,5.21396229 52.4434981,4.43359086 54.0976276,4.43359086 C55.7517571,4.43359086 57.091824,5.21396229 57.091824,6.17687086 C57.091824,7.13977943 55.7517571,7.92015086 54.0976276,7.92015086 C52.4434981,7.92015086 51.1025555,7.13977943 51.1025555,6.17687086 M50.5865509,9.22757943 L55.01589,9.22757943 L52.3832314,14.1818537 C52.2270758,14.3660754 51.9155966,15.1362137 52.6947044,15.1362137 L53.7606781,15.1362137 L53.1377384,16.3694709 L49.3695507,16.3694709 C48.2806838,16.3694709 47.284328,15.4142937 47.9369726,14.1818537 L50.5865822,9.22757943 L50.5865509,9.22757943 Z M37.9502402,9.23468229 L42.6375971,9.23468229 L42.6375971,14.0363394 L47.4564963,9.26711657 L49.007919,9.26711657 L42.3413613,16.3222023 L37.9502402,16.3222023 L37.9502402,9.23505943 L37.9502402,9.23468229 Z M33.6897856,6.61555086 L38.1123692,6.61555086 L34.1218171,14.0829794 C33.8103441,14.7601394 33.4360836,15.1917166 34.245722,15.1917166 L36.3479582,15.1917166 L35.7869678,16.3626823 L31.3253531,16.3626823 C28.49241,16.3626823 29.4013837,14.5682366 29.9004061,13.6130594 L33.6898606,6.61517371 L33.6897856,6.61555086 Z M29.1229621,13.524808 L22.5608625,13.5222937 C22.3223851,14.1116171 22.1161459,14.342768 22.0694712,14.5278194 C22.0694712,14.9440154 22.4250731,15.0787686 22.8910003,15.0787686 L27.5868641,15.0787686 L27.0886799,16.3111457 L21.8259273,16.3273629 C17.6223305,16.4501794 17.6409704,13.8301743 17.6248951,13.3218486 C17.6248951,10.5952314 20.7548871,9.16498 23.8187014,9.16498 C26.8833289,9.16498 29.3683074,10.5500371 29.3683074,12.2591857 C29.3683074,12.7103491 29.435317,13.1376143 29.1230371,13.5248143 M23.2296575,12.1048086 L24.9499646,12.1048086 C25.8843961,10.0400143 24.2582889,9.67160857 23.2296575,12.1048086 M5.23407976,6.59104286 L11.125708,6.59104286 L8.74343633,10.9372371 L17.1957909,6.59959143 L19.8428985,6.59959143 L12.0842212,11.0021057 L15.1683642,14.4212829 C15.5426435,14.9355549 15.6665546,15.0685857 16.0408088,15.0685857 L17.5166714,15.0685857 L16.8317511,16.2975686 L10.3409582,16.2975686 L7.55129968,13.2110314 L5.84625466,16.2975686 L0.00297737052,16.2975686 L5.23432996,6.59116857 L5.23407976,6.59104286 Z M146.083721,8.15348286 C146.121126,8.11507714 146.136326,8.06904686 146.136326,8.0102 C146.136326,7.89335486 146.039574,7.79868571 145.925845,7.79868571 L143.953463,7.79868571 C142.89512,8.94752571 138.161101,11.1120743 136.902224,11.1120743 C136.902224,11.1120743 134.094738,9.90609714 133.234991,7.623 C133.775615,5.63413714 137.720375,2.95610857 139.459322,2.68066857 L146.651924,7.80044571 L153.035756,7.79981714 C153.210583,7.79981714 153.461802,7.58745429 153.461802,7.36996857 C153.461802,7.31276857 153.471935,7.23607029 153.449917,7.18745657 C152.641086,4.84803943 148.477396,2.09671943 141.396571,2.54105657 L139.126326,0.774770857 C147.312844,-0.143760571 154.795676,3.31206229 155.096541,7.65574229 C154.652669,9.27280514 153.751345,10.6578623 151.180673,12.1801994 C150.450779,12.5887206 150.123206,13.7537651 151.374171,14.0539709 C154.443052,15.2207251 155.371541,15.4279023 156.316981,16.3754737 C156.520668,16.6799411 156.151493,16.6330371 156.172704,16.5844234 C151.032987,14.2321834 135.708285,15.7562806 129.187469,16.8479798 C129.011791,16.8504726 129.085631,16.6321823 129.298651,16.5605377 C135.935185,14.337092 140.436269,14.6219606 140.759651,13.439932 C141.076209,12.279212 138.528437,12.7320349 138.902673,11.9925834 C140.326806,11.6761669 144.831643,9.35208057 146.08339,8.15383486 M142.812535,7.75383714 C143.034888,7.75383714 143.17408,7.58752971 143.17408,7.37260857 C143.17408,7.25490857 143.122226,7.15000629 143.04083,7.07922286 C142.110652,6.28005714 139.259882,3.86904571 139.259882,3.86904571 C139.034972,3.73429886 138.87881,3.790556 138.87881,3.790556 C137.347778,4.28521657 134.743142,6.44809314 134.404497,7.12783029 C134.216936,7.48261486 134.030224,7.75383714 134.617523,7.75383714 L142.812798,7.75383714 L142.812535,7.75383714 Z M129.195444,17.6708086 C129.152973,17.6222829 129.03419,17.5207057 129.321907,17.4635623 C135.736389,16.2021451 151.749764,16.4477909 156.178915,17.5897857 C156.287552,17.6178829 156.435219,17.7740074 156.270575,17.86356 C151.652836,18.8110686 151.269219,22.5440914 150.475649,21.8225543 C147.882022,19.4626457 133.113701,17.3475657 129.195581,17.6707771" id="Shape"></path>
                </g>
            </g>
        </g>
    </g>
</svg>