<?xml version="1.0" encoding="UTF-8"?>
<svg width="76px" height="30px" viewBox="0 0 76 30" version="1.1" xmlns="http://www.w3.org/2000/svg" xmlns:xlink="http://www.w3.org/1999/xlink">
    <!-- Generator: sketchtool 52.3 (67297) - http://www.bohemiancoding.com/sketch -->
    <title>F33E5125-12C7-4098-B1D7-AFF1DFB4E593</title>
    <desc>Created with sketchtool.</desc>
    <defs>
        <polygon id="path-1" points="0.477714286 0.101428571 24.5 0.101428571 24.5 28.5713571 0.477714286 28.5713571"></polygon>
    </defs>
    <g id="Homepage" stroke="none" stroke-width="1" fill="none" fill-rule="evenodd">
        <g id="2.0---Homepage-/-Hero-Banner" transform="translate(-128.000000, -15.000000)">
            <g id="Logo-AEG" transform="translate(128.000000, 15.000000)">
                <path d="M29.5315714,0.714071429 L29.5315714,28.7940714 L48.068,28.7940714 L49.4115714,25.4126429 L36.6422857,25.4126429 L36.6422857,16.2390714 L45.5215714,16.2390714 L46.8244286,12.9576429 L36.6422857,12.9576429 L36.6422857,4.09478571 L47.7787143,4.09478571 L49.1208571,0.714071429 L29.5315714,0.714071429 Z M7.70514286,0.714071429 L9.413,5.0805 L0.000142857143,28.7940714 L3.73442857,28.7940714 L6.40442857,22.0662143 L16.0601429,22.0662143 L18.6944286,28.7940714 L26.2887143,28.7940714 L15.3001429,0.714071429 L7.70514286,0.714071429 Z M11.2672857,9.81764286 L14.7972857,18.8376429 L7.68585714,18.8376429 L11.2672857,9.81764286 Z" id="Fill-1" fill="#cf122d"></path>
                <g id="Group-4" transform="translate(50.714286, 0.612857)">
                    <mask id="mask-2" fill="white">
                        <use xlink:href="#path-1"></use>
                    </mask>
                    <g id="Clip-3"></g>
                    <path d="M13.1798571,15.6263571 L17.867,15.6263571 L17.867,25.1285 C17.3055714,25.2827857 16.6634286,25.3735 15.9834286,25.3727857 C9.66557143,25.3727857 7.817,19.5163571 7.817,14.3363571 C7.817,9.36635714 9.40342857,3.48207143 15.5112857,3.48207143 L22.0198571,3.48207143 L23.3612857,0.101357143 L14.747,0.101357143 C6.382,0.101357143 0.477714286,5.88207143 0.477714286,14.3363571 C0.477714286,22.6863571 6.14842857,28.5713571 14.942,28.5713571 C19.3234286,28.5713571 22.1627143,27.7363571 24.5005714,26.9213571 L24.5005714,12.3449286 L14.4827143,12.3449286 L13.1798571,15.6263571 Z" id="Fill-2" fill="#cf122d" mask="url(#mask-2)"></path>
                </g>
            </g>
        </g>
    </g>
</svg>