<?xml version="1.0" encoding="UTF-8"?>
<svg width="132px" height="22px" viewBox="0 0 132 22" version="1.1" xmlns="http://www.w3.org/2000/svg" xmlns:xlink="http://www.w3.org/1999/xlink">
    <title>A4D1F523-1ECA-489B-B0CC-650229FBEDB8</title>
    <g id="03_Category" stroke="none" stroke-width="1" fill="none" fill-rule="evenodd">
        <g id="3.0---Product-Detail" transform="translate(-749.000000, -1947.000000)" fill-rule="nonzero">
            <g id="Group-6" transform="translate(0.000000, 1734.000000)">
                <g id="Simpson-logo" transform="translate(750.000000, 214.000000)">
                    <path d="M17.2332759,2.53932584 C17.3236207,2.62921348 17.2332759,2.69662921 17.142931,2.78651685 C16.3298276,2.4494382 15.5844828,1.91011236 14.6358621,1.86516854 C12.7386207,1.61797753 11.0446552,2.42696629 9.96051724,3.93258427 C9.55396552,4.51685393 9.32810345,5.16853933 9.17,5.86516854 C9.03448276,8.53932584 8.96672414,13.011236 8.96672414,13.011236 C6.32413793,13.011236 3.52344828,13.0337079 0.835689655,12.9438202 C0.29362069,12.4044944 0.338793103,11.5955056 0.135517241,10.8988764 C-0.180689655,7.28089888 1.40034483,4.24719101 4.17844828,2.04494382 C7.06948276,-0.337078652 11.9481034,-0.629213483 15.2456897,1.14606742 C15.9458621,1.50561798 16.6912069,1.91011236 17.2332759,2.53932584 Z" id="Path" stroke="#FFFFFF" stroke-width="0.884" fill="#004982" stroke-linejoin="round"></path>
                    <path d="M99.4696552,4.58426966 C99.7181034,5.28089888 99.672931,6.08988764 99.672931,6.87640449 L94.6813793,6.87640449 C94.6362069,6 94.8394828,5.05617978 94.0715517,4.4494382 C93.4843103,4.11235955 92.5808621,4.06741573 92.0839655,4.47191011 C91.8355172,4.71910112 91.7,5.05617978 91.7903448,5.41573034 C91.8806897,5.7752809 91.9484483,6.24719101 92.4001724,6.40449438 C94.2974138,7.1011236 96.1946552,7.82022472 98.0467241,8.6741573 C99.9891379,9.61797753 99.6503448,12 99.6277586,13.8426966 C99.4922414,14.9438202 99.0405172,16.0224719 97.9789655,16.5393258 C94.7943103,18 90.1641379,18.1123596 87.2505172,15.9775281 C86.2115517,14.988764 86.5277586,13.3483146 86.5277586,11.9550562 C86.5277586,11.9325843 91.4289655,11.9550562 91.4289655,11.9550562 C91.4967241,12.8988764 91.2256897,14.0224719 91.9032759,14.7191011 C92.4453448,15.0561798 93.2132759,15.1685393 93.7553448,14.8089888 C94.3425862,14.2696629 94.3877586,13.3707865 94.0941379,12.6741573 L93.4843103,12.0898876 L88.3346552,10.0224719 C86.8891379,9.23595506 86.3696552,7.84269663 86.4148276,6.31460674 C86.5503448,5.12359551 86.5051724,3.88764045 87.4989655,3.03370787 C89.5994828,1.48314607 92.5356897,1.48314607 95.2234483,1.75280899 C96.9625862,2 98.9727586,2.69662921 99.4696552,4.58426966 Z" id="Path" fill="#000000"></path>
                    <path d="M130.390172,3.61797753 C131,4.47191011 130.909655,5.59550562 131,6.65168539 L131,17.2359551 L130.841897,17.3258427 L125.353448,17.3258427 L125.308276,6.15730337 C124.946897,5.30337079 123.840172,5.28089888 122.936724,5.28089888 C122.485,5.30337079 122.146207,5.23595506 122.01069,5.64044944 L122.01069,17.3033708 C121.129828,17.3483146 118.419483,17.2808989 116.635172,17.3258427 L116.544828,17.2134831 L116.544828,1.91011236 L116.725517,1.79775281 C117.741897,1.79775281 126.053621,1.68539326 127.860517,1.91011236 C128.876897,2.11235955 129.780345,2.76404494 130.390172,3.61797753 Z" id="Path" fill="#000000"></path>
                    <path d="M39.5032759,4.13483146 C39.8194828,4.96629213 40.0001724,5.93258427 39.8194828,6.85393258 C38.2610345,6.92134831 36.5218966,6.92134831 34.9182759,6.83146067 C34.715,5.93258427 35.0086207,4.85393258 34.1503448,4.31460674 C33.6534483,4.11235955 32.9984483,4.11235955 32.5015517,4.26966292 C32.095,4.51685393 31.9594828,4.96629213 32.0498276,5.37078652 C32.0498276,5.82022472 32.3434483,6.20224719 32.7048276,6.40449438 C34.7601724,7.34831461 36.9962069,7.88764045 38.9160345,9.16853933 C40.2712069,10.3595506 39.8194828,12.4269663 39.7968966,14.1348315 C39.6613793,15.2808989 38.8482759,16.3595506 37.7189655,16.7865169 C34.827931,17.8876404 30.9882759,17.752809 28.1875862,16.4719101 C26.4258621,15.6404494 26.7872414,13.5955056 26.7646552,11.8651685 L26.9001724,11.8202247 L31.5981034,11.752809 L31.6884483,11.8426966 C31.8917241,12.9213483 31.3948276,14.4269663 32.5918966,14.9662921 C32.9984483,15.1235955 33.6308621,15.1235955 34.0374138,14.8988764 C34.4439655,14.5617978 34.5343103,14.0449438 34.5343103,13.505618 C34.5794828,12.9213483 34.2406897,12.4719101 33.7889655,12.1573034 C32.0272414,11.3258427 30.1525862,10.6741573 28.3456897,9.88764045 C26.6517241,8.85393258 26.6743103,6.80898876 26.8324138,4.98876404 C26.967931,3.93258427 27.7810345,2.98876404 28.7296552,2.53932584 C31.1237931,1.48314607 34.3536207,1.52808989 36.9058621,2.15730337 C37.99,2.40449438 39.0967241,3.07865169 39.5032759,4.13483146 Z" id="Path" fill="#000000"></path>
                    <path d="M69.43,2.8988764 C70.6722414,4.24719101 70.1753448,6.31460674 70.2882759,8.08988764 L70.2656897,17.2808989 C70.2656897,17.2808989 64.9127586,17.2808989 64.8901724,17.3033708 L64.8901724,6.06741573 C64.7772414,5.66292135 64.3481034,5.41573034 63.9641379,5.28089888 C63.3994828,5.16853933 62.5412069,4.98876404 62.1572414,5.52808989 L62.1346552,17.2808989 C60.372931,17.3483146 58.5434483,17.258427 56.7365517,17.2808989 L56.6462069,17.1460674 L56.6462069,6.08988764 C56.5106897,5.52808989 56.1493103,5.41573034 55.7653448,5.28089888 C55.3813793,5.19101124 54.5231034,4.96629213 54.0262069,5.5505618 L54.0036207,17.1685393 L54.0036207,17.2808989 L48.8539655,17.3033708 L48.7410345,17.1685393 L48.7184483,1.84269663 C48.7184483,1.84269663 57.1205172,1.73033708 57.8432759,1.86516854 C58.5660345,2 59.1532759,2.31460674 59.7856897,2.65168539 C60.2825862,2.49438202 60.5987931,2.15730337 61.1860345,1.95505618 C62.5186207,1.48314607 66.5841379,1.79775281 67.4198276,1.88764045 C68.1877586,2.11235955 68.887931,2.31460674 69.43,2.8988764 Z" id="Path" fill="#000000"></path>
                    <path d="M46.5953448,2.02247191 L46.6405172,17.2134831 L46.4372414,17.3258427 L41.3101724,17.3033708 L41.152069,17.2134831 L41.1746552,1.93258427 L41.377931,1.84269663 C43.117069,1.84269663 44.8336207,1.86516854 46.5275862,1.86516854 L46.5953448,2.02247191 Z" id="Path" fill="#000000"></path>
                    <path d="M83.4334483,1.95505618 C84.1336207,2.15730337 84.7886207,2.60674157 85.1951724,3.23595506 C85.692069,4.38202247 85.5565517,5.75280899 85.6468966,7.05617978 C85.4436207,9.03370787 86.1663793,11.7078652 83.9303448,12.5842697 C81.987931,13.0337079 77.8094828,12.8764045 77.6965517,12.9213483 C77.5836207,12.9662921 77.4706897,13.2808989 77.4932759,13.1685393 C77.4932759,13.0561798 77.5158621,17.3258427 77.5158621,17.3258427 C75.6863793,17.3483146 73.902069,17.3483146 72.0048276,17.3258427 L72.0274138,1.88764045 C75.7315517,1.88764045 79.6389655,1.7752809 83.4334483,1.95505618 Z M77.4932759,5.3258427 C77.4932759,5.3258427 77.4932759,9.48314607 77.4932759,9.48314607 C78.2386207,9.64044944 79.1872414,9.66292135 80.022931,9.57303371 C80.2713793,9.52808989 80.5198276,9.3258427 80.5198276,9.07865169 C80.4746552,7.93258427 80.7456897,6.65168539 80.4068966,5.64044944 C80.0906897,5.14606742 77.9675862,5.3258427 77.4932759,5.3258427 Z" id="Shape" fill="#000000"></path>
                    <path d="M20.5534483,7.19101124 C21.5246552,10.6067416 20.5308621,14.0898876 18.2044828,16.5842697 C15.4715517,19.4382022 11.5867241,20.494382 7.67931034,19.6179775 C6.14344828,19.1235955 4.67534483,18.4494382 3.56862069,17.1460674 C3.6137931,17.0561798 3.65896552,16.8988764 3.81706897,16.8988764 C5.30775862,17.9325843 7.5212069,18.5617978 9.17,17.4831461 C10.4574138,16.6292135 11.677069,16 11.677069,13.5505618 L11.7448276,6.92134831 L11.902931,6.80898876 C14.7036207,6.85393258 17.5494828,6.78651685 20.2824138,6.83146067 L20.5534483,7.19101124 Z" id="Path" stroke="#FFFFFF" stroke-width="0.884" fill="#0097D9" stroke-linejoin="round"></path>
                    <path d="M114.286207,4.47191011 C114.941207,7.19101124 114.715345,10.4269663 114.579828,13.3033708 C114.579828,14.5842697 113.902241,15.5955056 112.953621,16.3820225 C110.717586,17.7752809 107.623276,17.9325843 104.935517,17.3707865 C103.693276,17.0786517 102.383276,16.3370787 101.683103,15.1910112 C100.711897,12.5168539 101.095862,9.3258427 101.095862,6.31460674 C101.028103,4.71910112 101.931552,3.12359551 103.467414,2.49438202 C106.313276,1.39325843 110.085172,1.3258427 112.795517,2.76404494 C113.427931,3.14606742 114.037759,3.7752809 114.286207,4.47191011 Z M106.313276,14.0898876 C106.313276,15.1910112 109.407586,15.3033708 109.407586,14.0898876 C109.407586,12.8764045 109.385,6.85393258 109.385,5.52808989 C109.385,4.20224719 106.313276,4.26966292 106.313276,5.52808989 C106.313276,5.52808989 106.313276,12.988764 106.313276,14.0898876 Z" id="Shape" fill="#000000"></path>
                </g>
            </g>
        </g>
    </g>
</svg>