<?xml version="1.0" encoding="UTF-8"?>
<svg width="81px" height="29px" viewBox="0 0 81 29" version="1.1" xmlns="http://www.w3.org/2000/svg" xmlns:xlink="http://www.w3.org/1999/xlink">
    <title>A5267320-FB94-4675-B5EC-37A5BE282D14</title>
    <g id="03_Category" stroke="none" stroke-width="1" fill="none" fill-rule="evenodd">
        <g id="3.0---Product-Detail" transform="translate(-775.000000, -2019.000000)">
            <g id="Group-6" transform="translate(0.000000, 1734.000000)">
                <g id="LOGO-/-zanussi" transform="translate(775.000000, 285.000000)">
                    <polyline id="Fill-3" fill="#0A0B09" points="0.159969359 21.1609375 0.159969359 17.6643984 6.42584958 3.7500625 0.153200557 3.7500625 0.153200557 0.406 11.49839 0.406 11.49839 3.76207031 5.31599164 17.7004219 11.615039 17.7004219 11.615039 21.1609375 0.159969359 21.1609375"></polyline>
                    <path d="M17.1293565,15.5958828 L18.7204763,15.5958828 L18.1703983,6.30296875 L17.6153565,6.30296875 L17.1293565,15.5958828 Z M12.3338858,21.1609375 L13.6982507,0.406 L21.8963983,0.406 L23.7918886,21.1609375 L19.3122953,21.1609375 L19.1281838,19.0545859 L16.7424067,19.0545859 L16.5585209,21.1609375 L12.3338858,21.1609375 L12.3338858,21.1609375 Z" id="Fill-4" fill="#0A0B09"></path>
                    <polyline id="Fill-5" fill="#0A0B09" points="24.9804903 21.1609375 24.9804903 0.406 29.2820641 0.406 31.8363844 8.6039375 31.8363844 0.406 36.4671476 0.406 36.4671476 21.1609375 31.9681504 21.1609375 29.5925265 13.5656563 29.5925265 21.1609375 24.9804903 21.1609375"></polyline>
                    <path d="M38.075415,0.406 L42.6777493,0.406 L42.6777493,17.0637813 C42.6777493,17.0637813 42.7332535,18.1961406 43.8523621,18.1961406 C45.1142925,18.1961406 45.1697967,17.0368203 45.1697967,17.0368203 L45.1697967,0.406 L49.6078747,0.406 L49.6078747,17.0166563 C49.6078747,17.0166563 49.858546,21.659375 43.7239805,21.659375 C38.075415,21.659375 38.075415,16.6326328 38.075415,16.6326328 L38.075415,0.406" id="Fill-6" fill="#0A0B09"></path>
                    <polygon id="Fill-7" fill="#0A0B09" points="76.0152284 21.1607109 80.8467994 21.1607109 80.8467994 0.406 76.0152284 0.406"></polygon>
                    <path d="M62.354883,4.85614062 L62.354883,6.7261875 L57.6343203,6.7261875 L57.6343203,4.571125 C57.6343203,4.01038281 57.5497103,3.47207031 57.3804903,3.24414844 C57.2114958,3.016 56.9177298,2.90203906 56.4998691,2.90203906 C56.0914847,2.90203906 55.8078719,3.01373437 55.648805,3.23689844 C55.4897382,3.46028906 55.2665933,4.00086719 55.2665933,4.571125 L55.2665933,5.9395625 C55.533961,8.02869531 59.5855404,8.90549219 61.6028691,11.3544062 C62.8025265,12.81075 62.677078,14.5450859 62.677078,15.2197891 L62.677078,16.5028125 C62.677078,18.1279453 62.0087716,19.3776641 60.9589304,20.2519687 C59.9088635,21.1265 58.4082201,21.5635391 56.4579025,21.5635391 C54.4669721,21.5635391 53.3230446,21.1550469 52.4521253,20.3373828 C51.5812061,19.5203984 50.8594262,18.1660078 50.8594262,16.2746641 L50.8594262,14.4331641 L55.4127994,14.4331641 L55.4127994,16.5028125 C55.4127994,17.1491953 55.5123008,17.6075312 55.7113036,17.8785 C55.9103064,18.1492422 56.1056992,18.2847266 56.583351,18.2847266 C57.0610028,18.2847266 57.3942535,18.1587578 57.5835543,17.9070469 C57.7726295,17.6553359 57.8673928,17.1870312 57.8673928,16.5028125 L57.8673928,15.6903594 C57.8673928,15.1010703 57.7329192,14.5903984 57.4639721,14.1576641 C57.1954763,13.7253828 53.2576128,11.3877109 53.2576128,11.3877109 C52.3618747,10.7510703 51.7197409,10.0668516 51.331663,9.33482812 C50.9433593,8.60325781 50.7493203,7.44597656 50.7493203,6.43845312 L50.7493203,4.59967187 C50.7493203,3.18365625 51.4273287,2.04064844 52.4974763,1.17110156 C53.5673983,0.301554687 54.5685042,0.0106484375 56.3599805,0.0106484375 C58.0517298,0.0106484375 59.9036741,0.28728125 60.7696295,1.12828125 C61.6353593,1.96950781 62.354883,3.21220312 62.354883,4.85614062" id="Fill-8" fill="#0A0B09"></path>
                    <path d="M74.9728329,4.85614062 L74.9728329,6.7261875 L70.2524958,6.7261875 L70.2524958,4.571125 C70.2524958,4.01038281 70.1678858,3.47207031 69.9986657,3.24414844 C69.8294457,3.016 69.5359053,2.90203906 69.1178189,2.90203906 C68.7096602,2.90203906 68.4260474,3.01373437 68.2669805,3.23689844 C68.107688,3.46028906 67.8847688,4.00086719 67.8847688,4.571125 L67.8847688,5.9395625 C68.1519109,8.02869531 72.2037159,8.90549219 74.2210446,11.3544062 C75.4207019,12.81075 75.2952535,14.5450859 75.2952535,15.2197891 L75.2952535,16.5028125 C75.2952535,18.1279453 74.6269471,19.3776641 73.5771058,20.2519687 C72.5268134,21.1265 71.0263955,21.5635391 69.076078,21.5635391 C67.0851476,21.5635391 65.9409944,21.1550469 65.0703008,20.3373828 C64.1993816,19.5203984 63.4776017,18.1660078 63.4776017,16.2746641 L63.4776017,14.4331641 L68.0309749,14.4331641 L68.0309749,16.5028125 C68.0309749,17.1491953 68.1302507,17.6075312 68.3294791,17.8785 C68.5282563,18.1492422 68.723649,18.2847266 69.2015265,18.2847266 C69.6791783,18.2847266 70.012429,18.1587578 70.2015042,17.9070469 C70.390805,17.6553359 70.4853426,17.1870312 70.4853426,16.5028125 L70.4853426,15.6903594 C70.4853426,15.1010703 70.3510947,14.5903984 70.0821476,14.1576641 C69.8136518,13.7253828 65.8757883,11.3877109 65.8757883,11.3877109 C64.9800501,10.7510703 64.3379164,10.0668516 63.9496128,9.33482812 C63.5615348,8.60325781 63.3674958,7.44597656 63.3674958,6.43845312 L63.3674958,4.59967187 C63.3674958,3.18365625 64.0455042,2.04064844 65.1156518,1.17110156 C66.1853482,0.301554687 67.1866797,0.0106484375 68.9779304,0.0106484375 C70.6696797,0.0106484375 72.521624,0.28728125 73.387805,1.12828125 C74.2535348,1.96950781 74.9728329,3.21220312 74.9728329,4.85614062" id="Fill-9" fill="#0A0B09"></path>
                    <polygon id="Fill-10" fill="#10A650" points="0.105142061 28.880375 27.1855404 28.880375 27.1855404 26.7230469 0.105142061 26.7230469"></polygon>
                    <polygon id="Fill-11" fill="#FFFFFE" points="27.185766 28.880375 54.040312 28.880375 54.040312 26.7230469 27.185766 26.7230469"></polygon>
                    <polygon id="Fill-12" fill="#BF2C34" points="54.040312 28.880375 80.8946323 28.880375 80.8946323 26.7230469 54.040312 26.7230469"></polygon>
                </g>
            </g>
        </g>
    </g>
</svg>