<!DOCTYPE svg PUBLIC "-//W3C//DTD SVG 1.1//EN" "http://www.w3.org/Graphics/SVG/1.1/DTD/svg11.dtd">
<svg xmlns="http://www.w3.org/2000/svg" version="1.0" width="1024.000000pt" height="1024.000000pt" viewBox="0 0 1024.000000 1024.000000" preserveAspectRatio="xMidYMid meet">
<g transform="translate(200.000000,100.000000)" fill="#000000" stroke="none">
	<path fill="#002D62" d="M-28.835,728.5c669.672,0,669.672,0,669.672,0
		c0-664.999,0-664.999,0-664.999c-669.672,0-669.672,0-669.672,0V728.5z M400.477,114.316
		C519.051,152.87,604.327,264.14,604.62,395.851c0.289,129.669-83.525,240.646-204.144,281.825V114.316L400.477,114.316z
		 M305.853,99.131c21.32,0,44.097,2.625,63.081,6.717c0,150.699-146.897,274.524-298.181,274.524c-63.374,0-63.374,0-63.374,0
		C17.893,225.88,146.687,99.131,305.853,99.131 M70.753,411.619c151.574,0,298.181,123.835,298.181,274.529
		c-18.983,3.798-42.929,6.722-63.081,6.722C146.394,692.572,13.512,565.535,7.379,411.619H70.753z"/>
</g>
</svg>